%TF.GenerationSoftware,KiCad,Pcbnew,7.0.2*%
%TF.CreationDate,2024-03-07T11:00:20+05:30*%
%TF.ProjectId,HI-2401,48492d32-3430-4312-9e6b-696361645f70,rev?*%
%TF.SameCoordinates,Original*%
%TF.FileFunction,Legend,Top*%
%TF.FilePolarity,Positive*%
%FSLAX46Y46*%
G04 Gerber Fmt 4.6, Leading zero omitted, Abs format (unit mm)*
G04 Created by KiCad (PCBNEW 7.0.2) date 2024-03-07 11:00:20*
%MOMM*%
%LPD*%
G01*
G04 APERTURE LIST*
%ADD10C,0.500000*%
%ADD11C,0.150000*%
%ADD12C,0.120000*%
G04 APERTURE END LIST*
D10*
G36*
X39736195Y-48257058D02*
G01*
X39797869Y-48318732D01*
X39886500Y-48495995D01*
X39991427Y-48915703D01*
X39991427Y-49449389D01*
X39886500Y-49869097D01*
X39797868Y-50046361D01*
X39736194Y-50108036D01*
X39587172Y-50182547D01*
X39467112Y-50182547D01*
X39318086Y-50108034D01*
X39256414Y-50046362D01*
X39167784Y-49869103D01*
X39062856Y-49449388D01*
X39062856Y-48915704D01*
X39167782Y-48495997D01*
X39256414Y-48318732D01*
X39318089Y-48257058D01*
X39467111Y-48182547D01*
X39587172Y-48182547D01*
X39736195Y-48257058D01*
G37*
G36*
X44955713Y-52258143D02*
G01*
X25562857Y-52258143D01*
X25562857Y-49160104D01*
X27007336Y-49160104D01*
X27015238Y-49177407D01*
X27015238Y-50468491D01*
X27046046Y-50573413D01*
X27157000Y-50669555D01*
X27302319Y-50690449D01*
X27435865Y-50629461D01*
X27515238Y-50505954D01*
X27515238Y-49373023D01*
X28443809Y-49373023D01*
X28443809Y-50468491D01*
X28474617Y-50573413D01*
X28585571Y-50669555D01*
X28730890Y-50690449D01*
X28864436Y-50629461D01*
X28943809Y-50505954D01*
X28943809Y-50468491D01*
X29634286Y-50468491D01*
X29665094Y-50573413D01*
X29776048Y-50669555D01*
X29921367Y-50690449D01*
X30054913Y-50629461D01*
X30134286Y-50505954D01*
X30134286Y-50469628D01*
X33674002Y-50469628D01*
X33685759Y-50495372D01*
X33687778Y-50523601D01*
X33715660Y-50560846D01*
X33734990Y-50603174D01*
X33758800Y-50618476D01*
X33775760Y-50641131D01*
X33819353Y-50657390D01*
X33858497Y-50682547D01*
X33886798Y-50682547D01*
X33913316Y-50692438D01*
X33958783Y-50682547D01*
X35515467Y-50682547D01*
X35620389Y-50651739D01*
X35716531Y-50540785D01*
X35737425Y-50395466D01*
X35676437Y-50261920D01*
X35552930Y-50182547D01*
X34535458Y-50182547D01*
X35081709Y-49636295D01*
X36174002Y-49636295D01*
X36179929Y-49649275D01*
X36179414Y-49663537D01*
X36210038Y-49715204D01*
X36234990Y-49769841D01*
X36246996Y-49777556D01*
X36254272Y-49789832D01*
X36307964Y-49816738D01*
X36358497Y-49849214D01*
X36372769Y-49849214D01*
X36385526Y-49855607D01*
X36445246Y-49849214D01*
X37372380Y-49849214D01*
X37372380Y-50468491D01*
X37403188Y-50573413D01*
X37514142Y-50669555D01*
X37659461Y-50690449D01*
X37793007Y-50629461D01*
X37872380Y-50505954D01*
X37872380Y-49849214D01*
X38015467Y-49849214D01*
X38120389Y-49818406D01*
X38216531Y-49707452D01*
X38237425Y-49562133D01*
X38195160Y-49469585D01*
X38552517Y-49469585D01*
X38562856Y-49510941D01*
X38562856Y-49516110D01*
X38571553Y-49545729D01*
X38678568Y-49973792D01*
X38675469Y-50002503D01*
X38696023Y-50043612D01*
X38698086Y-50051862D01*
X38712042Y-50075650D01*
X38813326Y-50278218D01*
X38822268Y-50319322D01*
X38870983Y-50368037D01*
X38917896Y-50418472D01*
X38922627Y-50419681D01*
X38971059Y-50468114D01*
X38992539Y-50504278D01*
X39054147Y-50535082D01*
X39114614Y-50568099D01*
X39119484Y-50567750D01*
X39284255Y-50650136D01*
X39334687Y-50682547D01*
X39385780Y-50682547D01*
X39436063Y-50691595D01*
X39457879Y-50682547D01*
X39632726Y-50682547D01*
X39692334Y-50688983D01*
X39738035Y-50666132D01*
X39787055Y-50651739D01*
X39802521Y-50633889D01*
X39968053Y-50551124D01*
X40009156Y-50542183D01*
X40057865Y-50493473D01*
X40108305Y-50446555D01*
X40109515Y-50441822D01*
X40157944Y-50393392D01*
X40194110Y-50371913D01*
X40224922Y-50310288D01*
X40257932Y-50249835D01*
X40257583Y-50244966D01*
X40292134Y-50175864D01*
X40814869Y-50175864D01*
X40846077Y-50319322D01*
X40994868Y-50468114D01*
X41016348Y-50504278D01*
X41077956Y-50535082D01*
X41138423Y-50568099D01*
X41143293Y-50567750D01*
X41308064Y-50650136D01*
X41358496Y-50682547D01*
X41409589Y-50682547D01*
X41459872Y-50691595D01*
X41481688Y-50682547D01*
X42132732Y-50682547D01*
X42192335Y-50688982D01*
X42238032Y-50666133D01*
X42287055Y-50651739D01*
X42302522Y-50633888D01*
X42468050Y-50551124D01*
X42509154Y-50542183D01*
X42557869Y-50493467D01*
X42608304Y-50446555D01*
X42609513Y-50441823D01*
X42657946Y-50393391D01*
X42694110Y-50371912D01*
X42724914Y-50310303D01*
X42757931Y-50249837D01*
X42757582Y-50244966D01*
X42839968Y-50080195D01*
X42872379Y-50029764D01*
X42872379Y-49978670D01*
X42881427Y-49928388D01*
X42872379Y-49906572D01*
X42872379Y-49374582D01*
X42878815Y-49314974D01*
X42855964Y-49269272D01*
X42841571Y-49220253D01*
X42823721Y-49204786D01*
X42740956Y-49039254D01*
X42732015Y-48998152D01*
X42683302Y-48949439D01*
X42636387Y-48899003D01*
X42631655Y-48897793D01*
X42583223Y-48849361D01*
X42561745Y-48813198D01*
X42500134Y-48782392D01*
X42439668Y-48749376D01*
X42434798Y-48749724D01*
X42298967Y-48681808D01*
X42762616Y-48151923D01*
X42763245Y-48151739D01*
X42810868Y-48096778D01*
X42834192Y-48070123D01*
X42834451Y-48069562D01*
X42859387Y-48040785D01*
X42864630Y-48004314D01*
X42880098Y-47970874D01*
X42874861Y-47933159D01*
X42880281Y-47895466D01*
X42864973Y-47861947D01*
X42859907Y-47825456D01*
X42835112Y-47796560D01*
X42819293Y-47761920D01*
X42788293Y-47741998D01*
X42764302Y-47714038D01*
X42727820Y-47703134D01*
X42695786Y-47682547D01*
X42658940Y-47682547D01*
X42623638Y-47671996D01*
X42587051Y-47682547D01*
X41038816Y-47682547D01*
X40933894Y-47713355D01*
X40837752Y-47824309D01*
X40816858Y-47969628D01*
X40877846Y-48103174D01*
X41001353Y-48182547D01*
X42071437Y-48182547D01*
X41648809Y-48665551D01*
X41648180Y-48665736D01*
X41600469Y-48720796D01*
X41577233Y-48747353D01*
X41576974Y-48747911D01*
X41552038Y-48776690D01*
X41546794Y-48813160D01*
X41531326Y-48846602D01*
X41536563Y-48884318D01*
X41531144Y-48922009D01*
X41546450Y-48955526D01*
X41551518Y-48992020D01*
X41576312Y-49020915D01*
X41592132Y-49055555D01*
X41623130Y-49075476D01*
X41647123Y-49103437D01*
X41683605Y-49114341D01*
X41715639Y-49134928D01*
X41752483Y-49134928D01*
X41787787Y-49145480D01*
X41824377Y-49134928D01*
X42087171Y-49134928D01*
X42236195Y-49209440D01*
X42297867Y-49271112D01*
X42372379Y-49420136D01*
X42372379Y-49897339D01*
X42297866Y-50046364D01*
X42236194Y-50108036D01*
X42087173Y-50182547D01*
X41490921Y-50182547D01*
X41341895Y-50108034D01*
X41226120Y-49992259D01*
X41130145Y-49939853D01*
X40983706Y-49950326D01*
X40866176Y-50038308D01*
X40814869Y-50175864D01*
X40292134Y-50175864D01*
X40326073Y-50107987D01*
X40347112Y-50088206D01*
X40358259Y-50043616D01*
X40362062Y-50036011D01*
X40366946Y-50008866D01*
X40473983Y-49580715D01*
X40491427Y-49553573D01*
X40491427Y-49510941D01*
X40492680Y-49505929D01*
X40491427Y-49475101D01*
X40491427Y-48926070D01*
X40501766Y-48895509D01*
X40491427Y-48854152D01*
X40491427Y-48848984D01*
X40482730Y-48819366D01*
X40375715Y-48391302D01*
X40378815Y-48362591D01*
X40358259Y-48321479D01*
X40356198Y-48313234D01*
X40342245Y-48289452D01*
X40240956Y-48086873D01*
X40232015Y-48045772D01*
X40183306Y-47997063D01*
X40136386Y-47946622D01*
X40131655Y-47945412D01*
X40083225Y-47896982D01*
X40061745Y-47860817D01*
X40000130Y-47830009D01*
X39939670Y-47796996D01*
X39934799Y-47797344D01*
X39770034Y-47714961D01*
X39719596Y-47682547D01*
X39668500Y-47682547D01*
X39618220Y-47673499D01*
X39596404Y-47682547D01*
X39421557Y-47682547D01*
X39361948Y-47676111D01*
X39316246Y-47698961D01*
X39267228Y-47713355D01*
X39251761Y-47731204D01*
X39086231Y-47813969D01*
X39045130Y-47822911D01*
X38996416Y-47871624D01*
X38945979Y-47918541D01*
X38944769Y-47923271D01*
X38896340Y-47971700D01*
X38860172Y-47993182D01*
X38829356Y-48054813D01*
X38796352Y-48115256D01*
X38796700Y-48120126D01*
X38728211Y-48257105D01*
X38707172Y-48276888D01*
X38696023Y-48321481D01*
X38692222Y-48329085D01*
X38687339Y-48356216D01*
X38580299Y-48784378D01*
X38562856Y-48811521D01*
X38562856Y-48854152D01*
X38561603Y-48859165D01*
X38562856Y-48889999D01*
X38562856Y-49439023D01*
X38552517Y-49469585D01*
X38195160Y-49469585D01*
X38176437Y-49428587D01*
X38052930Y-49349214D01*
X37872380Y-49349214D01*
X37872380Y-48729936D01*
X37841572Y-48625014D01*
X37730618Y-48528872D01*
X37585299Y-48507978D01*
X37451753Y-48568966D01*
X37372380Y-48692473D01*
X37372380Y-49349214D01*
X36778760Y-49349214D01*
X37275679Y-47858457D01*
X37279632Y-47749177D01*
X37204774Y-47622882D01*
X37073520Y-47557106D01*
X36927541Y-47572734D01*
X36813185Y-47664803D01*
X36210440Y-49473036D01*
X36194896Y-49490976D01*
X36187640Y-49541435D01*
X36183367Y-49554257D01*
X36182549Y-49576843D01*
X36174002Y-49636295D01*
X35081709Y-49636295D01*
X35527735Y-49190269D01*
X35574434Y-49152673D01*
X35590591Y-49104199D01*
X35615075Y-49059361D01*
X35613390Y-49035803D01*
X35706783Y-48755624D01*
X35729523Y-48720240D01*
X35729523Y-48651363D01*
X35732013Y-48582510D01*
X35729523Y-48578309D01*
X35729523Y-48422201D01*
X35735959Y-48362593D01*
X35713108Y-48316891D01*
X35698715Y-48267872D01*
X35680865Y-48252405D01*
X35598100Y-48086873D01*
X35589159Y-48045771D01*
X35540446Y-47997058D01*
X35493531Y-47946622D01*
X35488799Y-47945412D01*
X35440367Y-47896980D01*
X35418889Y-47860817D01*
X35357278Y-47830011D01*
X35296812Y-47796995D01*
X35291942Y-47797343D01*
X35127175Y-47714959D01*
X35076740Y-47682547D01*
X35025648Y-47682547D01*
X34975365Y-47673498D01*
X34953547Y-47682547D01*
X34421558Y-47682547D01*
X34361949Y-47676111D01*
X34316247Y-47698961D01*
X34267229Y-47713355D01*
X34251762Y-47731204D01*
X34086232Y-47813969D01*
X34045131Y-47822911D01*
X33996417Y-47871624D01*
X33945980Y-47918541D01*
X33944770Y-47923271D01*
X33848760Y-48019281D01*
X33796353Y-48115256D01*
X33806826Y-48261695D01*
X33894807Y-48379226D01*
X34032363Y-48430533D01*
X34175821Y-48399326D01*
X34318090Y-48257058D01*
X34467112Y-48182547D01*
X34944315Y-48182547D01*
X35093339Y-48257059D01*
X35155011Y-48318731D01*
X35229523Y-48467755D01*
X35229523Y-48606263D01*
X35141968Y-48868930D01*
X33800245Y-50210651D01*
X33791038Y-50213355D01*
X33748821Y-50262075D01*
X33729711Y-50281186D01*
X33725364Y-50289146D01*
X33694896Y-50324309D01*
X33690868Y-50352322D01*
X33677305Y-50377162D01*
X33680624Y-50423571D01*
X33674002Y-50469628D01*
X30134286Y-50469628D01*
X30134286Y-49517247D01*
X30816860Y-49517247D01*
X30877848Y-49650793D01*
X31001355Y-49730166D01*
X33015468Y-49730166D01*
X33120390Y-49699358D01*
X33216532Y-49588404D01*
X33237426Y-49443085D01*
X33176438Y-49309539D01*
X33052931Y-49230166D01*
X31038818Y-49230166D01*
X30933896Y-49260974D01*
X30837754Y-49371928D01*
X30816860Y-49517247D01*
X30134286Y-49517247D01*
X30134286Y-47896603D01*
X30103478Y-47791681D01*
X29992524Y-47695539D01*
X29847205Y-47674645D01*
X29713659Y-47735633D01*
X29634286Y-47859140D01*
X29634286Y-50468491D01*
X28943809Y-50468491D01*
X28943809Y-49140900D01*
X28951711Y-49085942D01*
X28943809Y-49068638D01*
X28943809Y-47896603D01*
X28913001Y-47791681D01*
X28802047Y-47695539D01*
X28656728Y-47674645D01*
X28523182Y-47735633D01*
X28443809Y-47859140D01*
X28443809Y-48873023D01*
X27515238Y-48873023D01*
X27515238Y-47896603D01*
X27484430Y-47791681D01*
X27373476Y-47695539D01*
X27228157Y-47674645D01*
X27094611Y-47735633D01*
X27015238Y-47859140D01*
X27015237Y-49105145D01*
X27007336Y-49160104D01*
X25562857Y-49160104D01*
X25562857Y-46293857D01*
X44955713Y-46293857D01*
X44955713Y-52258143D01*
G37*
D11*
%TO.C,C4*%
X27519333Y-63105380D02*
X27471714Y-63153000D01*
X27471714Y-63153000D02*
X27328857Y-63200619D01*
X27328857Y-63200619D02*
X27233619Y-63200619D01*
X27233619Y-63200619D02*
X27090762Y-63153000D01*
X27090762Y-63153000D02*
X26995524Y-63057761D01*
X26995524Y-63057761D02*
X26947905Y-62962523D01*
X26947905Y-62962523D02*
X26900286Y-62772047D01*
X26900286Y-62772047D02*
X26900286Y-62629190D01*
X26900286Y-62629190D02*
X26947905Y-62438714D01*
X26947905Y-62438714D02*
X26995524Y-62343476D01*
X26995524Y-62343476D02*
X27090762Y-62248238D01*
X27090762Y-62248238D02*
X27233619Y-62200619D01*
X27233619Y-62200619D02*
X27328857Y-62200619D01*
X27328857Y-62200619D02*
X27471714Y-62248238D01*
X27471714Y-62248238D02*
X27519333Y-62295857D01*
X28376476Y-62533952D02*
X28376476Y-63200619D01*
X28138381Y-62153000D02*
X27900286Y-62867285D01*
X27900286Y-62867285D02*
X28519333Y-62867285D01*
%TO.C,C15*%
X124325142Y-65391380D02*
X124277523Y-65439000D01*
X124277523Y-65439000D02*
X124134666Y-65486619D01*
X124134666Y-65486619D02*
X124039428Y-65486619D01*
X124039428Y-65486619D02*
X123896571Y-65439000D01*
X123896571Y-65439000D02*
X123801333Y-65343761D01*
X123801333Y-65343761D02*
X123753714Y-65248523D01*
X123753714Y-65248523D02*
X123706095Y-65058047D01*
X123706095Y-65058047D02*
X123706095Y-64915190D01*
X123706095Y-64915190D02*
X123753714Y-64724714D01*
X123753714Y-64724714D02*
X123801333Y-64629476D01*
X123801333Y-64629476D02*
X123896571Y-64534238D01*
X123896571Y-64534238D02*
X124039428Y-64486619D01*
X124039428Y-64486619D02*
X124134666Y-64486619D01*
X124134666Y-64486619D02*
X124277523Y-64534238D01*
X124277523Y-64534238D02*
X124325142Y-64581857D01*
X125277523Y-65486619D02*
X124706095Y-65486619D01*
X124991809Y-65486619D02*
X124991809Y-64486619D01*
X124991809Y-64486619D02*
X124896571Y-64629476D01*
X124896571Y-64629476D02*
X124801333Y-64724714D01*
X124801333Y-64724714D02*
X124706095Y-64772333D01*
X126182285Y-64486619D02*
X125706095Y-64486619D01*
X125706095Y-64486619D02*
X125658476Y-64962809D01*
X125658476Y-64962809D02*
X125706095Y-64915190D01*
X125706095Y-64915190D02*
X125801333Y-64867571D01*
X125801333Y-64867571D02*
X126039428Y-64867571D01*
X126039428Y-64867571D02*
X126134666Y-64915190D01*
X126134666Y-64915190D02*
X126182285Y-64962809D01*
X126182285Y-64962809D02*
X126229904Y-65058047D01*
X126229904Y-65058047D02*
X126229904Y-65296142D01*
X126229904Y-65296142D02*
X126182285Y-65391380D01*
X126182285Y-65391380D02*
X126134666Y-65439000D01*
X126134666Y-65439000D02*
X126039428Y-65486619D01*
X126039428Y-65486619D02*
X125801333Y-65486619D01*
X125801333Y-65486619D02*
X125706095Y-65439000D01*
X125706095Y-65439000D02*
X125658476Y-65391380D01*
%TO.C,J2*%
X57374619Y-62055333D02*
X58088904Y-62055333D01*
X58088904Y-62055333D02*
X58231761Y-62102952D01*
X58231761Y-62102952D02*
X58327000Y-62198190D01*
X58327000Y-62198190D02*
X58374619Y-62341047D01*
X58374619Y-62341047D02*
X58374619Y-62436285D01*
X57469857Y-61626761D02*
X57422238Y-61579142D01*
X57422238Y-61579142D02*
X57374619Y-61483904D01*
X57374619Y-61483904D02*
X57374619Y-61245809D01*
X57374619Y-61245809D02*
X57422238Y-61150571D01*
X57422238Y-61150571D02*
X57469857Y-61102952D01*
X57469857Y-61102952D02*
X57565095Y-61055333D01*
X57565095Y-61055333D02*
X57660333Y-61055333D01*
X57660333Y-61055333D02*
X57803190Y-61102952D01*
X57803190Y-61102952D02*
X58374619Y-61674380D01*
X58374619Y-61674380D02*
X58374619Y-61055333D01*
%TO.C,SW1*%
X34226667Y-86267000D02*
X34369524Y-86314619D01*
X34369524Y-86314619D02*
X34607619Y-86314619D01*
X34607619Y-86314619D02*
X34702857Y-86267000D01*
X34702857Y-86267000D02*
X34750476Y-86219380D01*
X34750476Y-86219380D02*
X34798095Y-86124142D01*
X34798095Y-86124142D02*
X34798095Y-86028904D01*
X34798095Y-86028904D02*
X34750476Y-85933666D01*
X34750476Y-85933666D02*
X34702857Y-85886047D01*
X34702857Y-85886047D02*
X34607619Y-85838428D01*
X34607619Y-85838428D02*
X34417143Y-85790809D01*
X34417143Y-85790809D02*
X34321905Y-85743190D01*
X34321905Y-85743190D02*
X34274286Y-85695571D01*
X34274286Y-85695571D02*
X34226667Y-85600333D01*
X34226667Y-85600333D02*
X34226667Y-85505095D01*
X34226667Y-85505095D02*
X34274286Y-85409857D01*
X34274286Y-85409857D02*
X34321905Y-85362238D01*
X34321905Y-85362238D02*
X34417143Y-85314619D01*
X34417143Y-85314619D02*
X34655238Y-85314619D01*
X34655238Y-85314619D02*
X34798095Y-85362238D01*
X35131429Y-85314619D02*
X35369524Y-86314619D01*
X35369524Y-86314619D02*
X35560000Y-85600333D01*
X35560000Y-85600333D02*
X35750476Y-86314619D01*
X35750476Y-86314619D02*
X35988572Y-85314619D01*
X36893333Y-86314619D02*
X36321905Y-86314619D01*
X36607619Y-86314619D02*
X36607619Y-85314619D01*
X36607619Y-85314619D02*
X36512381Y-85457476D01*
X36512381Y-85457476D02*
X36417143Y-85552714D01*
X36417143Y-85552714D02*
X36321905Y-85600333D01*
%TO.C,J4*%
X81548619Y-68913333D02*
X82262904Y-68913333D01*
X82262904Y-68913333D02*
X82405761Y-68960952D01*
X82405761Y-68960952D02*
X82501000Y-69056190D01*
X82501000Y-69056190D02*
X82548619Y-69199047D01*
X82548619Y-69199047D02*
X82548619Y-69294285D01*
X81881952Y-68008571D02*
X82548619Y-68008571D01*
X81501000Y-68246666D02*
X82215285Y-68484761D01*
X82215285Y-68484761D02*
X82215285Y-67865714D01*
%TO.C,C17*%
X109339142Y-53127380D02*
X109291523Y-53175000D01*
X109291523Y-53175000D02*
X109148666Y-53222619D01*
X109148666Y-53222619D02*
X109053428Y-53222619D01*
X109053428Y-53222619D02*
X108910571Y-53175000D01*
X108910571Y-53175000D02*
X108815333Y-53079761D01*
X108815333Y-53079761D02*
X108767714Y-52984523D01*
X108767714Y-52984523D02*
X108720095Y-52794047D01*
X108720095Y-52794047D02*
X108720095Y-52651190D01*
X108720095Y-52651190D02*
X108767714Y-52460714D01*
X108767714Y-52460714D02*
X108815333Y-52365476D01*
X108815333Y-52365476D02*
X108910571Y-52270238D01*
X108910571Y-52270238D02*
X109053428Y-52222619D01*
X109053428Y-52222619D02*
X109148666Y-52222619D01*
X109148666Y-52222619D02*
X109291523Y-52270238D01*
X109291523Y-52270238D02*
X109339142Y-52317857D01*
X110291523Y-53222619D02*
X109720095Y-53222619D01*
X110005809Y-53222619D02*
X110005809Y-52222619D01*
X110005809Y-52222619D02*
X109910571Y-52365476D01*
X109910571Y-52365476D02*
X109815333Y-52460714D01*
X109815333Y-52460714D02*
X109720095Y-52508333D01*
X110624857Y-52222619D02*
X111291523Y-52222619D01*
X111291523Y-52222619D02*
X110862952Y-53222619D01*
%TO.C,AFF1*%
X114506571Y-21766904D02*
X114982761Y-21766904D01*
X114411333Y-22052619D02*
X114744666Y-21052619D01*
X114744666Y-21052619D02*
X115077999Y-22052619D01*
X115744666Y-21528809D02*
X115411333Y-21528809D01*
X115411333Y-22052619D02*
X115411333Y-21052619D01*
X115411333Y-21052619D02*
X115887523Y-21052619D01*
X116601809Y-21528809D02*
X116268476Y-21528809D01*
X116268476Y-22052619D02*
X116268476Y-21052619D01*
X116268476Y-21052619D02*
X116744666Y-21052619D01*
X117649428Y-22052619D02*
X117078000Y-22052619D01*
X117363714Y-22052619D02*
X117363714Y-21052619D01*
X117363714Y-21052619D02*
X117268476Y-21195476D01*
X117268476Y-21195476D02*
X117173238Y-21290714D01*
X117173238Y-21290714D02*
X117078000Y-21338333D01*
%TO.C,SW4*%
X82994667Y-86013000D02*
X83137524Y-86060619D01*
X83137524Y-86060619D02*
X83375619Y-86060619D01*
X83375619Y-86060619D02*
X83470857Y-86013000D01*
X83470857Y-86013000D02*
X83518476Y-85965380D01*
X83518476Y-85965380D02*
X83566095Y-85870142D01*
X83566095Y-85870142D02*
X83566095Y-85774904D01*
X83566095Y-85774904D02*
X83518476Y-85679666D01*
X83518476Y-85679666D02*
X83470857Y-85632047D01*
X83470857Y-85632047D02*
X83375619Y-85584428D01*
X83375619Y-85584428D02*
X83185143Y-85536809D01*
X83185143Y-85536809D02*
X83089905Y-85489190D01*
X83089905Y-85489190D02*
X83042286Y-85441571D01*
X83042286Y-85441571D02*
X82994667Y-85346333D01*
X82994667Y-85346333D02*
X82994667Y-85251095D01*
X82994667Y-85251095D02*
X83042286Y-85155857D01*
X83042286Y-85155857D02*
X83089905Y-85108238D01*
X83089905Y-85108238D02*
X83185143Y-85060619D01*
X83185143Y-85060619D02*
X83423238Y-85060619D01*
X83423238Y-85060619D02*
X83566095Y-85108238D01*
X83899429Y-85060619D02*
X84137524Y-86060619D01*
X84137524Y-86060619D02*
X84328000Y-85346333D01*
X84328000Y-85346333D02*
X84518476Y-86060619D01*
X84518476Y-86060619D02*
X84756572Y-85060619D01*
X85566095Y-85393952D02*
X85566095Y-86060619D01*
X85328000Y-85013000D02*
X85089905Y-85727285D01*
X85089905Y-85727285D02*
X85708952Y-85727285D01*
%TO.C,C3*%
X27480833Y-65645380D02*
X27433214Y-65693000D01*
X27433214Y-65693000D02*
X27290357Y-65740619D01*
X27290357Y-65740619D02*
X27195119Y-65740619D01*
X27195119Y-65740619D02*
X27052262Y-65693000D01*
X27052262Y-65693000D02*
X26957024Y-65597761D01*
X26957024Y-65597761D02*
X26909405Y-65502523D01*
X26909405Y-65502523D02*
X26861786Y-65312047D01*
X26861786Y-65312047D02*
X26861786Y-65169190D01*
X26861786Y-65169190D02*
X26909405Y-64978714D01*
X26909405Y-64978714D02*
X26957024Y-64883476D01*
X26957024Y-64883476D02*
X27052262Y-64788238D01*
X27052262Y-64788238D02*
X27195119Y-64740619D01*
X27195119Y-64740619D02*
X27290357Y-64740619D01*
X27290357Y-64740619D02*
X27433214Y-64788238D01*
X27433214Y-64788238D02*
X27480833Y-64835857D01*
X27814167Y-64740619D02*
X28433214Y-64740619D01*
X28433214Y-64740619D02*
X28099881Y-65121571D01*
X28099881Y-65121571D02*
X28242738Y-65121571D01*
X28242738Y-65121571D02*
X28337976Y-65169190D01*
X28337976Y-65169190D02*
X28385595Y-65216809D01*
X28385595Y-65216809D02*
X28433214Y-65312047D01*
X28433214Y-65312047D02*
X28433214Y-65550142D01*
X28433214Y-65550142D02*
X28385595Y-65645380D01*
X28385595Y-65645380D02*
X28337976Y-65693000D01*
X28337976Y-65693000D02*
X28242738Y-65740619D01*
X28242738Y-65740619D02*
X27957024Y-65740619D01*
X27957024Y-65740619D02*
X27861786Y-65693000D01*
X27861786Y-65693000D02*
X27814167Y-65645380D01*
%TO.C,C9*%
X120996558Y-46902380D02*
X120948939Y-46950000D01*
X120948939Y-46950000D02*
X120806082Y-46997619D01*
X120806082Y-46997619D02*
X120710844Y-46997619D01*
X120710844Y-46997619D02*
X120567987Y-46950000D01*
X120567987Y-46950000D02*
X120472749Y-46854761D01*
X120472749Y-46854761D02*
X120425130Y-46759523D01*
X120425130Y-46759523D02*
X120377511Y-46569047D01*
X120377511Y-46569047D02*
X120377511Y-46426190D01*
X120377511Y-46426190D02*
X120425130Y-46235714D01*
X120425130Y-46235714D02*
X120472749Y-46140476D01*
X120472749Y-46140476D02*
X120567987Y-46045238D01*
X120567987Y-46045238D02*
X120710844Y-45997619D01*
X120710844Y-45997619D02*
X120806082Y-45997619D01*
X120806082Y-45997619D02*
X120948939Y-46045238D01*
X120948939Y-46045238D02*
X120996558Y-46092857D01*
X121472749Y-46997619D02*
X121663225Y-46997619D01*
X121663225Y-46997619D02*
X121758463Y-46950000D01*
X121758463Y-46950000D02*
X121806082Y-46902380D01*
X121806082Y-46902380D02*
X121901320Y-46759523D01*
X121901320Y-46759523D02*
X121948939Y-46569047D01*
X121948939Y-46569047D02*
X121948939Y-46188095D01*
X121948939Y-46188095D02*
X121901320Y-46092857D01*
X121901320Y-46092857D02*
X121853701Y-46045238D01*
X121853701Y-46045238D02*
X121758463Y-45997619D01*
X121758463Y-45997619D02*
X121567987Y-45997619D01*
X121567987Y-45997619D02*
X121472749Y-46045238D01*
X121472749Y-46045238D02*
X121425130Y-46092857D01*
X121425130Y-46092857D02*
X121377511Y-46188095D01*
X121377511Y-46188095D02*
X121377511Y-46426190D01*
X121377511Y-46426190D02*
X121425130Y-46521428D01*
X121425130Y-46521428D02*
X121472749Y-46569047D01*
X121472749Y-46569047D02*
X121567987Y-46616666D01*
X121567987Y-46616666D02*
X121758463Y-46616666D01*
X121758463Y-46616666D02*
X121853701Y-46569047D01*
X121853701Y-46569047D02*
X121901320Y-46521428D01*
X121901320Y-46521428D02*
X121948939Y-46426190D01*
%TO.C,Y2*%
X77961809Y-58254428D02*
X77961809Y-58730619D01*
X77628476Y-57730619D02*
X77961809Y-58254428D01*
X77961809Y-58254428D02*
X78295142Y-57730619D01*
X78580857Y-57825857D02*
X78628476Y-57778238D01*
X78628476Y-57778238D02*
X78723714Y-57730619D01*
X78723714Y-57730619D02*
X78961809Y-57730619D01*
X78961809Y-57730619D02*
X79057047Y-57778238D01*
X79057047Y-57778238D02*
X79104666Y-57825857D01*
X79104666Y-57825857D02*
X79152285Y-57921095D01*
X79152285Y-57921095D02*
X79152285Y-58016333D01*
X79152285Y-58016333D02*
X79104666Y-58159190D01*
X79104666Y-58159190D02*
X78533238Y-58730619D01*
X78533238Y-58730619D02*
X79152285Y-58730619D01*
%TO.C,C20*%
X105490642Y-64121380D02*
X105443023Y-64169000D01*
X105443023Y-64169000D02*
X105300166Y-64216619D01*
X105300166Y-64216619D02*
X105204928Y-64216619D01*
X105204928Y-64216619D02*
X105062071Y-64169000D01*
X105062071Y-64169000D02*
X104966833Y-64073761D01*
X104966833Y-64073761D02*
X104919214Y-63978523D01*
X104919214Y-63978523D02*
X104871595Y-63788047D01*
X104871595Y-63788047D02*
X104871595Y-63645190D01*
X104871595Y-63645190D02*
X104919214Y-63454714D01*
X104919214Y-63454714D02*
X104966833Y-63359476D01*
X104966833Y-63359476D02*
X105062071Y-63264238D01*
X105062071Y-63264238D02*
X105204928Y-63216619D01*
X105204928Y-63216619D02*
X105300166Y-63216619D01*
X105300166Y-63216619D02*
X105443023Y-63264238D01*
X105443023Y-63264238D02*
X105490642Y-63311857D01*
X105871595Y-63311857D02*
X105919214Y-63264238D01*
X105919214Y-63264238D02*
X106014452Y-63216619D01*
X106014452Y-63216619D02*
X106252547Y-63216619D01*
X106252547Y-63216619D02*
X106347785Y-63264238D01*
X106347785Y-63264238D02*
X106395404Y-63311857D01*
X106395404Y-63311857D02*
X106443023Y-63407095D01*
X106443023Y-63407095D02*
X106443023Y-63502333D01*
X106443023Y-63502333D02*
X106395404Y-63645190D01*
X106395404Y-63645190D02*
X105823976Y-64216619D01*
X105823976Y-64216619D02*
X106443023Y-64216619D01*
X107062071Y-63216619D02*
X107157309Y-63216619D01*
X107157309Y-63216619D02*
X107252547Y-63264238D01*
X107252547Y-63264238D02*
X107300166Y-63311857D01*
X107300166Y-63311857D02*
X107347785Y-63407095D01*
X107347785Y-63407095D02*
X107395404Y-63597571D01*
X107395404Y-63597571D02*
X107395404Y-63835666D01*
X107395404Y-63835666D02*
X107347785Y-64026142D01*
X107347785Y-64026142D02*
X107300166Y-64121380D01*
X107300166Y-64121380D02*
X107252547Y-64169000D01*
X107252547Y-64169000D02*
X107157309Y-64216619D01*
X107157309Y-64216619D02*
X107062071Y-64216619D01*
X107062071Y-64216619D02*
X106966833Y-64169000D01*
X106966833Y-64169000D02*
X106919214Y-64121380D01*
X106919214Y-64121380D02*
X106871595Y-64026142D01*
X106871595Y-64026142D02*
X106823976Y-63835666D01*
X106823976Y-63835666D02*
X106823976Y-63597571D01*
X106823976Y-63597571D02*
X106871595Y-63407095D01*
X106871595Y-63407095D02*
X106919214Y-63311857D01*
X106919214Y-63311857D02*
X106966833Y-63264238D01*
X106966833Y-63264238D02*
X107062071Y-63216619D01*
%TO.C,AFF6*%
X48720571Y-21512904D02*
X49196761Y-21512904D01*
X48625333Y-21798619D02*
X48958666Y-20798619D01*
X48958666Y-20798619D02*
X49291999Y-21798619D01*
X49958666Y-21274809D02*
X49625333Y-21274809D01*
X49625333Y-21798619D02*
X49625333Y-20798619D01*
X49625333Y-20798619D02*
X50101523Y-20798619D01*
X50815809Y-21274809D02*
X50482476Y-21274809D01*
X50482476Y-21798619D02*
X50482476Y-20798619D01*
X50482476Y-20798619D02*
X50958666Y-20798619D01*
X51768190Y-20798619D02*
X51577714Y-20798619D01*
X51577714Y-20798619D02*
X51482476Y-20846238D01*
X51482476Y-20846238D02*
X51434857Y-20893857D01*
X51434857Y-20893857D02*
X51339619Y-21036714D01*
X51339619Y-21036714D02*
X51292000Y-21227190D01*
X51292000Y-21227190D02*
X51292000Y-21608142D01*
X51292000Y-21608142D02*
X51339619Y-21703380D01*
X51339619Y-21703380D02*
X51387238Y-21751000D01*
X51387238Y-21751000D02*
X51482476Y-21798619D01*
X51482476Y-21798619D02*
X51672952Y-21798619D01*
X51672952Y-21798619D02*
X51768190Y-21751000D01*
X51768190Y-21751000D02*
X51815809Y-21703380D01*
X51815809Y-21703380D02*
X51863428Y-21608142D01*
X51863428Y-21608142D02*
X51863428Y-21370047D01*
X51863428Y-21370047D02*
X51815809Y-21274809D01*
X51815809Y-21274809D02*
X51768190Y-21227190D01*
X51768190Y-21227190D02*
X51672952Y-21179571D01*
X51672952Y-21179571D02*
X51482476Y-21179571D01*
X51482476Y-21179571D02*
X51387238Y-21227190D01*
X51387238Y-21227190D02*
X51339619Y-21274809D01*
X51339619Y-21274809D02*
X51292000Y-21370047D01*
%TO.C,J1*%
X34470619Y-72723333D02*
X35184904Y-72723333D01*
X35184904Y-72723333D02*
X35327761Y-72770952D01*
X35327761Y-72770952D02*
X35423000Y-72866190D01*
X35423000Y-72866190D02*
X35470619Y-73009047D01*
X35470619Y-73009047D02*
X35470619Y-73104285D01*
X35470619Y-71723333D02*
X35470619Y-72294761D01*
X35470619Y-72009047D02*
X34470619Y-72009047D01*
X34470619Y-72009047D02*
X34613476Y-72104285D01*
X34613476Y-72104285D02*
X34708714Y-72199523D01*
X34708714Y-72199523D02*
X34756333Y-72294761D01*
%TO.C,C13*%
X105529142Y-58279380D02*
X105481523Y-58327000D01*
X105481523Y-58327000D02*
X105338666Y-58374619D01*
X105338666Y-58374619D02*
X105243428Y-58374619D01*
X105243428Y-58374619D02*
X105100571Y-58327000D01*
X105100571Y-58327000D02*
X105005333Y-58231761D01*
X105005333Y-58231761D02*
X104957714Y-58136523D01*
X104957714Y-58136523D02*
X104910095Y-57946047D01*
X104910095Y-57946047D02*
X104910095Y-57803190D01*
X104910095Y-57803190D02*
X104957714Y-57612714D01*
X104957714Y-57612714D02*
X105005333Y-57517476D01*
X105005333Y-57517476D02*
X105100571Y-57422238D01*
X105100571Y-57422238D02*
X105243428Y-57374619D01*
X105243428Y-57374619D02*
X105338666Y-57374619D01*
X105338666Y-57374619D02*
X105481523Y-57422238D01*
X105481523Y-57422238D02*
X105529142Y-57469857D01*
X106481523Y-58374619D02*
X105910095Y-58374619D01*
X106195809Y-58374619D02*
X106195809Y-57374619D01*
X106195809Y-57374619D02*
X106100571Y-57517476D01*
X106100571Y-57517476D02*
X106005333Y-57612714D01*
X106005333Y-57612714D02*
X105910095Y-57660333D01*
X106814857Y-57374619D02*
X107433904Y-57374619D01*
X107433904Y-57374619D02*
X107100571Y-57755571D01*
X107100571Y-57755571D02*
X107243428Y-57755571D01*
X107243428Y-57755571D02*
X107338666Y-57803190D01*
X107338666Y-57803190D02*
X107386285Y-57850809D01*
X107386285Y-57850809D02*
X107433904Y-57946047D01*
X107433904Y-57946047D02*
X107433904Y-58184142D01*
X107433904Y-58184142D02*
X107386285Y-58279380D01*
X107386285Y-58279380D02*
X107338666Y-58327000D01*
X107338666Y-58327000D02*
X107243428Y-58374619D01*
X107243428Y-58374619D02*
X106957714Y-58374619D01*
X106957714Y-58374619D02*
X106862476Y-58327000D01*
X106862476Y-58327000D02*
X106814857Y-58279380D01*
%TO.C,C10*%
X123811380Y-52204857D02*
X123859000Y-52252476D01*
X123859000Y-52252476D02*
X123906619Y-52395333D01*
X123906619Y-52395333D02*
X123906619Y-52490571D01*
X123906619Y-52490571D02*
X123859000Y-52633428D01*
X123859000Y-52633428D02*
X123763761Y-52728666D01*
X123763761Y-52728666D02*
X123668523Y-52776285D01*
X123668523Y-52776285D02*
X123478047Y-52823904D01*
X123478047Y-52823904D02*
X123335190Y-52823904D01*
X123335190Y-52823904D02*
X123144714Y-52776285D01*
X123144714Y-52776285D02*
X123049476Y-52728666D01*
X123049476Y-52728666D02*
X122954238Y-52633428D01*
X122954238Y-52633428D02*
X122906619Y-52490571D01*
X122906619Y-52490571D02*
X122906619Y-52395333D01*
X122906619Y-52395333D02*
X122954238Y-52252476D01*
X122954238Y-52252476D02*
X123001857Y-52204857D01*
X123906619Y-51252476D02*
X123906619Y-51823904D01*
X123906619Y-51538190D02*
X122906619Y-51538190D01*
X122906619Y-51538190D02*
X123049476Y-51633428D01*
X123049476Y-51633428D02*
X123144714Y-51728666D01*
X123144714Y-51728666D02*
X123192333Y-51823904D01*
X122906619Y-50633428D02*
X122906619Y-50538190D01*
X122906619Y-50538190D02*
X122954238Y-50442952D01*
X122954238Y-50442952D02*
X123001857Y-50395333D01*
X123001857Y-50395333D02*
X123097095Y-50347714D01*
X123097095Y-50347714D02*
X123287571Y-50300095D01*
X123287571Y-50300095D02*
X123525666Y-50300095D01*
X123525666Y-50300095D02*
X123716142Y-50347714D01*
X123716142Y-50347714D02*
X123811380Y-50395333D01*
X123811380Y-50395333D02*
X123859000Y-50442952D01*
X123859000Y-50442952D02*
X123906619Y-50538190D01*
X123906619Y-50538190D02*
X123906619Y-50633428D01*
X123906619Y-50633428D02*
X123859000Y-50728666D01*
X123859000Y-50728666D02*
X123811380Y-50776285D01*
X123811380Y-50776285D02*
X123716142Y-50823904D01*
X123716142Y-50823904D02*
X123525666Y-50871523D01*
X123525666Y-50871523D02*
X123287571Y-50871523D01*
X123287571Y-50871523D02*
X123097095Y-50823904D01*
X123097095Y-50823904D02*
X123001857Y-50776285D01*
X123001857Y-50776285D02*
X122954238Y-50728666D01*
X122954238Y-50728666D02*
X122906619Y-50633428D01*
%TO.C,C19*%
X102247142Y-63807380D02*
X102199523Y-63855000D01*
X102199523Y-63855000D02*
X102056666Y-63902619D01*
X102056666Y-63902619D02*
X101961428Y-63902619D01*
X101961428Y-63902619D02*
X101818571Y-63855000D01*
X101818571Y-63855000D02*
X101723333Y-63759761D01*
X101723333Y-63759761D02*
X101675714Y-63664523D01*
X101675714Y-63664523D02*
X101628095Y-63474047D01*
X101628095Y-63474047D02*
X101628095Y-63331190D01*
X101628095Y-63331190D02*
X101675714Y-63140714D01*
X101675714Y-63140714D02*
X101723333Y-63045476D01*
X101723333Y-63045476D02*
X101818571Y-62950238D01*
X101818571Y-62950238D02*
X101961428Y-62902619D01*
X101961428Y-62902619D02*
X102056666Y-62902619D01*
X102056666Y-62902619D02*
X102199523Y-62950238D01*
X102199523Y-62950238D02*
X102247142Y-62997857D01*
X103199523Y-63902619D02*
X102628095Y-63902619D01*
X102913809Y-63902619D02*
X102913809Y-62902619D01*
X102913809Y-62902619D02*
X102818571Y-63045476D01*
X102818571Y-63045476D02*
X102723333Y-63140714D01*
X102723333Y-63140714D02*
X102628095Y-63188333D01*
X103675714Y-63902619D02*
X103866190Y-63902619D01*
X103866190Y-63902619D02*
X103961428Y-63855000D01*
X103961428Y-63855000D02*
X104009047Y-63807380D01*
X104009047Y-63807380D02*
X104104285Y-63664523D01*
X104104285Y-63664523D02*
X104151904Y-63474047D01*
X104151904Y-63474047D02*
X104151904Y-63093095D01*
X104151904Y-63093095D02*
X104104285Y-62997857D01*
X104104285Y-62997857D02*
X104056666Y-62950238D01*
X104056666Y-62950238D02*
X103961428Y-62902619D01*
X103961428Y-62902619D02*
X103770952Y-62902619D01*
X103770952Y-62902619D02*
X103675714Y-62950238D01*
X103675714Y-62950238D02*
X103628095Y-62997857D01*
X103628095Y-62997857D02*
X103580476Y-63093095D01*
X103580476Y-63093095D02*
X103580476Y-63331190D01*
X103580476Y-63331190D02*
X103628095Y-63426428D01*
X103628095Y-63426428D02*
X103675714Y-63474047D01*
X103675714Y-63474047D02*
X103770952Y-63521666D01*
X103770952Y-63521666D02*
X103961428Y-63521666D01*
X103961428Y-63521666D02*
X104056666Y-63474047D01*
X104056666Y-63474047D02*
X104104285Y-63426428D01*
X104104285Y-63426428D02*
X104151904Y-63331190D01*
%TO.C,AFF7*%
X35512571Y-21512904D02*
X35988761Y-21512904D01*
X35417333Y-21798619D02*
X35750666Y-20798619D01*
X35750666Y-20798619D02*
X36083999Y-21798619D01*
X36750666Y-21274809D02*
X36417333Y-21274809D01*
X36417333Y-21798619D02*
X36417333Y-20798619D01*
X36417333Y-20798619D02*
X36893523Y-20798619D01*
X37607809Y-21274809D02*
X37274476Y-21274809D01*
X37274476Y-21798619D02*
X37274476Y-20798619D01*
X37274476Y-20798619D02*
X37750666Y-20798619D01*
X38036381Y-20798619D02*
X38703047Y-20798619D01*
X38703047Y-20798619D02*
X38274476Y-21798619D01*
%TO.C,AFF3*%
X88344571Y-21512904D02*
X88820761Y-21512904D01*
X88249333Y-21798619D02*
X88582666Y-20798619D01*
X88582666Y-20798619D02*
X88915999Y-21798619D01*
X89582666Y-21274809D02*
X89249333Y-21274809D01*
X89249333Y-21798619D02*
X89249333Y-20798619D01*
X89249333Y-20798619D02*
X89725523Y-20798619D01*
X90439809Y-21274809D02*
X90106476Y-21274809D01*
X90106476Y-21798619D02*
X90106476Y-20798619D01*
X90106476Y-20798619D02*
X90582666Y-20798619D01*
X90868381Y-20798619D02*
X91487428Y-20798619D01*
X91487428Y-20798619D02*
X91154095Y-21179571D01*
X91154095Y-21179571D02*
X91296952Y-21179571D01*
X91296952Y-21179571D02*
X91392190Y-21227190D01*
X91392190Y-21227190D02*
X91439809Y-21274809D01*
X91439809Y-21274809D02*
X91487428Y-21370047D01*
X91487428Y-21370047D02*
X91487428Y-21608142D01*
X91487428Y-21608142D02*
X91439809Y-21703380D01*
X91439809Y-21703380D02*
X91392190Y-21751000D01*
X91392190Y-21751000D02*
X91296952Y-21798619D01*
X91296952Y-21798619D02*
X91011238Y-21798619D01*
X91011238Y-21798619D02*
X90916000Y-21751000D01*
X90916000Y-21751000D02*
X90868381Y-21703380D01*
%TO.C,C23*%
X121252254Y-62089380D02*
X121204635Y-62137000D01*
X121204635Y-62137000D02*
X121061778Y-62184619D01*
X121061778Y-62184619D02*
X120966540Y-62184619D01*
X120966540Y-62184619D02*
X120823683Y-62137000D01*
X120823683Y-62137000D02*
X120728445Y-62041761D01*
X120728445Y-62041761D02*
X120680826Y-61946523D01*
X120680826Y-61946523D02*
X120633207Y-61756047D01*
X120633207Y-61756047D02*
X120633207Y-61613190D01*
X120633207Y-61613190D02*
X120680826Y-61422714D01*
X120680826Y-61422714D02*
X120728445Y-61327476D01*
X120728445Y-61327476D02*
X120823683Y-61232238D01*
X120823683Y-61232238D02*
X120966540Y-61184619D01*
X120966540Y-61184619D02*
X121061778Y-61184619D01*
X121061778Y-61184619D02*
X121204635Y-61232238D01*
X121204635Y-61232238D02*
X121252254Y-61279857D01*
X121633207Y-61279857D02*
X121680826Y-61232238D01*
X121680826Y-61232238D02*
X121776064Y-61184619D01*
X121776064Y-61184619D02*
X122014159Y-61184619D01*
X122014159Y-61184619D02*
X122109397Y-61232238D01*
X122109397Y-61232238D02*
X122157016Y-61279857D01*
X122157016Y-61279857D02*
X122204635Y-61375095D01*
X122204635Y-61375095D02*
X122204635Y-61470333D01*
X122204635Y-61470333D02*
X122157016Y-61613190D01*
X122157016Y-61613190D02*
X121585588Y-62184619D01*
X121585588Y-62184619D02*
X122204635Y-62184619D01*
X122537969Y-61184619D02*
X123157016Y-61184619D01*
X123157016Y-61184619D02*
X122823683Y-61565571D01*
X122823683Y-61565571D02*
X122966540Y-61565571D01*
X122966540Y-61565571D02*
X123061778Y-61613190D01*
X123061778Y-61613190D02*
X123109397Y-61660809D01*
X123109397Y-61660809D02*
X123157016Y-61756047D01*
X123157016Y-61756047D02*
X123157016Y-61994142D01*
X123157016Y-61994142D02*
X123109397Y-62089380D01*
X123109397Y-62089380D02*
X123061778Y-62137000D01*
X123061778Y-62137000D02*
X122966540Y-62184619D01*
X122966540Y-62184619D02*
X122680826Y-62184619D01*
X122680826Y-62184619D02*
X122585588Y-62137000D01*
X122585588Y-62137000D02*
X122537969Y-62089380D01*
%TO.C,*%
%TO.C,C14*%
X105490642Y-61835380D02*
X105443023Y-61883000D01*
X105443023Y-61883000D02*
X105300166Y-61930619D01*
X105300166Y-61930619D02*
X105204928Y-61930619D01*
X105204928Y-61930619D02*
X105062071Y-61883000D01*
X105062071Y-61883000D02*
X104966833Y-61787761D01*
X104966833Y-61787761D02*
X104919214Y-61692523D01*
X104919214Y-61692523D02*
X104871595Y-61502047D01*
X104871595Y-61502047D02*
X104871595Y-61359190D01*
X104871595Y-61359190D02*
X104919214Y-61168714D01*
X104919214Y-61168714D02*
X104966833Y-61073476D01*
X104966833Y-61073476D02*
X105062071Y-60978238D01*
X105062071Y-60978238D02*
X105204928Y-60930619D01*
X105204928Y-60930619D02*
X105300166Y-60930619D01*
X105300166Y-60930619D02*
X105443023Y-60978238D01*
X105443023Y-60978238D02*
X105490642Y-61025857D01*
X106443023Y-61930619D02*
X105871595Y-61930619D01*
X106157309Y-61930619D02*
X106157309Y-60930619D01*
X106157309Y-60930619D02*
X106062071Y-61073476D01*
X106062071Y-61073476D02*
X105966833Y-61168714D01*
X105966833Y-61168714D02*
X105871595Y-61216333D01*
X107300166Y-61263952D02*
X107300166Y-61930619D01*
X107062071Y-60883000D02*
X106823976Y-61597285D01*
X106823976Y-61597285D02*
X107443023Y-61597285D01*
%TO.C,*%
%TO.C,J3*%
X86713619Y-70269333D02*
X87427904Y-70269333D01*
X87427904Y-70269333D02*
X87570761Y-70316952D01*
X87570761Y-70316952D02*
X87666000Y-70412190D01*
X87666000Y-70412190D02*
X87713619Y-70555047D01*
X87713619Y-70555047D02*
X87713619Y-70650285D01*
X86713619Y-69888380D02*
X86713619Y-69269333D01*
X86713619Y-69269333D02*
X87094571Y-69602666D01*
X87094571Y-69602666D02*
X87094571Y-69459809D01*
X87094571Y-69459809D02*
X87142190Y-69364571D01*
X87142190Y-69364571D02*
X87189809Y-69316952D01*
X87189809Y-69316952D02*
X87285047Y-69269333D01*
X87285047Y-69269333D02*
X87523142Y-69269333D01*
X87523142Y-69269333D02*
X87618380Y-69316952D01*
X87618380Y-69316952D02*
X87666000Y-69364571D01*
X87666000Y-69364571D02*
X87713619Y-69459809D01*
X87713619Y-69459809D02*
X87713619Y-69745523D01*
X87713619Y-69745523D02*
X87666000Y-69840761D01*
X87666000Y-69840761D02*
X87618380Y-69888380D01*
%TO.C,*%
%TO.C,J6*%
X112950666Y-79492619D02*
X112950666Y-80206904D01*
X112950666Y-80206904D02*
X112903047Y-80349761D01*
X112903047Y-80349761D02*
X112807809Y-80445000D01*
X112807809Y-80445000D02*
X112664952Y-80492619D01*
X112664952Y-80492619D02*
X112569714Y-80492619D01*
X113855428Y-79492619D02*
X113664952Y-79492619D01*
X113664952Y-79492619D02*
X113569714Y-79540238D01*
X113569714Y-79540238D02*
X113522095Y-79587857D01*
X113522095Y-79587857D02*
X113426857Y-79730714D01*
X113426857Y-79730714D02*
X113379238Y-79921190D01*
X113379238Y-79921190D02*
X113379238Y-80302142D01*
X113379238Y-80302142D02*
X113426857Y-80397380D01*
X113426857Y-80397380D02*
X113474476Y-80445000D01*
X113474476Y-80445000D02*
X113569714Y-80492619D01*
X113569714Y-80492619D02*
X113760190Y-80492619D01*
X113760190Y-80492619D02*
X113855428Y-80445000D01*
X113855428Y-80445000D02*
X113903047Y-80397380D01*
X113903047Y-80397380D02*
X113950666Y-80302142D01*
X113950666Y-80302142D02*
X113950666Y-80064047D01*
X113950666Y-80064047D02*
X113903047Y-79968809D01*
X113903047Y-79968809D02*
X113855428Y-79921190D01*
X113855428Y-79921190D02*
X113760190Y-79873571D01*
X113760190Y-79873571D02*
X113569714Y-79873571D01*
X113569714Y-79873571D02*
X113474476Y-79921190D01*
X113474476Y-79921190D02*
X113426857Y-79968809D01*
X113426857Y-79968809D02*
X113379238Y-80064047D01*
%TO.C,J5*%
X128444666Y-55044619D02*
X128444666Y-55758904D01*
X128444666Y-55758904D02*
X128397047Y-55901761D01*
X128397047Y-55901761D02*
X128301809Y-55997000D01*
X128301809Y-55997000D02*
X128158952Y-56044619D01*
X128158952Y-56044619D02*
X128063714Y-56044619D01*
X129397047Y-55044619D02*
X128920857Y-55044619D01*
X128920857Y-55044619D02*
X128873238Y-55520809D01*
X128873238Y-55520809D02*
X128920857Y-55473190D01*
X128920857Y-55473190D02*
X129016095Y-55425571D01*
X129016095Y-55425571D02*
X129254190Y-55425571D01*
X129254190Y-55425571D02*
X129349428Y-55473190D01*
X129349428Y-55473190D02*
X129397047Y-55520809D01*
X129397047Y-55520809D02*
X129444666Y-55616047D01*
X129444666Y-55616047D02*
X129444666Y-55854142D01*
X129444666Y-55854142D02*
X129397047Y-55949380D01*
X129397047Y-55949380D02*
X129349428Y-55997000D01*
X129349428Y-55997000D02*
X129254190Y-56044619D01*
X129254190Y-56044619D02*
X129016095Y-56044619D01*
X129016095Y-56044619D02*
X128920857Y-55997000D01*
X128920857Y-55997000D02*
X128873238Y-55949380D01*
%TO.C,AFF4*%
X76406571Y-21512904D02*
X76882761Y-21512904D01*
X76311333Y-21798619D02*
X76644666Y-20798619D01*
X76644666Y-20798619D02*
X76977999Y-21798619D01*
X77644666Y-21274809D02*
X77311333Y-21274809D01*
X77311333Y-21798619D02*
X77311333Y-20798619D01*
X77311333Y-20798619D02*
X77787523Y-20798619D01*
X78501809Y-21274809D02*
X78168476Y-21274809D01*
X78168476Y-21798619D02*
X78168476Y-20798619D01*
X78168476Y-20798619D02*
X78644666Y-20798619D01*
X79454190Y-21131952D02*
X79454190Y-21798619D01*
X79216095Y-20751000D02*
X78978000Y-21465285D01*
X78978000Y-21465285D02*
X79597047Y-21465285D01*
%TO.C,SW3*%
X66738667Y-85759000D02*
X66881524Y-85806619D01*
X66881524Y-85806619D02*
X67119619Y-85806619D01*
X67119619Y-85806619D02*
X67214857Y-85759000D01*
X67214857Y-85759000D02*
X67262476Y-85711380D01*
X67262476Y-85711380D02*
X67310095Y-85616142D01*
X67310095Y-85616142D02*
X67310095Y-85520904D01*
X67310095Y-85520904D02*
X67262476Y-85425666D01*
X67262476Y-85425666D02*
X67214857Y-85378047D01*
X67214857Y-85378047D02*
X67119619Y-85330428D01*
X67119619Y-85330428D02*
X66929143Y-85282809D01*
X66929143Y-85282809D02*
X66833905Y-85235190D01*
X66833905Y-85235190D02*
X66786286Y-85187571D01*
X66786286Y-85187571D02*
X66738667Y-85092333D01*
X66738667Y-85092333D02*
X66738667Y-84997095D01*
X66738667Y-84997095D02*
X66786286Y-84901857D01*
X66786286Y-84901857D02*
X66833905Y-84854238D01*
X66833905Y-84854238D02*
X66929143Y-84806619D01*
X66929143Y-84806619D02*
X67167238Y-84806619D01*
X67167238Y-84806619D02*
X67310095Y-84854238D01*
X67643429Y-84806619D02*
X67881524Y-85806619D01*
X67881524Y-85806619D02*
X68072000Y-85092333D01*
X68072000Y-85092333D02*
X68262476Y-85806619D01*
X68262476Y-85806619D02*
X68500572Y-84806619D01*
X68786286Y-84806619D02*
X69405333Y-84806619D01*
X69405333Y-84806619D02*
X69072000Y-85187571D01*
X69072000Y-85187571D02*
X69214857Y-85187571D01*
X69214857Y-85187571D02*
X69310095Y-85235190D01*
X69310095Y-85235190D02*
X69357714Y-85282809D01*
X69357714Y-85282809D02*
X69405333Y-85378047D01*
X69405333Y-85378047D02*
X69405333Y-85616142D01*
X69405333Y-85616142D02*
X69357714Y-85711380D01*
X69357714Y-85711380D02*
X69310095Y-85759000D01*
X69310095Y-85759000D02*
X69214857Y-85806619D01*
X69214857Y-85806619D02*
X68929143Y-85806619D01*
X68929143Y-85806619D02*
X68833905Y-85759000D01*
X68833905Y-85759000D02*
X68786286Y-85711380D01*
%TO.C,SW2*%
X50482667Y-86521000D02*
X50625524Y-86568619D01*
X50625524Y-86568619D02*
X50863619Y-86568619D01*
X50863619Y-86568619D02*
X50958857Y-86521000D01*
X50958857Y-86521000D02*
X51006476Y-86473380D01*
X51006476Y-86473380D02*
X51054095Y-86378142D01*
X51054095Y-86378142D02*
X51054095Y-86282904D01*
X51054095Y-86282904D02*
X51006476Y-86187666D01*
X51006476Y-86187666D02*
X50958857Y-86140047D01*
X50958857Y-86140047D02*
X50863619Y-86092428D01*
X50863619Y-86092428D02*
X50673143Y-86044809D01*
X50673143Y-86044809D02*
X50577905Y-85997190D01*
X50577905Y-85997190D02*
X50530286Y-85949571D01*
X50530286Y-85949571D02*
X50482667Y-85854333D01*
X50482667Y-85854333D02*
X50482667Y-85759095D01*
X50482667Y-85759095D02*
X50530286Y-85663857D01*
X50530286Y-85663857D02*
X50577905Y-85616238D01*
X50577905Y-85616238D02*
X50673143Y-85568619D01*
X50673143Y-85568619D02*
X50911238Y-85568619D01*
X50911238Y-85568619D02*
X51054095Y-85616238D01*
X51387429Y-85568619D02*
X51625524Y-86568619D01*
X51625524Y-86568619D02*
X51816000Y-85854333D01*
X51816000Y-85854333D02*
X52006476Y-86568619D01*
X52006476Y-86568619D02*
X52244572Y-85568619D01*
X52577905Y-85663857D02*
X52625524Y-85616238D01*
X52625524Y-85616238D02*
X52720762Y-85568619D01*
X52720762Y-85568619D02*
X52958857Y-85568619D01*
X52958857Y-85568619D02*
X53054095Y-85616238D01*
X53054095Y-85616238D02*
X53101714Y-85663857D01*
X53101714Y-85663857D02*
X53149333Y-85759095D01*
X53149333Y-85759095D02*
X53149333Y-85854333D01*
X53149333Y-85854333D02*
X53101714Y-85997190D01*
X53101714Y-85997190D02*
X52530286Y-86568619D01*
X52530286Y-86568619D02*
X53149333Y-86568619D01*
%TO.C,J8*%
X120230666Y-74794619D02*
X120230666Y-75508904D01*
X120230666Y-75508904D02*
X120183047Y-75651761D01*
X120183047Y-75651761D02*
X120087809Y-75747000D01*
X120087809Y-75747000D02*
X119944952Y-75794619D01*
X119944952Y-75794619D02*
X119849714Y-75794619D01*
X120849714Y-75223190D02*
X120754476Y-75175571D01*
X120754476Y-75175571D02*
X120706857Y-75127952D01*
X120706857Y-75127952D02*
X120659238Y-75032714D01*
X120659238Y-75032714D02*
X120659238Y-74985095D01*
X120659238Y-74985095D02*
X120706857Y-74889857D01*
X120706857Y-74889857D02*
X120754476Y-74842238D01*
X120754476Y-74842238D02*
X120849714Y-74794619D01*
X120849714Y-74794619D02*
X121040190Y-74794619D01*
X121040190Y-74794619D02*
X121135428Y-74842238D01*
X121135428Y-74842238D02*
X121183047Y-74889857D01*
X121183047Y-74889857D02*
X121230666Y-74985095D01*
X121230666Y-74985095D02*
X121230666Y-75032714D01*
X121230666Y-75032714D02*
X121183047Y-75127952D01*
X121183047Y-75127952D02*
X121135428Y-75175571D01*
X121135428Y-75175571D02*
X121040190Y-75223190D01*
X121040190Y-75223190D02*
X120849714Y-75223190D01*
X120849714Y-75223190D02*
X120754476Y-75270809D01*
X120754476Y-75270809D02*
X120706857Y-75318428D01*
X120706857Y-75318428D02*
X120659238Y-75413666D01*
X120659238Y-75413666D02*
X120659238Y-75604142D01*
X120659238Y-75604142D02*
X120706857Y-75699380D01*
X120706857Y-75699380D02*
X120754476Y-75747000D01*
X120754476Y-75747000D02*
X120849714Y-75794619D01*
X120849714Y-75794619D02*
X121040190Y-75794619D01*
X121040190Y-75794619D02*
X121135428Y-75747000D01*
X121135428Y-75747000D02*
X121183047Y-75699380D01*
X121183047Y-75699380D02*
X121230666Y-75604142D01*
X121230666Y-75604142D02*
X121230666Y-75413666D01*
X121230666Y-75413666D02*
X121183047Y-75318428D01*
X121183047Y-75318428D02*
X121135428Y-75270809D01*
X121135428Y-75270809D02*
X121040190Y-75223190D01*
%TO.C,Y1*%
X38485809Y-60977428D02*
X38485809Y-61453619D01*
X38152476Y-60453619D02*
X38485809Y-60977428D01*
X38485809Y-60977428D02*
X38819142Y-60453619D01*
X39676285Y-61453619D02*
X39104857Y-61453619D01*
X39390571Y-61453619D02*
X39390571Y-60453619D01*
X39390571Y-60453619D02*
X39295333Y-60596476D01*
X39295333Y-60596476D02*
X39200095Y-60691714D01*
X39200095Y-60691714D02*
X39104857Y-60739333D01*
%TO.C,J7*%
X128444666Y-46169619D02*
X128444666Y-46883904D01*
X128444666Y-46883904D02*
X128397047Y-47026761D01*
X128397047Y-47026761D02*
X128301809Y-47122000D01*
X128301809Y-47122000D02*
X128158952Y-47169619D01*
X128158952Y-47169619D02*
X128063714Y-47169619D01*
X128825619Y-46169619D02*
X129492285Y-46169619D01*
X129492285Y-46169619D02*
X129063714Y-47169619D01*
%TO.C,AFF5*%
X61928571Y-21512904D02*
X62404761Y-21512904D01*
X61833333Y-21798619D02*
X62166666Y-20798619D01*
X62166666Y-20798619D02*
X62499999Y-21798619D01*
X63166666Y-21274809D02*
X62833333Y-21274809D01*
X62833333Y-21798619D02*
X62833333Y-20798619D01*
X62833333Y-20798619D02*
X63309523Y-20798619D01*
X64023809Y-21274809D02*
X63690476Y-21274809D01*
X63690476Y-21798619D02*
X63690476Y-20798619D01*
X63690476Y-20798619D02*
X64166666Y-20798619D01*
X65023809Y-20798619D02*
X64547619Y-20798619D01*
X64547619Y-20798619D02*
X64500000Y-21274809D01*
X64500000Y-21274809D02*
X64547619Y-21227190D01*
X64547619Y-21227190D02*
X64642857Y-21179571D01*
X64642857Y-21179571D02*
X64880952Y-21179571D01*
X64880952Y-21179571D02*
X64976190Y-21227190D01*
X64976190Y-21227190D02*
X65023809Y-21274809D01*
X65023809Y-21274809D02*
X65071428Y-21370047D01*
X65071428Y-21370047D02*
X65071428Y-21608142D01*
X65071428Y-21608142D02*
X65023809Y-21703380D01*
X65023809Y-21703380D02*
X64976190Y-21751000D01*
X64976190Y-21751000D02*
X64880952Y-21798619D01*
X64880952Y-21798619D02*
X64642857Y-21798619D01*
X64642857Y-21798619D02*
X64547619Y-21751000D01*
X64547619Y-21751000D02*
X64500000Y-21703380D01*
%TO.C,AFF2*%
X101298571Y-21512904D02*
X101774761Y-21512904D01*
X101203333Y-21798619D02*
X101536666Y-20798619D01*
X101536666Y-20798619D02*
X101869999Y-21798619D01*
X102536666Y-21274809D02*
X102203333Y-21274809D01*
X102203333Y-21798619D02*
X102203333Y-20798619D01*
X102203333Y-20798619D02*
X102679523Y-20798619D01*
X103393809Y-21274809D02*
X103060476Y-21274809D01*
X103060476Y-21798619D02*
X103060476Y-20798619D01*
X103060476Y-20798619D02*
X103536666Y-20798619D01*
X103870000Y-20893857D02*
X103917619Y-20846238D01*
X103917619Y-20846238D02*
X104012857Y-20798619D01*
X104012857Y-20798619D02*
X104250952Y-20798619D01*
X104250952Y-20798619D02*
X104346190Y-20846238D01*
X104346190Y-20846238D02*
X104393809Y-20893857D01*
X104393809Y-20893857D02*
X104441428Y-20989095D01*
X104441428Y-20989095D02*
X104441428Y-21084333D01*
X104441428Y-21084333D02*
X104393809Y-21227190D01*
X104393809Y-21227190D02*
X103822381Y-21798619D01*
X103822381Y-21798619D02*
X104441428Y-21798619D01*
%TO.C,C5*%
X93579333Y-68753380D02*
X93531714Y-68801000D01*
X93531714Y-68801000D02*
X93388857Y-68848619D01*
X93388857Y-68848619D02*
X93293619Y-68848619D01*
X93293619Y-68848619D02*
X93150762Y-68801000D01*
X93150762Y-68801000D02*
X93055524Y-68705761D01*
X93055524Y-68705761D02*
X93007905Y-68610523D01*
X93007905Y-68610523D02*
X92960286Y-68420047D01*
X92960286Y-68420047D02*
X92960286Y-68277190D01*
X92960286Y-68277190D02*
X93007905Y-68086714D01*
X93007905Y-68086714D02*
X93055524Y-67991476D01*
X93055524Y-67991476D02*
X93150762Y-67896238D01*
X93150762Y-67896238D02*
X93293619Y-67848619D01*
X93293619Y-67848619D02*
X93388857Y-67848619D01*
X93388857Y-67848619D02*
X93531714Y-67896238D01*
X93531714Y-67896238D02*
X93579333Y-67943857D01*
X94484095Y-67848619D02*
X94007905Y-67848619D01*
X94007905Y-67848619D02*
X93960286Y-68324809D01*
X93960286Y-68324809D02*
X94007905Y-68277190D01*
X94007905Y-68277190D02*
X94103143Y-68229571D01*
X94103143Y-68229571D02*
X94341238Y-68229571D01*
X94341238Y-68229571D02*
X94436476Y-68277190D01*
X94436476Y-68277190D02*
X94484095Y-68324809D01*
X94484095Y-68324809D02*
X94531714Y-68420047D01*
X94531714Y-68420047D02*
X94531714Y-68658142D01*
X94531714Y-68658142D02*
X94484095Y-68753380D01*
X94484095Y-68753380D02*
X94436476Y-68801000D01*
X94436476Y-68801000D02*
X94341238Y-68848619D01*
X94341238Y-68848619D02*
X94103143Y-68848619D01*
X94103143Y-68848619D02*
X94007905Y-68801000D01*
X94007905Y-68801000D02*
X93960286Y-68753380D01*
%TO.C,*%
D12*
%TO.C,C4*%
X31953252Y-63648000D02*
X30530748Y-63648000D01*
X31953252Y-61828000D02*
X30530748Y-61828000D01*
%TO.C,C15*%
X125002113Y-66597000D02*
X125502113Y-66597000D01*
X125252113Y-66347000D02*
X125252113Y-66847000D01*
X130426888Y-68072000D02*
G75*
G03*
X130426888Y-68072000I-2620000J0D01*
G01*
%TO.C,J2*%
X56702000Y-60392000D02*
X56702000Y-61722000D01*
X55372000Y-60392000D02*
X56702000Y-60392000D01*
X54102000Y-60392000D02*
X46422000Y-60392000D01*
X54102000Y-60392000D02*
X54102000Y-63052000D01*
X46422000Y-60392000D02*
X46422000Y-63052000D01*
X54102000Y-63052000D02*
X46422000Y-63052000D01*
%TO.C,SW1*%
X49691500Y-86830000D02*
X37391500Y-86830000D01*
X49691500Y-84110000D02*
X49691500Y-86830000D01*
X49691500Y-79110000D02*
X49691500Y-82250000D01*
X49691500Y-74530000D02*
X49691500Y-77250000D01*
X37391500Y-86830000D02*
X37391500Y-84110000D01*
X37391500Y-82250000D02*
X37391500Y-79110000D01*
X37391500Y-77250000D02*
X37391500Y-74530000D01*
X37391500Y-74530000D02*
X49691500Y-74530000D01*
X48020550Y-80640000D02*
G75*
G03*
X48020550Y-80640000I-4579050J0D01*
G01*
%TO.C,J4*%
X81086000Y-67250000D02*
X81086000Y-68580000D01*
X79756000Y-67250000D02*
X81086000Y-67250000D01*
X78486000Y-67250000D02*
X60646000Y-67250000D01*
X78486000Y-67250000D02*
X78486000Y-69910000D01*
X60646000Y-67250000D02*
X60646000Y-69910000D01*
X78486000Y-69910000D02*
X60646000Y-69910000D01*
%TO.C,C17*%
X109270748Y-53700000D02*
X110693252Y-53700000D01*
X109270748Y-55520000D02*
X110693252Y-55520000D01*
%TO.C,AFF1*%
X110778000Y-42147000D02*
X122378000Y-42147000D01*
X109668000Y-38227000D02*
X109668000Y-26797000D01*
X122488000Y-38227000D02*
X122488000Y-26797000D01*
X111078000Y-37512000D02*
X118078000Y-37512000D01*
X118078000Y-37512000D02*
X119078000Y-32512000D01*
X112078000Y-32512000D02*
X111078000Y-37512000D01*
X119078000Y-32512000D02*
X112078000Y-32512000D01*
X113078000Y-27512000D02*
X112078000Y-32512000D01*
X113078000Y-27512000D02*
X120078000Y-27512000D01*
X120078000Y-27512000D02*
X119078000Y-32512000D01*
X122378000Y-22877000D02*
X109778000Y-22877000D01*
X120525214Y-37512000D02*
G75*
G03*
X120525214Y-37512000I-447214J0D01*
G01*
%TO.C,SW4*%
X98315500Y-86830000D02*
X86015500Y-86830000D01*
X98315500Y-84110000D02*
X98315500Y-86830000D01*
X98315500Y-79110000D02*
X98315500Y-82250000D01*
X98315500Y-74530000D02*
X98315500Y-77250000D01*
X86015500Y-86830000D02*
X86015500Y-84110000D01*
X86015500Y-82250000D02*
X86015500Y-79110000D01*
X86015500Y-77250000D02*
X86015500Y-74530000D01*
X86015500Y-74530000D02*
X98315500Y-74530000D01*
X96644550Y-80640000D02*
G75*
G03*
X96644550Y-80640000I-4579050J0D01*
G01*
%TO.C,C3*%
X31953252Y-66188000D02*
X30530748Y-66188000D01*
X31953252Y-64368000D02*
X30530748Y-64368000D01*
%TO.C,C9*%
X120913225Y-46785000D02*
X121413225Y-46785000D01*
X121163225Y-46535000D02*
X121163225Y-47035000D01*
X126338000Y-48260000D02*
G75*
G03*
X126338000Y-48260000I-2620000J0D01*
G01*
%TO.C,Y2*%
X78238000Y-56948000D02*
X78238000Y-53348000D01*
X78738000Y-56948000D02*
X78238000Y-56948000D01*
X76838000Y-56418000D02*
X76138000Y-56418000D01*
X78238000Y-55748000D02*
X76838000Y-56418000D01*
X78238000Y-54548000D02*
X76838000Y-53878000D01*
X76838000Y-53878000D02*
X76138000Y-53878000D01*
X78238000Y-53348000D02*
X78738000Y-53348000D01*
%TO.C,C20*%
X109232248Y-62844000D02*
X110654752Y-62844000D01*
X109232248Y-64664000D02*
X110654752Y-64664000D01*
%TO.C,AFF6*%
X44738000Y-42147000D02*
X56338000Y-42147000D01*
X43628000Y-38227000D02*
X43628000Y-26797000D01*
X56448000Y-38227000D02*
X56448000Y-26797000D01*
X45038000Y-37512000D02*
X52038000Y-37512000D01*
X52038000Y-37512000D02*
X53038000Y-32512000D01*
X46038000Y-32512000D02*
X45038000Y-37512000D01*
X53038000Y-32512000D02*
X46038000Y-32512000D01*
X47038000Y-27512000D02*
X46038000Y-32512000D01*
X47038000Y-27512000D02*
X54038000Y-27512000D01*
X54038000Y-27512000D02*
X53038000Y-32512000D01*
X56338000Y-22877000D02*
X43738000Y-22877000D01*
X54485214Y-37512000D02*
G75*
G03*
X54485214Y-37512000I-447214J0D01*
G01*
%TO.C,J1*%
X36008000Y-73720000D02*
X36008000Y-72390000D01*
X37338000Y-73720000D02*
X36008000Y-73720000D01*
X38608000Y-73720000D02*
X48828000Y-73720000D01*
X38608000Y-73720000D02*
X38608000Y-71060000D01*
X48828000Y-73720000D02*
X48828000Y-71060000D01*
X38608000Y-71060000D02*
X48828000Y-71060000D01*
%TO.C,C13*%
X109270748Y-57002000D02*
X110693252Y-57002000D01*
X109270748Y-58822000D02*
X110693252Y-58822000D01*
%TO.C,C10*%
X122534000Y-56591252D02*
X122534000Y-55168748D01*
X124354000Y-56591252D02*
X124354000Y-55168748D01*
%TO.C,C19*%
X105694775Y-61165000D02*
X105194775Y-61165000D01*
X105444775Y-61415000D02*
X105444775Y-60915000D01*
X105510000Y-59690000D02*
G75*
G03*
X105510000Y-59690000I-2620000J0D01*
G01*
%TO.C,AFF7*%
X31530000Y-42147000D02*
X43130000Y-42147000D01*
X30420000Y-38227000D02*
X30420000Y-26797000D01*
X43240000Y-38227000D02*
X43240000Y-26797000D01*
X31830000Y-37512000D02*
X38830000Y-37512000D01*
X38830000Y-37512000D02*
X39830000Y-32512000D01*
X32830000Y-32512000D02*
X31830000Y-37512000D01*
X39830000Y-32512000D02*
X32830000Y-32512000D01*
X33830000Y-27512000D02*
X32830000Y-32512000D01*
X33830000Y-27512000D02*
X40830000Y-27512000D01*
X40830000Y-27512000D02*
X39830000Y-32512000D01*
X43130000Y-22877000D02*
X30530000Y-22877000D01*
X41277214Y-37512000D02*
G75*
G03*
X41277214Y-37512000I-447214J0D01*
G01*
%TO.C,AFF3*%
X84362000Y-42147000D02*
X95962000Y-42147000D01*
X83252000Y-38227000D02*
X83252000Y-26797000D01*
X96072000Y-38227000D02*
X96072000Y-26797000D01*
X84662000Y-37512000D02*
X91662000Y-37512000D01*
X91662000Y-37512000D02*
X92662000Y-32512000D01*
X85662000Y-32512000D02*
X84662000Y-37512000D01*
X92662000Y-32512000D02*
X85662000Y-32512000D01*
X86662000Y-27512000D02*
X85662000Y-32512000D01*
X86662000Y-27512000D02*
X93662000Y-27512000D01*
X93662000Y-27512000D02*
X92662000Y-32512000D01*
X95962000Y-22877000D02*
X83362000Y-22877000D01*
X94109214Y-37512000D02*
G75*
G03*
X94109214Y-37512000I-447214J0D01*
G01*
%TO.C,U6*%
X117383000Y-55011000D02*
X113933000Y-55011000D01*
X117383000Y-55011000D02*
X119333000Y-55011000D01*
X117383000Y-65131000D02*
X115433000Y-65131000D01*
X117383000Y-65131000D02*
X119333000Y-65131000D01*
%TO.C,C23*%
X119897225Y-71169000D02*
X120397225Y-71169000D01*
X120147225Y-70919000D02*
X120147225Y-71419000D01*
X125322000Y-72644000D02*
G75*
G03*
X125322000Y-72644000I-2620000J0D01*
G01*
%TO.C,C14*%
X110654752Y-61870000D02*
X109232248Y-61870000D01*
X110654752Y-60050000D02*
X109232248Y-60050000D01*
%TO.C,J3*%
X83626000Y-70552000D02*
X83626000Y-71882000D01*
X82296000Y-70552000D02*
X83626000Y-70552000D01*
X81026000Y-70552000D02*
X70806000Y-70552000D01*
X81026000Y-70552000D02*
X81026000Y-73212000D01*
X70806000Y-70552000D02*
X70806000Y-73212000D01*
X81026000Y-73212000D02*
X70806000Y-73212000D01*
%TO.C,J6*%
X107904000Y-87150000D02*
X107904000Y-89390000D01*
X107904000Y-89390000D02*
X109904000Y-89390000D01*
X108144000Y-81030000D02*
X108144000Y-89150000D01*
X108144000Y-81030000D02*
X118424000Y-81030000D01*
X108144000Y-83090000D02*
X118424000Y-83090000D01*
X108144000Y-87090000D02*
X118424000Y-87090000D01*
X108144000Y-89150000D02*
X118424000Y-89150000D01*
X114644000Y-86066000D02*
X114550000Y-86159000D01*
X114814000Y-86306000D02*
X114755000Y-86364000D01*
X116894000Y-83815000D02*
X116835000Y-83874000D01*
X117099000Y-84021000D02*
X117005000Y-84114000D01*
X118424000Y-81030000D02*
X118424000Y-89150000D01*
X109260000Y-84301000D02*
G75*
G03*
X109260047Y-85879089I1483995J-789000D01*
G01*
X111533000Y-83606000D02*
G75*
G03*
X109954911Y-83606047I-789000J-1483995D01*
G01*
X109955000Y-86573999D02*
G75*
G03*
X110773383Y-86770449I788998J1483994D01*
G01*
X110744000Y-86769999D02*
G75*
G03*
X111532712Y-86573351I0J1679999D01*
G01*
X112228000Y-85879000D02*
G75*
G03*
X112227952Y-84300911I-1484000J789000D01*
G01*
X117504000Y-85090000D02*
G75*
G03*
X117504000Y-85090000I-1680000J0D01*
G01*
%TO.C,J5*%
X127448000Y-56582000D02*
X128778000Y-56582000D01*
X127448000Y-57912000D02*
X127448000Y-56582000D01*
X127448000Y-59182000D02*
X127448000Y-64322000D01*
X127448000Y-59182000D02*
X130108000Y-59182000D01*
X127448000Y-64322000D02*
X130108000Y-64322000D01*
X130108000Y-59182000D02*
X130108000Y-64322000D01*
%TO.C,AFF4*%
X71154000Y-42147000D02*
X82754000Y-42147000D01*
X70044000Y-38227000D02*
X70044000Y-26797000D01*
X82864000Y-38227000D02*
X82864000Y-26797000D01*
X71454000Y-37512000D02*
X78454000Y-37512000D01*
X78454000Y-37512000D02*
X79454000Y-32512000D01*
X72454000Y-32512000D02*
X71454000Y-37512000D01*
X79454000Y-32512000D02*
X72454000Y-32512000D01*
X73454000Y-27512000D02*
X72454000Y-32512000D01*
X73454000Y-27512000D02*
X80454000Y-27512000D01*
X80454000Y-27512000D02*
X79454000Y-32512000D01*
X82754000Y-22877000D02*
X70154000Y-22877000D01*
X80901214Y-37512000D02*
G75*
G03*
X80901214Y-37512000I-447214J0D01*
G01*
%TO.C,SW3*%
X82059500Y-86830000D02*
X69759500Y-86830000D01*
X82059500Y-84110000D02*
X82059500Y-86830000D01*
X82059500Y-79110000D02*
X82059500Y-82250000D01*
X82059500Y-74530000D02*
X82059500Y-77250000D01*
X69759500Y-86830000D02*
X69759500Y-84110000D01*
X69759500Y-82250000D02*
X69759500Y-79110000D01*
X69759500Y-77250000D02*
X69759500Y-74530000D01*
X69759500Y-74530000D02*
X82059500Y-74530000D01*
X80388550Y-80640000D02*
G75*
G03*
X80388550Y-80640000I-4579050J0D01*
G01*
%TO.C,SW2*%
X65803500Y-86830000D02*
X53503500Y-86830000D01*
X65803500Y-84110000D02*
X65803500Y-86830000D01*
X65803500Y-79110000D02*
X65803500Y-82250000D01*
X65803500Y-74530000D02*
X65803500Y-77250000D01*
X53503500Y-86830000D02*
X53503500Y-84110000D01*
X53503500Y-82250000D02*
X53503500Y-79110000D01*
X53503500Y-77250000D02*
X53503500Y-74530000D01*
X53503500Y-74530000D02*
X65803500Y-74530000D01*
X64132550Y-80640000D02*
G75*
G03*
X64132550Y-80640000I-4579050J0D01*
G01*
%TO.C,J8*%
X109680000Y-75094000D02*
X109680000Y-76394000D01*
X109980000Y-75394000D02*
X111980000Y-75394000D01*
X109980000Y-89894000D02*
X109980000Y-75394000D01*
X111380000Y-75094000D02*
X109680000Y-75094000D01*
X117180000Y-75394000D02*
X119180000Y-75394000D01*
X119180000Y-75394000D02*
X119180000Y-76694000D01*
X119180000Y-81294000D02*
X119180000Y-89894000D01*
X119180000Y-89894000D02*
X109980000Y-89894000D01*
%TO.C,Y1*%
X35837000Y-61991000D02*
X42087000Y-61991000D01*
X35837000Y-67041000D02*
X42087000Y-67041000D01*
X35837000Y-61991000D02*
G75*
G03*
X35837000Y-67041000I0J-2525000D01*
G01*
X42087000Y-67041000D02*
G75*
G03*
X42087000Y-61991000I0J2525000D01*
G01*
%TO.C,J7*%
X127448000Y-47707000D02*
X128778000Y-47707000D01*
X127448000Y-49037000D02*
X127448000Y-47707000D01*
X127448000Y-50307000D02*
X127448000Y-55447000D01*
X127448000Y-50307000D02*
X130108000Y-50307000D01*
X127448000Y-55447000D02*
X130108000Y-55447000D01*
X130108000Y-50307000D02*
X130108000Y-55447000D01*
%TO.C,AFF5*%
X57946000Y-42147000D02*
X69546000Y-42147000D01*
X56836000Y-38227000D02*
X56836000Y-26797000D01*
X69656000Y-38227000D02*
X69656000Y-26797000D01*
X58246000Y-37512000D02*
X65246000Y-37512000D01*
X65246000Y-37512000D02*
X66246000Y-32512000D01*
X59246000Y-32512000D02*
X58246000Y-37512000D01*
X66246000Y-32512000D02*
X59246000Y-32512000D01*
X60246000Y-27512000D02*
X59246000Y-32512000D01*
X60246000Y-27512000D02*
X67246000Y-27512000D01*
X67246000Y-27512000D02*
X66246000Y-32512000D01*
X69546000Y-22877000D02*
X56946000Y-22877000D01*
X67693214Y-37512000D02*
G75*
G03*
X67693214Y-37512000I-447214J0D01*
G01*
%TO.C,AFF2*%
X97570000Y-42147000D02*
X109170000Y-42147000D01*
X96460000Y-38227000D02*
X96460000Y-26797000D01*
X109280000Y-38227000D02*
X109280000Y-26797000D01*
X97870000Y-37512000D02*
X104870000Y-37512000D01*
X104870000Y-37512000D02*
X105870000Y-32512000D01*
X98870000Y-32512000D02*
X97870000Y-37512000D01*
X105870000Y-32512000D02*
X98870000Y-32512000D01*
X99870000Y-27512000D02*
X98870000Y-32512000D01*
X99870000Y-27512000D02*
X106870000Y-27512000D01*
X106870000Y-27512000D02*
X105870000Y-32512000D01*
X109170000Y-22877000D02*
X96570000Y-22877000D01*
X107317214Y-37512000D02*
G75*
G03*
X107317214Y-37512000I-447214J0D01*
G01*
%TO.C,C5*%
X90941225Y-70661000D02*
X91441225Y-70661000D01*
X91191225Y-70411000D02*
X91191225Y-70911000D01*
X96366000Y-72136000D02*
G75*
G03*
X96366000Y-72136000I-2620000J0D01*
G01*
%TD*%
M02*
