%TF.GenerationSoftware,KiCad,Pcbnew,7.0.2*%
%TF.CreationDate,2024-03-07T11:00:19+05:30*%
%TF.ProjectId,HI-2401,48492d32-3430-4312-9e6b-696361645f70,rev?*%
%TF.SameCoordinates,Original*%
%TF.FileFunction,Copper,L1,Top*%
%TF.FilePolarity,Positive*%
%FSLAX46Y46*%
G04 Gerber Fmt 4.6, Leading zero omitted, Abs format (unit mm)*
G04 Created by KiCad (PCBNEW 7.0.2) date 2024-03-07 11:00:19*
%MOMM*%
%LPD*%
G01*
G04 APERTURE LIST*
G04 Aperture macros list*
%AMRoundRect*
0 Rectangle with rounded corners*
0 $1 Rounding radius*
0 $2 $3 $4 $5 $6 $7 $8 $9 X,Y pos of 4 corners*
0 Add a 4 corners polygon primitive as box body*
4,1,4,$2,$3,$4,$5,$6,$7,$8,$9,$2,$3,0*
0 Add four circle primitives for the rounded corners*
1,1,$1+$1,$2,$3*
1,1,$1+$1,$4,$5*
1,1,$1+$1,$6,$7*
1,1,$1+$1,$8,$9*
0 Add four rect primitives between the rounded corners*
20,1,$1+$1,$2,$3,$4,$5,0*
20,1,$1+$1,$4,$5,$6,$7,0*
20,1,$1+$1,$6,$7,$8,$9,0*
20,1,$1+$1,$8,$9,$2,$3,0*%
G04 Aperture macros list end*
%ADD10C,0.500000*%
%TA.AperFunction,SMDPad,CuDef*%
%ADD11RoundRect,0.250000X0.412500X0.650000X-0.412500X0.650000X-0.412500X-0.650000X0.412500X-0.650000X0*%
%TD*%
%TA.AperFunction,ComponentPad*%
%ADD12R,1.600000X1.600000*%
%TD*%
%TA.AperFunction,ComponentPad*%
%ADD13C,1.600000*%
%TD*%
%TA.AperFunction,ComponentPad*%
%ADD14R,1.700000X1.700000*%
%TD*%
%TA.AperFunction,ComponentPad*%
%ADD15O,1.700000X1.700000*%
%TD*%
%TA.AperFunction,ComponentPad*%
%ADD16O,3.048000X1.850000*%
%TD*%
%TA.AperFunction,SMDPad,CuDef*%
%ADD17RoundRect,0.250000X-0.412500X-0.650000X0.412500X-0.650000X0.412500X0.650000X-0.412500X0.650000X0*%
%TD*%
%TA.AperFunction,ComponentPad*%
%ADD18R,1.524000X2.524000*%
%TD*%
%TA.AperFunction,ComponentPad*%
%ADD19O,1.524000X2.524000*%
%TD*%
%TA.AperFunction,ComponentPad*%
%ADD20C,1.000000*%
%TD*%
%TA.AperFunction,SMDPad,CuDef*%
%ADD21R,10.500000X3.200000*%
%TD*%
%TA.AperFunction,SMDPad,CuDef*%
%ADD22RoundRect,0.250000X0.650000X-0.412500X0.650000X0.412500X-0.650000X0.412500X-0.650000X-0.412500X0*%
%TD*%
%TA.AperFunction,SMDPad,CuDef*%
%ADD23RoundRect,0.150000X-0.725000X-0.150000X0.725000X-0.150000X0.725000X0.150000X-0.725000X0.150000X0*%
%TD*%
%TA.AperFunction,WasherPad*%
%ADD24O,4.500000X5.500000*%
%TD*%
%TA.AperFunction,WasherPad*%
%ADD25O,5.500000X8.000000*%
%TD*%
%TA.AperFunction,ComponentPad*%
%ADD26R,2.500000X2.500000*%
%TD*%
%TA.AperFunction,ComponentPad*%
%ADD27C,2.500000*%
%TD*%
%TA.AperFunction,ComponentPad*%
%ADD28R,4.600000X2.000000*%
%TD*%
%TA.AperFunction,ComponentPad*%
%ADD29O,4.200000X2.000000*%
%TD*%
%TA.AperFunction,ComponentPad*%
%ADD30O,2.000000X4.200000*%
%TD*%
%TA.AperFunction,ComponentPad*%
%ADD31C,1.500000*%
%TD*%
%TA.AperFunction,ComponentPad*%
%ADD32R,3.000000X3.000000*%
%TD*%
%TA.AperFunction,ComponentPad*%
%ADD33C,3.000000*%
%TD*%
%TA.AperFunction,ViaPad*%
%ADD34C,1.000000*%
%TD*%
%TA.AperFunction,Conductor*%
%ADD35C,0.500000*%
%TD*%
%TA.AperFunction,Conductor*%
%ADD36C,0.200000*%
%TD*%
%TA.AperFunction,Conductor*%
%ADD37C,0.350000*%
%TD*%
%TA.AperFunction,Conductor*%
%ADD38C,1.000000*%
%TD*%
%TA.AperFunction,Conductor*%
%ADD39C,1.500000*%
%TD*%
%TA.AperFunction,Conductor*%
%ADD40C,0.850000*%
%TD*%
G04 APERTURE END LIST*
D10*
G36*
X128046670Y-32817688D02*
G01*
X128204885Y-32896795D01*
X128257035Y-32948946D01*
X128322023Y-33078922D01*
X128322023Y-33179935D01*
X128257035Y-33309911D01*
X128204887Y-33362059D01*
X128046668Y-33441168D01*
X127665056Y-33536571D01*
X127178991Y-33536571D01*
X126797378Y-33441168D01*
X126639159Y-33362059D01*
X126587010Y-33309910D01*
X126522023Y-33179935D01*
X126522023Y-33078921D01*
X126587009Y-32948947D01*
X126639162Y-32896795D01*
X126797377Y-32817688D01*
X127178990Y-32722286D01*
X127665057Y-32722286D01*
X128046670Y-32817688D01*
G37*
G36*
X130361571Y-46036571D02*
G01*
X124654429Y-46036571D01*
X124654429Y-44447461D01*
X126014121Y-44447461D01*
X126075109Y-44581007D01*
X126198616Y-44660380D01*
X127349383Y-44660380D01*
X127404342Y-44668282D01*
X127421645Y-44660380D01*
X128607967Y-44660380D01*
X128712889Y-44629572D01*
X128809031Y-44518618D01*
X128829925Y-44373299D01*
X128768937Y-44239753D01*
X128645430Y-44160380D01*
X127617261Y-44160380D01*
X127617261Y-43346095D01*
X128607967Y-43346095D01*
X128712889Y-43315287D01*
X128809031Y-43204333D01*
X128829925Y-43059014D01*
X128768937Y-42925468D01*
X128645430Y-42846095D01*
X127385139Y-42846095D01*
X127330180Y-42838193D01*
X127312877Y-42846095D01*
X126236079Y-42846095D01*
X126131157Y-42876903D01*
X126035015Y-42987857D01*
X126014121Y-43133176D01*
X126075109Y-43266722D01*
X126198616Y-43346095D01*
X127117261Y-43346095D01*
X127117261Y-44160380D01*
X126236079Y-44160380D01*
X126131157Y-44191188D01*
X126035015Y-44302142D01*
X126014121Y-44447461D01*
X124654429Y-44447461D01*
X124654429Y-42037937D01*
X126014121Y-42037937D01*
X126075109Y-42171483D01*
X126198616Y-42250856D01*
X128607967Y-42250856D01*
X128712889Y-42220048D01*
X128809031Y-42109094D01*
X128829925Y-41963775D01*
X128768937Y-41830229D01*
X128645430Y-41750856D01*
X126236079Y-41750856D01*
X126131157Y-41781664D01*
X126035015Y-41892618D01*
X126014121Y-42037937D01*
X124654429Y-42037937D01*
X124654429Y-40941562D01*
X127445833Y-40941562D01*
X127476641Y-41046484D01*
X127587595Y-41142626D01*
X127732914Y-41163520D01*
X127866460Y-41102532D01*
X127945833Y-40979025D01*
X127945833Y-39117294D01*
X127915025Y-39012372D01*
X127804071Y-38916230D01*
X127658752Y-38895336D01*
X127525206Y-38956324D01*
X127445833Y-39079831D01*
X127445833Y-40941562D01*
X124654429Y-40941562D01*
X124654429Y-37319302D01*
X126012975Y-37319302D01*
X126022023Y-37341117D01*
X126022022Y-37825495D01*
X126015588Y-37885099D01*
X126038437Y-37930797D01*
X126052831Y-37979818D01*
X126070681Y-37995285D01*
X126143922Y-38141767D01*
X126152864Y-38182869D01*
X126201576Y-38231581D01*
X126248493Y-38282019D01*
X126253222Y-38283228D01*
X126339710Y-38369716D01*
X126435686Y-38422122D01*
X126582125Y-38411649D01*
X126699655Y-38323667D01*
X126750962Y-38186110D01*
X126719754Y-38042653D01*
X126587010Y-37909909D01*
X126522023Y-37779934D01*
X126522023Y-37350349D01*
X126587009Y-37220375D01*
X126639160Y-37168225D01*
X126769136Y-37103238D01*
X126888597Y-37103238D01*
X127122692Y-37181268D01*
X128350127Y-38408705D01*
X128352831Y-38417913D01*
X128401551Y-38460129D01*
X128420662Y-38479240D01*
X128428622Y-38483586D01*
X128463785Y-38514055D01*
X128491798Y-38518082D01*
X128516638Y-38531646D01*
X128563047Y-38528326D01*
X128609104Y-38534949D01*
X128634848Y-38523191D01*
X128663077Y-38521173D01*
X128700322Y-38493290D01*
X128742650Y-38473961D01*
X128757952Y-38450150D01*
X128780607Y-38433191D01*
X128796866Y-38389599D01*
X128822023Y-38350454D01*
X128822023Y-38322150D01*
X128831913Y-38295635D01*
X128822022Y-38250170D01*
X128822023Y-36817294D01*
X128791215Y-36712372D01*
X128680261Y-36616230D01*
X128534942Y-36595336D01*
X128401396Y-36656324D01*
X128322023Y-36779831D01*
X128322022Y-37673493D01*
X127444028Y-36795498D01*
X127406434Y-36748803D01*
X127357963Y-36732646D01*
X127313123Y-36708162D01*
X127289564Y-36709846D01*
X127037959Y-36625979D01*
X127002573Y-36603238D01*
X126933668Y-36603238D01*
X126864843Y-36600749D01*
X126860644Y-36603238D01*
X126723583Y-36603238D01*
X126663974Y-36596802D01*
X126618272Y-36619652D01*
X126569253Y-36634046D01*
X126553786Y-36651895D01*
X126407302Y-36725136D01*
X126366201Y-36734078D01*
X126317498Y-36782780D01*
X126267051Y-36829706D01*
X126265840Y-36834438D01*
X126226935Y-36873343D01*
X126190769Y-36894824D01*
X126159957Y-36956447D01*
X126126948Y-37016900D01*
X126127296Y-37021769D01*
X126054437Y-37167488D01*
X126022023Y-37217926D01*
X126022023Y-37269021D01*
X126012975Y-37319302D01*
X124654429Y-37319302D01*
X124654429Y-35383050D01*
X125906107Y-35383050D01*
X125921734Y-35529029D01*
X126013803Y-35643385D01*
X127679180Y-36198511D01*
X127697119Y-36214055D01*
X127747576Y-36221309D01*
X127760399Y-36225584D01*
X127782984Y-36226400D01*
X127842438Y-36234949D01*
X127855420Y-36229020D01*
X127869679Y-36229536D01*
X127921338Y-36198916D01*
X127975984Y-36173961D01*
X127983700Y-36161953D01*
X127995974Y-36154679D01*
X128022879Y-36100990D01*
X128055357Y-36050454D01*
X128055356Y-36036182D01*
X128061750Y-36023425D01*
X128055357Y-35963705D01*
X128055357Y-35131809D01*
X128607967Y-35131809D01*
X128712889Y-35101001D01*
X128809031Y-34990047D01*
X128829925Y-34844728D01*
X128768937Y-34711182D01*
X128645430Y-34631809D01*
X128055357Y-34631809D01*
X128055357Y-34517294D01*
X128024549Y-34412372D01*
X127913595Y-34316230D01*
X127768276Y-34295336D01*
X127634730Y-34356324D01*
X127555357Y-34479831D01*
X127555357Y-34631809D01*
X127002746Y-34631809D01*
X126897824Y-34662617D01*
X126801682Y-34773571D01*
X126780788Y-34918890D01*
X126841776Y-35052436D01*
X126965283Y-35131809D01*
X127555357Y-35131809D01*
X127555357Y-35630190D01*
X126207457Y-35180891D01*
X126098177Y-35176938D01*
X125971882Y-35251796D01*
X125906107Y-35383050D01*
X124654429Y-35383050D01*
X124654429Y-33047874D01*
X126012975Y-33047874D01*
X126022023Y-33069689D01*
X126022023Y-33225494D01*
X126015588Y-33285098D01*
X126038436Y-33330795D01*
X126052831Y-33379818D01*
X126070681Y-33395285D01*
X126143922Y-33541768D01*
X126152864Y-33582870D01*
X126201576Y-33631582D01*
X126248493Y-33682020D01*
X126253222Y-33683229D01*
X126292130Y-33722137D01*
X126313611Y-33758303D01*
X126375233Y-33789113D01*
X126435686Y-33822123D01*
X126440555Y-33821774D01*
X126558488Y-33880740D01*
X126578270Y-33901779D01*
X126622861Y-33912926D01*
X126630466Y-33916729D01*
X126657605Y-33921612D01*
X127047664Y-34019127D01*
X127074807Y-34036571D01*
X127117439Y-34036571D01*
X127122451Y-34037824D01*
X127153285Y-34036571D01*
X127654691Y-34036571D01*
X127685252Y-34046910D01*
X127726608Y-34036571D01*
X127731777Y-34036571D01*
X127761396Y-34027873D01*
X128151361Y-33930382D01*
X128180073Y-33933483D01*
X128221185Y-33912926D01*
X128229433Y-33910865D01*
X128253211Y-33896914D01*
X128436745Y-33805148D01*
X128477846Y-33796207D01*
X128526552Y-33747500D01*
X128576996Y-33700579D01*
X128578205Y-33695847D01*
X128617113Y-33656940D01*
X128653279Y-33635460D01*
X128684089Y-33573837D01*
X128717099Y-33513385D01*
X128716750Y-33508515D01*
X128789611Y-33362792D01*
X128822023Y-33312359D01*
X128822023Y-33261267D01*
X128831072Y-33210982D01*
X128822023Y-33189164D01*
X128822023Y-33033368D01*
X128828459Y-32973760D01*
X128805608Y-32928058D01*
X128791215Y-32879039D01*
X128773365Y-32863572D01*
X128700124Y-32717088D01*
X128691183Y-32675987D01*
X128642480Y-32627284D01*
X128595555Y-32576837D01*
X128590822Y-32575626D01*
X128551917Y-32536721D01*
X128530437Y-32500555D01*
X128468813Y-32469743D01*
X128408361Y-32436734D01*
X128403491Y-32437082D01*
X128285560Y-32378116D01*
X128265777Y-32357077D01*
X128221183Y-32345928D01*
X128213582Y-32342128D01*
X128186451Y-32337245D01*
X127796382Y-32239729D01*
X127769240Y-32222286D01*
X127726608Y-32222286D01*
X127721596Y-32221033D01*
X127690768Y-32222286D01*
X127189357Y-32222286D01*
X127158796Y-32211947D01*
X127117440Y-32222286D01*
X127112270Y-32222286D01*
X127082648Y-32230983D01*
X126692684Y-32328473D01*
X126663973Y-32325374D01*
X126622862Y-32345929D01*
X126614615Y-32347991D01*
X126590829Y-32361945D01*
X126407303Y-32453708D01*
X126366201Y-32462650D01*
X126317492Y-32511358D01*
X126267051Y-32558279D01*
X126265841Y-32563009D01*
X126226935Y-32601915D01*
X126190769Y-32623396D01*
X126159957Y-32685019D01*
X126126948Y-32745472D01*
X126127296Y-32750341D01*
X126054437Y-32896060D01*
X126022023Y-32946498D01*
X126022023Y-32997593D01*
X126012975Y-33047874D01*
X124654429Y-33047874D01*
X124654429Y-30280551D01*
X126011471Y-30280551D01*
X126022023Y-30317139D01*
X126022023Y-31741563D01*
X126052831Y-31846485D01*
X126163785Y-31942627D01*
X126309104Y-31963521D01*
X126442650Y-31902533D01*
X126522023Y-31779026D01*
X126522023Y-30832751D01*
X126928837Y-31188713D01*
X126929022Y-31189342D01*
X126983968Y-31236953D01*
X127010639Y-31260290D01*
X127011199Y-31260549D01*
X127039976Y-31285484D01*
X127076445Y-31290727D01*
X127109888Y-31306196D01*
X127147604Y-31300958D01*
X127185295Y-31306378D01*
X127218812Y-31291071D01*
X127255306Y-31286004D01*
X127284201Y-31261209D01*
X127318841Y-31245390D01*
X127338762Y-31214391D01*
X127366723Y-31190399D01*
X127377627Y-31153916D01*
X127398214Y-31121883D01*
X127398214Y-31085039D01*
X127408766Y-31049735D01*
X127398214Y-31013146D01*
X127398214Y-30778921D01*
X127463201Y-30648947D01*
X127515350Y-30596797D01*
X127645326Y-30531810D01*
X128074911Y-30531810D01*
X128204886Y-30596797D01*
X128257035Y-30648946D01*
X128322023Y-30778922D01*
X128322023Y-31318031D01*
X128257035Y-31448006D01*
X128150783Y-31554259D01*
X128098377Y-31650234D01*
X128108850Y-31796673D01*
X128196832Y-31914203D01*
X128334388Y-31965510D01*
X128477846Y-31934302D01*
X128617113Y-31795035D01*
X128653279Y-31773555D01*
X128684090Y-31711930D01*
X128717099Y-31651480D01*
X128716750Y-31646610D01*
X128789611Y-31500888D01*
X128822023Y-31450455D01*
X128822023Y-31399364D01*
X128831072Y-31349079D01*
X128822023Y-31327261D01*
X128822023Y-30733368D01*
X128828459Y-30673760D01*
X128805608Y-30628058D01*
X128791215Y-30579039D01*
X128773365Y-30563572D01*
X128700124Y-30417088D01*
X128691183Y-30375987D01*
X128642480Y-30327284D01*
X128595555Y-30276837D01*
X128590822Y-30275626D01*
X128551917Y-30236721D01*
X128530436Y-30200554D01*
X128468806Y-30169739D01*
X128408361Y-30136734D01*
X128403491Y-30137082D01*
X128257768Y-30064221D01*
X128207335Y-30031810D01*
X128156241Y-30031810D01*
X128105958Y-30022762D01*
X128084142Y-30031810D01*
X127599773Y-30031810D01*
X127540164Y-30025374D01*
X127494462Y-30048224D01*
X127445443Y-30062618D01*
X127429976Y-30080467D01*
X127283492Y-30153708D01*
X127242390Y-30162650D01*
X127193677Y-30211362D01*
X127143241Y-30258278D01*
X127142031Y-30263009D01*
X127103123Y-30301916D01*
X127066960Y-30323396D01*
X127036156Y-30385002D01*
X127003138Y-30445473D01*
X127003486Y-30450343D01*
X126955032Y-30547251D01*
X126491399Y-30141572D01*
X126491215Y-30140944D01*
X126436268Y-30093332D01*
X126409598Y-30069996D01*
X126409037Y-30069736D01*
X126380261Y-30044802D01*
X126343791Y-30039558D01*
X126310349Y-30024090D01*
X126272632Y-30029327D01*
X126234942Y-30023908D01*
X126201424Y-30039214D01*
X126164931Y-30044282D01*
X126136035Y-30069076D01*
X126101396Y-30084896D01*
X126081474Y-30115894D01*
X126053514Y-30139887D01*
X126042609Y-30176369D01*
X126022023Y-30208403D01*
X126022023Y-30245246D01*
X126011471Y-30280551D01*
X124654429Y-30280551D01*
X124654429Y-27975144D01*
X130361571Y-27975144D01*
X130361571Y-46036571D01*
G37*
D11*
%TO.P,C4,1*%
%TO.N,Net-(U2-PF.5)*%
X32804500Y-62738000D03*
%TO.P,C4,2*%
%TO.N,GND*%
X29679500Y-62738000D03*
%TD*%
D12*
%TO.P,C15,1*%
%TO.N,+3.3VDAC*%
X126556888Y-68072000D03*
D13*
%TO.P,C15,2*%
%TO.N,GND*%
X129056888Y-68072000D03*
%TD*%
D14*
%TO.P,J2,1,Pin_1*%
%TO.N,Net-(J2-Pin_1)*%
X55372000Y-61722000D03*
D15*
%TO.P,J2,2,Pin_2*%
%TO.N,Net-(J2-Pin_2)*%
X52832000Y-61722000D03*
%TO.P,J2,3,Pin_3*%
%TO.N,Net-(J2-Pin_3)*%
X50292000Y-61722000D03*
%TO.P,J2,4,Pin_4*%
%TO.N,Net-(J2-Pin_4)*%
X47752000Y-61722000D03*
%TD*%
D16*
%TO.P,SW1,1*%
%TO.N,GND*%
X49791500Y-83180000D03*
X37291500Y-83180000D03*
%TO.P,SW1,2*%
%TO.N,/KEY1*%
X49791500Y-78180000D03*
X37291500Y-78180000D03*
%TD*%
D14*
%TO.P,J4,1,Pin_1*%
%TO.N,/ICE_DATA*%
X79756000Y-68580000D03*
D15*
%TO.P,J4,2,Pin_2*%
%TO.N,/ICE_CLK*%
X77216000Y-68580000D03*
%TO.P,J4,3,Pin_3*%
%TO.N,Net-(J4-Pin_3)*%
X74676000Y-68580000D03*
%TO.P,J4,4,Pin_4*%
%TO.N,Net-(J4-Pin_4)*%
X72136000Y-68580000D03*
%TO.P,J4,5,Pin_5*%
%TO.N,Net-(J4-Pin_5)*%
X69596000Y-68580000D03*
%TO.P,J4,6,Pin_6*%
%TO.N,Net-(J4-Pin_6)*%
X67056000Y-68580000D03*
%TO.P,J4,7,Pin_7*%
%TO.N,Net-(J4-Pin_7)*%
X64516000Y-68580000D03*
%TO.P,J4,8,Pin_8*%
%TO.N,Net-(J4-Pin_8)*%
X61976000Y-68580000D03*
%TD*%
D17*
%TO.P,C17,1*%
%TO.N,+5V*%
X108419500Y-54610000D03*
%TO.P,C17,2*%
%TO.N,Net-(U6-VS+)*%
X111544500Y-54610000D03*
%TD*%
D18*
%TO.P,AFF1,1,e*%
%TO.N,/E*%
X110998000Y-40132000D03*
D19*
%TO.P,AFF1,2,d*%
%TO.N,/D*%
X113538000Y-40132000D03*
%TO.P,AFF1,3,C.A.*%
%TO.N,/SEG1*%
X116078000Y-40132000D03*
%TO.P,AFF1,4,c*%
%TO.N,/C*%
X118618000Y-40132000D03*
%TO.P,AFF1,5,DP*%
%TO.N,/DP*%
X121158000Y-40132000D03*
%TO.P,AFF1,6,b*%
%TO.N,/B*%
X121158000Y-24892000D03*
%TO.P,AFF1,7,a*%
%TO.N,/A*%
X118618000Y-24892000D03*
%TO.P,AFF1,8,C.A.*%
%TO.N,unconnected-(AFF1-C.A.-Pad8)*%
X116078000Y-24892000D03*
%TO.P,AFF1,9,f*%
%TO.N,/F*%
X113538000Y-24892000D03*
%TO.P,AFF1,10,g*%
%TO.N,/G*%
X110998000Y-24892000D03*
%TD*%
D16*
%TO.P,SW4,1*%
%TO.N,GND*%
X98415500Y-83180000D03*
X85915500Y-83180000D03*
%TO.P,SW4,2*%
%TO.N,/KEY4*%
X98415500Y-78180000D03*
X85915500Y-78180000D03*
%TD*%
D11*
%TO.P,C3,1*%
%TO.N,Net-(U2-PF.4)*%
X32804500Y-65278000D03*
%TO.P,C3,2*%
%TO.N,GND*%
X29679500Y-65278000D03*
%TD*%
D12*
%TO.P,C9,1*%
%TO.N,+5V*%
X122468000Y-48260000D03*
D13*
%TO.P,C9,2*%
%TO.N,GND*%
X124968000Y-48260000D03*
%TD*%
D20*
%TO.P,Y2,1,1*%
%TO.N,/XLOUT*%
X75438000Y-56418000D03*
%TO.P,Y2,2,2*%
%TO.N,/XLIN*%
X75438000Y-53878000D03*
D21*
%TO.P,Y2,3,3*%
%TO.N,GND*%
X84188000Y-55148000D03*
%TD*%
D17*
%TO.P,C20,1*%
%TO.N,GND*%
X108381000Y-63754000D03*
%TO.P,C20,2*%
%TO.N,Net-(U6-VS-)*%
X111506000Y-63754000D03*
%TD*%
D18*
%TO.P,AFF6,1,e*%
%TO.N,/E*%
X44958000Y-40132000D03*
D19*
%TO.P,AFF6,2,d*%
%TO.N,/D*%
X47498000Y-40132000D03*
%TO.P,AFF6,3,C.A.*%
%TO.N,/SEG6*%
X50038000Y-40132000D03*
%TO.P,AFF6,4,c*%
%TO.N,/C*%
X52578000Y-40132000D03*
%TO.P,AFF6,5,DP*%
%TO.N,/DP*%
X55118000Y-40132000D03*
%TO.P,AFF6,6,b*%
%TO.N,/B*%
X55118000Y-24892000D03*
%TO.P,AFF6,7,a*%
%TO.N,/A*%
X52578000Y-24892000D03*
%TO.P,AFF6,8,C.A.*%
%TO.N,unconnected-(AFF6-C.A.-Pad8)*%
X50038000Y-24892000D03*
%TO.P,AFF6,9,f*%
%TO.N,/F*%
X47498000Y-24892000D03*
%TO.P,AFF6,10,g*%
%TO.N,/G*%
X44958000Y-24892000D03*
%TD*%
D14*
%TO.P,J1,1,Pin_1*%
%TO.N,GND*%
X37338000Y-72390000D03*
D15*
%TO.P,J1,2,Pin_2*%
%TO.N,/KEY1*%
X39878000Y-72390000D03*
%TO.P,J1,3,Pin_3*%
%TO.N,/KEY2*%
X42418000Y-72390000D03*
%TO.P,J1,4,Pin_4*%
%TO.N,/KEY3*%
X44958000Y-72390000D03*
%TO.P,J1,5,Pin_5*%
%TO.N,/KEY4*%
X47498000Y-72390000D03*
%TD*%
D17*
%TO.P,C13,1*%
%TO.N,Net-(U6-C1+)*%
X108419500Y-57912000D03*
%TO.P,C13,2*%
%TO.N,Net-(U6-C1-)*%
X111544500Y-57912000D03*
%TD*%
D22*
%TO.P,C10,1*%
%TO.N,GND*%
X123444000Y-57442500D03*
%TO.P,C10,2*%
%TO.N,+5V*%
X123444000Y-54317500D03*
%TD*%
D12*
%TO.P,C19,1*%
%TO.N,+5V*%
X104140000Y-59690000D03*
D13*
%TO.P,C19,2*%
%TO.N,GND*%
X101640000Y-59690000D03*
%TD*%
D18*
%TO.P,AFF7,1,e*%
%TO.N,/E*%
X31750000Y-40132000D03*
D19*
%TO.P,AFF7,2,d*%
%TO.N,/D*%
X34290000Y-40132000D03*
%TO.P,AFF7,3,C.A.*%
%TO.N,/SEG7*%
X36830000Y-40132000D03*
%TO.P,AFF7,4,c*%
%TO.N,/C*%
X39370000Y-40132000D03*
%TO.P,AFF7,5,DP*%
%TO.N,/DP*%
X41910000Y-40132000D03*
%TO.P,AFF7,6,b*%
%TO.N,/B*%
X41910000Y-24892000D03*
%TO.P,AFF7,7,a*%
%TO.N,/A*%
X39370000Y-24892000D03*
%TO.P,AFF7,8,C.A.*%
%TO.N,unconnected-(AFF7-C.A.-Pad8)*%
X36830000Y-24892000D03*
%TO.P,AFF7,9,f*%
%TO.N,/F*%
X34290000Y-24892000D03*
%TO.P,AFF7,10,g*%
%TO.N,/G*%
X31750000Y-24892000D03*
%TD*%
D18*
%TO.P,AFF3,1,e*%
%TO.N,/E*%
X84582000Y-40132000D03*
D19*
%TO.P,AFF3,2,d*%
%TO.N,/D*%
X87122000Y-40132000D03*
%TO.P,AFF3,3,C.A.*%
%TO.N,/SEG3*%
X89662000Y-40132000D03*
%TO.P,AFF3,4,c*%
%TO.N,/C*%
X92202000Y-40132000D03*
%TO.P,AFF3,5,DP*%
%TO.N,/DP*%
X94742000Y-40132000D03*
%TO.P,AFF3,6,b*%
%TO.N,/B*%
X94742000Y-24892000D03*
%TO.P,AFF3,7,a*%
%TO.N,/A*%
X92202000Y-24892000D03*
%TO.P,AFF3,8,C.A.*%
%TO.N,unconnected-(AFF3-C.A.-Pad8)*%
X89662000Y-24892000D03*
%TO.P,AFF3,9,f*%
%TO.N,/F*%
X87122000Y-24892000D03*
%TO.P,AFF3,10,g*%
%TO.N,/G*%
X84582000Y-24892000D03*
%TD*%
D23*
%TO.P,U6,1,C1+*%
%TO.N,Net-(U6-C1+)*%
X114808000Y-55626000D03*
%TO.P,U6,2,VS+*%
%TO.N,Net-(U6-VS+)*%
X114808000Y-56896000D03*
%TO.P,U6,3,C1-*%
%TO.N,Net-(U6-C1-)*%
X114808000Y-58166000D03*
%TO.P,U6,4,C2+*%
%TO.N,Net-(U6-C2+)*%
X114808000Y-59436000D03*
%TO.P,U6,5,C2-*%
%TO.N,Net-(U6-C2-)*%
X114808000Y-60706000D03*
%TO.P,U6,6,VS-*%
%TO.N,Net-(U6-VS-)*%
X114808000Y-61976000D03*
%TO.P,U6,7,T2OUT*%
%TO.N,/txd*%
X114808000Y-63246000D03*
%TO.P,U6,8,R2IN*%
%TO.N,/rxd*%
X114808000Y-64516000D03*
%TO.P,U6,9,R2OUT*%
%TO.N,/rxd_TTL*%
X119958000Y-64516000D03*
%TO.P,U6,10,T2IN*%
%TO.N,/txd_TTL*%
X119958000Y-63246000D03*
%TO.P,U6,11,T1IN*%
%TO.N,/U0TXD*%
X119958000Y-61976000D03*
%TO.P,U6,12,R1OUT*%
%TO.N,/U0RXD*%
X119958000Y-60706000D03*
%TO.P,U6,13,R1IN*%
%TO.N,/rxd1*%
X119958000Y-59436000D03*
%TO.P,U6,14,T1OUT*%
%TO.N,/txd1*%
X119958000Y-58166000D03*
%TO.P,U6,15,GND*%
%TO.N,GND*%
X119958000Y-56896000D03*
%TO.P,U6,16,VCC*%
%TO.N,+5V*%
X119958000Y-55626000D03*
%TD*%
D12*
%TO.P,C23,1*%
%TO.N,Net-(D4-A)*%
X121452000Y-72644000D03*
D13*
%TO.P,C23,2*%
%TO.N,GND*%
X123952000Y-72644000D03*
%TD*%
D24*
%TO.P,,*%
%TO.N,*%
X25146000Y-23114000D03*
%TD*%
D11*
%TO.P,C14,1*%
%TO.N,Net-(U6-C2-)*%
X111506000Y-60960000D03*
%TO.P,C14,2*%
%TO.N,Net-(U6-C2+)*%
X108381000Y-60960000D03*
%TD*%
D24*
%TO.P,,*%
%TO.N,*%
X127254000Y-22860000D03*
%TD*%
D25*
%TO.P,,*%
%TO.N,*%
X127254000Y-81280000D03*
%TD*%
D14*
%TO.P,J3,1,Pin_1*%
%TO.N,+5V*%
X82296000Y-71882000D03*
D15*
%TO.P,J3,2,Pin_2*%
%TO.N,/ICE_DATA*%
X79756000Y-71882000D03*
%TO.P,J3,3,Pin_3*%
%TO.N,/ICE_CLK*%
X77216000Y-71882000D03*
%TO.P,J3,4,Pin_4*%
%TO.N,/RST*%
X74676000Y-71882000D03*
%TO.P,J3,5,Pin_5*%
%TO.N,GND*%
X72136000Y-71882000D03*
%TD*%
D26*
%TO.P,J6,1,Pin_1*%
%TO.N,Net-(D4-A)*%
X110744000Y-85090000D03*
D27*
%TO.P,J6,2,Pin_2*%
%TO.N,GND*%
X115824000Y-85090000D03*
%TD*%
D14*
%TO.P,J5,1,Pin_1*%
%TO.N,/txd*%
X128778000Y-57912000D03*
D15*
%TO.P,J5,2,Pin_2*%
%TO.N,/rxd*%
X128778000Y-60452000D03*
%TO.P,J5,3,Pin_3*%
%TO.N,GND*%
X128778000Y-62992000D03*
%TD*%
D18*
%TO.P,AFF4,1,e*%
%TO.N,/E*%
X71374000Y-40132000D03*
D19*
%TO.P,AFF4,2,d*%
%TO.N,/D*%
X73914000Y-40132000D03*
%TO.P,AFF4,3,C.A.*%
%TO.N,/SEG4*%
X76454000Y-40132000D03*
%TO.P,AFF4,4,c*%
%TO.N,/C*%
X78994000Y-40132000D03*
%TO.P,AFF4,5,DP*%
%TO.N,/DP*%
X81534000Y-40132000D03*
%TO.P,AFF4,6,b*%
%TO.N,/B*%
X81534000Y-24892000D03*
%TO.P,AFF4,7,a*%
%TO.N,/A*%
X78994000Y-24892000D03*
%TO.P,AFF4,8,C.A.*%
%TO.N,unconnected-(AFF4-C.A.-Pad8)*%
X76454000Y-24892000D03*
%TO.P,AFF4,9,f*%
%TO.N,/F*%
X73914000Y-24892000D03*
%TO.P,AFF4,10,g*%
%TO.N,/G*%
X71374000Y-24892000D03*
%TD*%
D16*
%TO.P,SW3,1*%
%TO.N,GND*%
X82159500Y-83180000D03*
X69659500Y-83180000D03*
%TO.P,SW3,2*%
%TO.N,/KEY3*%
X82159500Y-78180000D03*
X69659500Y-78180000D03*
%TD*%
%TO.P,SW2,1*%
%TO.N,GND*%
X65903500Y-83180000D03*
X53403500Y-83180000D03*
%TO.P,SW2,2*%
%TO.N,/KEY2*%
X65903500Y-78180000D03*
X53403500Y-78180000D03*
%TD*%
D28*
%TO.P,J8,1,Pin_1*%
%TO.N,Net-(D4-A)*%
X114580000Y-76094000D03*
D29*
%TO.P,J8,2,Pin_2*%
%TO.N,GND*%
X114580000Y-82394000D03*
D30*
%TO.P,J8,3,Pin_3*%
X119380000Y-78994000D03*
%TD*%
D31*
%TO.P,Y1,1,1*%
%TO.N,Net-(U2-PF.5)*%
X36522000Y-64516000D03*
%TO.P,Y1,2,2*%
%TO.N,Net-(U2-PF.4)*%
X41402000Y-64516000D03*
%TD*%
D14*
%TO.P,J7,1,Pin_1*%
%TO.N,/txd1*%
X128778000Y-49037000D03*
D15*
%TO.P,J7,2,Pin_2*%
%TO.N,/rxd1*%
X128778000Y-51577000D03*
%TO.P,J7,3,Pin_3*%
%TO.N,GND*%
X128778000Y-54117000D03*
%TD*%
D18*
%TO.P,AFF5,1,e*%
%TO.N,/E*%
X58166000Y-40132000D03*
D19*
%TO.P,AFF5,2,d*%
%TO.N,/D*%
X60706000Y-40132000D03*
%TO.P,AFF5,3,C.A.*%
%TO.N,/SEG5*%
X63246000Y-40132000D03*
%TO.P,AFF5,4,c*%
%TO.N,/C*%
X65786000Y-40132000D03*
%TO.P,AFF5,5,DP*%
%TO.N,/DP*%
X68326000Y-40132000D03*
%TO.P,AFF5,6,b*%
%TO.N,/B*%
X68326000Y-24892000D03*
%TO.P,AFF5,7,a*%
%TO.N,/A*%
X65786000Y-24892000D03*
%TO.P,AFF5,8,C.A.*%
%TO.N,unconnected-(AFF5-C.A.-Pad8)*%
X63246000Y-24892000D03*
%TO.P,AFF5,9,f*%
%TO.N,/F*%
X60706000Y-24892000D03*
%TO.P,AFF5,10,g*%
%TO.N,/G*%
X58166000Y-24892000D03*
%TD*%
D18*
%TO.P,AFF2,1,e*%
%TO.N,/E*%
X97790000Y-40132000D03*
D19*
%TO.P,AFF2,2,d*%
%TO.N,/D*%
X100330000Y-40132000D03*
%TO.P,AFF2,3,C.A.*%
%TO.N,/SEG2*%
X102870000Y-40132000D03*
%TO.P,AFF2,4,c*%
%TO.N,/C*%
X105410000Y-40132000D03*
%TO.P,AFF2,5,DP*%
%TO.N,/DP*%
X107950000Y-40132000D03*
%TO.P,AFF2,6,b*%
%TO.N,/B*%
X107950000Y-24892000D03*
%TO.P,AFF2,7,a*%
%TO.N,/A*%
X105410000Y-24892000D03*
%TO.P,AFF2,8,C.A.*%
%TO.N,unconnected-(AFF2-C.A.-Pad8)*%
X102870000Y-24892000D03*
%TO.P,AFF2,9,f*%
%TO.N,/F*%
X100330000Y-24892000D03*
%TO.P,AFF2,10,g*%
%TO.N,/G*%
X97790000Y-24892000D03*
%TD*%
D12*
%TO.P,C5,1*%
%TO.N,+3.3VDAC*%
X92496000Y-72136000D03*
D13*
%TO.P,C5,2*%
%TO.N,GND*%
X94996000Y-72136000D03*
%TD*%
D25*
%TO.P,,*%
%TO.N,*%
X25400000Y-81280000D03*
%TD*%
D32*
%TO.P,BT1,1,+*%
%TO.N,Net-(BT1-+)*%
X43942000Y-58166000D03*
D33*
%TO.P,BT1,2,-*%
%TO.N,GND*%
X23452000Y-58166000D03*
%TD*%
D34*
%TO.N,/DP*%
X46228000Y-35814000D03*
X42672000Y-35814000D03*
%TO.N,/B*%
X69596000Y-44958000D03*
%TO.N,/A*%
X73660000Y-45974000D03*
%TO.N,/F*%
X58674000Y-46228000D03*
%TO.N,/SEG6*%
X50292000Y-47244000D03*
X75438000Y-45974000D03*
%TO.N,/SEG7*%
X77216000Y-46228000D03*
X37084000Y-46736000D03*
%TO.N,Net-(BT1-+)*%
X62992000Y-58674000D03*
%TO.N,GND*%
X91948000Y-58674000D03*
X123952000Y-56642000D03*
X79502000Y-55118000D03*
X86614000Y-65278000D03*
%TO.N,+3.3VDAC*%
X73406000Y-62992000D03*
%TO.N,/txd_TTL*%
X80010000Y-49784000D03*
X117348000Y-47498000D03*
%TO.N,/rxd_TTL*%
X81788000Y-49784000D03*
X117348000Y-52578000D03*
%TO.N,/A0_HC238*%
X62992000Y-57150000D03*
X86360000Y-52578000D03*
%TO.N,/A1_HC238*%
X62992000Y-55880000D03*
X89408000Y-52324000D03*
%TO.N,/A2_HC238*%
X91948000Y-52578000D03*
X62992000Y-54610000D03*
%TO.N,/W_CLK*%
X75438000Y-61468000D03*
X73152000Y-59436000D03*
%TO.N,/U0TXD*%
X54610000Y-53340000D03*
X107188000Y-47498000D03*
X122682000Y-63500000D03*
%TO.N,/U0RXD*%
X107188000Y-45974000D03*
X54610000Y-52070000D03*
X122936000Y-61468000D03*
%TO.N,Net-(U2-PF.4)*%
X66040000Y-59690000D03*
%TO.N,Net-(U2-PF.5)*%
X64770000Y-58928000D03*
%TO.N,+5V*%
X105410000Y-70866000D03*
X54356000Y-58674000D03*
X92710000Y-56134000D03*
X98552000Y-69850000D03*
X97536000Y-55880000D03*
X119380000Y-54864000D03*
%TD*%
D35*
%TO.N,/D*%
X34290000Y-40132000D02*
X34290000Y-34798000D01*
X47498000Y-40132000D02*
X47498000Y-34036000D01*
X100330000Y-40132000D02*
X100330000Y-34036000D01*
X73914000Y-34036000D02*
X87122000Y-34036000D01*
X73914000Y-40132000D02*
X73914000Y-34036000D01*
X35052000Y-34036000D02*
X47498000Y-34036000D01*
X60706000Y-34036000D02*
X73914000Y-34036000D01*
X100330000Y-34036000D02*
X112014000Y-34036000D01*
X87122000Y-40132000D02*
X87122000Y-34036000D01*
X47498000Y-34036000D02*
X60706000Y-34036000D01*
X112014000Y-34036000D02*
X113538000Y-35560000D01*
X113538000Y-35560000D02*
X113538000Y-40132000D01*
X34290000Y-34798000D02*
X35052000Y-34036000D01*
X87122000Y-34036000D02*
X100330000Y-34036000D01*
X60706000Y-40132000D02*
X60706000Y-34036000D01*
%TO.N,/C*%
X96520000Y-42672000D02*
X105156000Y-42672000D01*
X56134000Y-37592000D02*
X56642000Y-38100000D01*
X92202000Y-40132000D02*
X92202000Y-38100000D01*
X92202000Y-41910000D02*
X92202000Y-40132000D01*
X65278000Y-42672000D02*
X65786000Y-42164000D01*
X79502000Y-37846000D02*
X82804000Y-37846000D01*
X83058000Y-41910000D02*
X83566000Y-42418000D01*
X52578000Y-40132000D02*
X52578000Y-38608000D01*
X68834000Y-37592000D02*
X69850000Y-38608000D01*
X105410000Y-40132000D02*
X105410000Y-38608000D01*
X69850000Y-41656000D02*
X70739000Y-42545000D01*
X53594000Y-37592000D02*
X56134000Y-37592000D01*
X52578000Y-38608000D02*
X53594000Y-37592000D01*
X118618000Y-41910000D02*
X118618000Y-40132000D01*
X83566000Y-42418000D02*
X91694000Y-42418000D01*
X105410000Y-38608000D02*
X106172000Y-37846000D01*
X105410000Y-42418000D02*
X105410000Y-40132000D01*
X65786000Y-42164000D02*
X65786000Y-40132000D01*
X39370000Y-40132000D02*
X39370000Y-38608000D01*
X70739000Y-42545000D02*
X78613000Y-42545000D01*
X78994000Y-42164000D02*
X78994000Y-40132000D01*
X56896000Y-42672000D02*
X65278000Y-42672000D01*
X109220000Y-37846000D02*
X109474000Y-38100000D01*
X82804000Y-37846000D02*
X83058000Y-38100000D01*
X118110000Y-42418000D02*
X118618000Y-41910000D01*
X40386000Y-37592000D02*
X42926000Y-37592000D01*
X109474000Y-38100000D02*
X109474000Y-41656000D01*
X78994000Y-38354000D02*
X79502000Y-37846000D01*
X43688000Y-42672000D02*
X52070000Y-42672000D01*
X65786000Y-40132000D02*
X65786000Y-38354000D01*
X52070000Y-42672000D02*
X52578000Y-42164000D01*
X78613000Y-42545000D02*
X78994000Y-42164000D01*
X39370000Y-38608000D02*
X40386000Y-37592000D01*
X91694000Y-42418000D02*
X92202000Y-41910000D01*
X83058000Y-38100000D02*
X83058000Y-41910000D01*
X96266000Y-42418000D02*
X96520000Y-42672000D01*
X96266000Y-38100000D02*
X96266000Y-42418000D01*
X109474000Y-41656000D02*
X110236000Y-42418000D01*
X92202000Y-38100000D02*
X92456000Y-37846000D01*
X42926000Y-37592000D02*
X43434000Y-38100000D01*
X92456000Y-37846000D02*
X96012000Y-37846000D01*
X110236000Y-42418000D02*
X118110000Y-42418000D01*
X78994000Y-40132000D02*
X78994000Y-38354000D01*
X43434000Y-42418000D02*
X43688000Y-42672000D01*
X43434000Y-38100000D02*
X43434000Y-42418000D01*
X56642000Y-42418000D02*
X56896000Y-42672000D01*
X106172000Y-37846000D02*
X109220000Y-37846000D01*
X69850000Y-38608000D02*
X69850000Y-41656000D01*
X66548000Y-37592000D02*
X68834000Y-37592000D01*
X65786000Y-38354000D02*
X66548000Y-37592000D01*
X96012000Y-37846000D02*
X96266000Y-38100000D01*
X56642000Y-38100000D02*
X56642000Y-42418000D01*
X105156000Y-42672000D02*
X105410000Y-42418000D01*
X52578000Y-42164000D02*
X52578000Y-40132000D01*
%TO.N,/DP*%
X41910000Y-40132000D02*
X41910000Y-42672000D01*
X68326000Y-43688000D02*
X81534000Y-43688000D01*
X55118000Y-43688000D02*
X68326000Y-43688000D01*
X41910000Y-42672000D02*
X42926000Y-43688000D01*
X94742000Y-40132000D02*
X94742000Y-43688000D01*
X119888000Y-43688000D02*
X121158000Y-42418000D01*
X42672000Y-35814000D02*
X46228000Y-35814000D01*
X81534000Y-43688000D02*
X94742000Y-43688000D01*
X121158000Y-42418000D02*
X121158000Y-40132000D01*
X68326000Y-40132000D02*
X68326000Y-43688000D01*
X107950000Y-40132000D02*
X107950000Y-43688000D01*
X94742000Y-43688000D02*
X107950000Y-43688000D01*
X55118000Y-40132000D02*
X55118000Y-43688000D01*
X81534000Y-40132000D02*
X81534000Y-43688000D01*
X42926000Y-43688000D02*
X55118000Y-43688000D01*
X107950000Y-43688000D02*
X119888000Y-43688000D01*
%TO.N,/B*%
X123698000Y-42418000D02*
X123698000Y-30480000D01*
X121158000Y-44958000D02*
X123698000Y-42418000D01*
X121158000Y-27940000D02*
X121158000Y-24892000D01*
X123698000Y-30480000D02*
X121158000Y-27940000D01*
X69596000Y-44958000D02*
X121158000Y-44958000D01*
%TO.N,/A*%
X52578000Y-24892000D02*
X52578000Y-28956000D01*
X92202000Y-28956000D02*
X105410000Y-28956000D01*
X30734000Y-33274000D02*
X33782000Y-33274000D01*
X40132000Y-43434000D02*
X30480000Y-43434000D01*
X39370000Y-27432000D02*
X39370000Y-24892000D01*
X118618000Y-27432000D02*
X118618000Y-24892000D01*
X67056000Y-44704000D02*
X41402000Y-44704000D01*
X70104000Y-46482000D02*
X73152000Y-46482000D01*
X29718000Y-42672000D02*
X29718000Y-34290000D01*
X65786000Y-28956000D02*
X78994000Y-28956000D01*
X29718000Y-34290000D02*
X30734000Y-33274000D01*
X92202000Y-24892000D02*
X92202000Y-28956000D01*
X117094000Y-28956000D02*
X118618000Y-27432000D01*
X41402000Y-44704000D02*
X40132000Y-43434000D01*
X78994000Y-28956000D02*
X92202000Y-28956000D01*
X65786000Y-24892000D02*
X65786000Y-28956000D01*
X73152000Y-46482000D02*
X73660000Y-45974000D01*
X68834000Y-46482000D02*
X67056000Y-44704000D01*
X30480000Y-43434000D02*
X29718000Y-42672000D01*
X105410000Y-24892000D02*
X105410000Y-28956000D01*
X105410000Y-28956000D02*
X117094000Y-28956000D01*
X33782000Y-33274000D02*
X39370000Y-27686000D01*
X40894000Y-28956000D02*
X52578000Y-28956000D01*
X70104000Y-46482000D02*
X68834000Y-46482000D01*
X70612000Y-46482000D02*
X70104000Y-46482000D01*
D36*
X70612000Y-46482000D02*
X73152000Y-46482000D01*
D35*
X39370000Y-27686000D02*
X39370000Y-27432000D01*
X52578000Y-28956000D02*
X65786000Y-28956000D01*
X40894000Y-28956000D02*
X39370000Y-27432000D01*
X78994000Y-24892000D02*
X78994000Y-28956000D01*
%TO.N,/F*%
X34290000Y-24892000D02*
X34290000Y-30734000D01*
X29464000Y-31750000D02*
X28448000Y-32766000D01*
X28448000Y-43942000D02*
X29718000Y-45212000D01*
X28448000Y-32766000D02*
X28448000Y-43942000D01*
X33274000Y-31750000D02*
X29464000Y-31750000D01*
X34290000Y-30734000D02*
X33274000Y-31750000D01*
X40640000Y-45974000D02*
X58420000Y-45974000D01*
X58420000Y-45974000D02*
X58674000Y-46228000D01*
X29718000Y-45212000D02*
X39878000Y-45212000D01*
X39878000Y-45212000D02*
X40640000Y-45974000D01*
%TO.N,/G*%
X71374000Y-21336000D02*
X84582000Y-21336000D01*
X32512000Y-21336000D02*
X44958000Y-21336000D01*
X71374000Y-21336000D02*
X71374000Y-24892000D01*
X97790000Y-21336000D02*
X110490000Y-21336000D01*
X84582000Y-21336000D02*
X97790000Y-21336000D01*
X58166000Y-21336000D02*
X71374000Y-21336000D01*
X44958000Y-21336000D02*
X44958000Y-24892000D01*
X84582000Y-21336000D02*
X84582000Y-24892000D01*
X110490000Y-21336000D02*
X110998000Y-21844000D01*
X31750000Y-24892000D02*
X31750000Y-22098000D01*
X110998000Y-21844000D02*
X110998000Y-24892000D01*
X58166000Y-21336000D02*
X58166000Y-24892000D01*
X44958000Y-21336000D02*
X58166000Y-21336000D01*
X31750000Y-22098000D02*
X32512000Y-21336000D01*
X97790000Y-21336000D02*
X97790000Y-24892000D01*
D37*
%TO.N,/SEG6*%
X75438000Y-47244000D02*
X75438000Y-45974000D01*
X50292000Y-47244000D02*
X50546000Y-47498000D01*
X75184000Y-47498000D02*
X75438000Y-47244000D01*
X50546000Y-47498000D02*
X75184000Y-47498000D01*
%TO.N,/SEG7*%
X37592000Y-47244000D02*
X37084000Y-46736000D01*
X47752000Y-47244000D02*
X37592000Y-47244000D01*
X77216000Y-46228000D02*
X77216000Y-47244000D01*
X77216000Y-47244000D02*
X76200000Y-48260000D01*
X76200000Y-48260000D02*
X48768000Y-48260000D01*
X48768000Y-48260000D02*
X47752000Y-47244000D01*
D38*
%TO.N,Net-(BT1-+)*%
X61976000Y-58674000D02*
X62992000Y-58674000D01*
X43942000Y-57150000D02*
X45720000Y-55372000D01*
X43942000Y-58166000D02*
X43942000Y-57150000D01*
X58674000Y-55372000D02*
X61976000Y-58674000D01*
X45720000Y-55372000D02*
X58674000Y-55372000D01*
%TO.N,GND*%
X123952000Y-72644000D02*
X123952000Y-69850000D01*
X108458000Y-66040000D02*
X108458000Y-63831000D01*
X37338000Y-72390000D02*
X36322000Y-72390000D01*
D39*
X23452000Y-61976000D02*
X23452000Y-62738000D01*
D38*
X29679500Y-62738000D02*
X23452000Y-62738000D01*
X94996000Y-72136000D02*
X94996000Y-66548000D01*
X91948000Y-58674000D02*
X88422000Y-55148000D01*
D39*
X26416000Y-73914000D02*
X33274000Y-73914000D01*
X23452000Y-60960000D02*
X23452000Y-61976000D01*
D35*
X23452000Y-60960000D02*
X23452000Y-62060000D01*
D38*
X113030000Y-69342000D02*
X111760000Y-69342000D01*
D39*
X33274000Y-73914000D02*
X33274000Y-81026000D01*
D40*
X103124000Y-73406000D02*
X111760000Y-73406000D01*
D38*
X111760000Y-69342000D02*
X108458000Y-66040000D01*
D35*
X122466500Y-57442500D02*
X121920000Y-56896000D01*
D38*
X123952000Y-69850000D02*
X123444000Y-69342000D01*
D39*
X114046000Y-80010000D02*
X114580000Y-80544000D01*
D35*
X23452000Y-58166000D02*
X23452000Y-60960000D01*
D38*
X88422000Y-55148000D02*
X84188000Y-55148000D01*
D39*
X114580000Y-80544000D02*
X114580000Y-82394000D01*
D38*
X101640000Y-59690000D02*
X94996000Y-59690000D01*
D35*
X123444000Y-57442500D02*
X123444000Y-57404000D01*
X87884000Y-65278000D02*
X94996000Y-65278000D01*
D39*
X35428000Y-83180000D02*
X37291500Y-83180000D01*
D35*
X86614000Y-65278000D02*
X87376000Y-65278000D01*
D38*
X94996000Y-59690000D02*
X94996000Y-58674000D01*
D39*
X98415500Y-83180000D02*
X101732000Y-83180000D01*
D38*
X29679500Y-65278000D02*
X29679500Y-62738000D01*
D39*
X104902000Y-80010000D02*
X114046000Y-80010000D01*
D35*
X121920000Y-56896000D02*
X119958000Y-56896000D01*
D39*
X33274000Y-72390000D02*
X36322000Y-72390000D01*
X101732000Y-83180000D02*
X104902000Y-80010000D01*
D40*
X111760000Y-73406000D02*
X113030000Y-72136000D01*
D38*
X94996000Y-65278000D02*
X94996000Y-59690000D01*
X91948000Y-58674000D02*
X94996000Y-58674000D01*
D39*
X23452000Y-70950000D02*
X26416000Y-73914000D01*
D38*
X108458000Y-63831000D02*
X108381000Y-63754000D01*
D40*
X101854000Y-72136000D02*
X103124000Y-73406000D01*
D39*
X33274000Y-72390000D02*
X33274000Y-73914000D01*
D38*
X94996000Y-66548000D02*
X94996000Y-65278000D01*
D40*
X94996000Y-72136000D02*
X101854000Y-72136000D01*
D35*
X123444000Y-57404000D02*
X122466500Y-57442500D01*
D40*
X113030000Y-72136000D02*
X113030000Y-69342000D01*
D35*
X86614000Y-65278000D02*
X91440000Y-65278000D01*
D38*
X123444000Y-69342000D02*
X113030000Y-69342000D01*
D36*
X87884000Y-65278000D02*
X87376000Y-65278000D01*
D35*
X123444000Y-57442500D02*
X123952000Y-56642000D01*
D39*
X37338000Y-72390000D02*
X33274000Y-72390000D01*
X23452000Y-62738000D02*
X23452000Y-70950000D01*
X33274000Y-81026000D02*
X35428000Y-83180000D01*
X23452000Y-61976000D02*
X23452000Y-58166000D01*
D35*
%TO.N,+3.3VDAC*%
X73406000Y-62992000D02*
X81026000Y-62992000D01*
X81026000Y-62992000D02*
X90170000Y-72136000D01*
X92496000Y-72136000D02*
X90170000Y-72136000D01*
%TO.N,/txd_TTL*%
X110998000Y-48514000D02*
X113792000Y-48514000D01*
D37*
X118364000Y-62992000D02*
X118364000Y-48514000D01*
X110998000Y-48514000D02*
X80772000Y-48514000D01*
X119958000Y-63246000D02*
X118618000Y-63246000D01*
D35*
X115062000Y-47244000D02*
X117094000Y-47244000D01*
X117094000Y-47244000D02*
X117348000Y-47498000D01*
X113792000Y-48514000D02*
X115062000Y-47244000D01*
D37*
X118618000Y-63246000D02*
X118364000Y-62992000D01*
X118364000Y-48514000D02*
X117348000Y-47498000D01*
X80010000Y-49276000D02*
X80010000Y-49784000D01*
X80772000Y-48514000D02*
X80010000Y-49276000D01*
D35*
%TO.N,/rxd_TTL*%
X117348000Y-52287500D02*
X117348000Y-52832000D01*
X117348000Y-64008000D02*
X117856000Y-64516000D01*
X117348000Y-53848000D02*
X117348000Y-64008000D01*
X117856000Y-64516000D02*
X119958000Y-64516000D01*
X117348000Y-52578000D02*
X117348000Y-52287500D01*
X117348000Y-52832000D02*
X117348000Y-53848000D01*
D37*
X117348000Y-52832000D02*
X117094000Y-53086000D01*
X117348000Y-53848000D02*
X117348000Y-52578000D01*
X117094000Y-53086000D02*
X113030000Y-53086000D01*
X109728000Y-49784000D02*
X81788000Y-49784000D01*
X113030000Y-53086000D02*
X109728000Y-49784000D01*
%TO.N,/A0_HC238*%
X66421000Y-52451000D02*
X86233000Y-52451000D01*
X64516000Y-57150000D02*
X65024000Y-56642000D01*
X86233000Y-52451000D02*
X86360000Y-52578000D01*
X65024000Y-53848000D02*
X66421000Y-52451000D01*
X65024000Y-56642000D02*
X65024000Y-53848000D01*
X62992000Y-57150000D02*
X64516000Y-57150000D01*
%TO.N,/A1_HC238*%
X88646000Y-51562000D02*
X66040000Y-51562000D01*
X64008000Y-55372000D02*
X63500000Y-55372000D01*
X66040000Y-51562000D02*
X64262000Y-53340000D01*
X63500000Y-55372000D02*
X62992000Y-55880000D01*
X64262000Y-55118000D02*
X64008000Y-55372000D01*
X64262000Y-53340000D02*
X64262000Y-55118000D01*
X89408000Y-52324000D02*
X88646000Y-51562000D01*
%TO.N,/A2_HC238*%
X65532000Y-50800000D02*
X91694000Y-50800000D01*
X62992000Y-54610000D02*
X62992000Y-53340000D01*
X91694000Y-50800000D02*
X91948000Y-51054000D01*
X62992000Y-53340000D02*
X65532000Y-50800000D01*
X91948000Y-51054000D02*
X91948000Y-52578000D01*
%TO.N,/W_CLK*%
X75438000Y-61468000D02*
X73152000Y-59436000D01*
D38*
%TO.N,/KEY4*%
X70612000Y-73660000D02*
X71882000Y-74930000D01*
X98415500Y-78180000D02*
X85915500Y-78180000D01*
X85915500Y-75755500D02*
X85915500Y-78180000D01*
X47498000Y-72390000D02*
X48768000Y-73660000D01*
X71882000Y-74930000D02*
X85090000Y-74930000D01*
X85090000Y-74930000D02*
X85915500Y-75755500D01*
X48768000Y-73660000D02*
X70612000Y-73660000D01*
%TO.N,/KEY3*%
X67171500Y-75692000D02*
X69659500Y-78180000D01*
X46228000Y-75692000D02*
X67171500Y-75692000D01*
D35*
X44958000Y-73914000D02*
X44958000Y-74422000D01*
D38*
X44958000Y-72390000D02*
X44958000Y-73914000D01*
X82159500Y-78180000D02*
X69659500Y-78180000D01*
X44958000Y-74422000D02*
X46228000Y-75692000D01*
%TO.N,/KEY2*%
X42418000Y-79756000D02*
X43434000Y-80772000D01*
X53403500Y-79756000D02*
X53403500Y-78180000D01*
X65903500Y-78180000D02*
X53403500Y-78180000D01*
X52387500Y-80772000D02*
X53403500Y-79756000D01*
X42418000Y-72390000D02*
X42418000Y-79756000D01*
X43434000Y-80772000D02*
X52387500Y-80772000D01*
D35*
%TO.N,/U0TXD*%
X121158000Y-61976000D02*
X122682000Y-63500000D01*
D37*
X107188000Y-47498000D02*
X80518000Y-47498000D01*
X78232000Y-49784000D02*
X64262000Y-49784000D01*
X78232000Y-49784000D02*
X80518000Y-47498000D01*
X60706000Y-53340000D02*
X64262000Y-49784000D01*
D35*
X119958000Y-61976000D02*
X121158000Y-61976000D01*
D37*
X54610000Y-53340000D02*
X60706000Y-53340000D01*
D35*
%TO.N,/U0RXD*%
X122174000Y-61468000D02*
X122936000Y-61468000D01*
D37*
X106426000Y-46736000D02*
X107188000Y-45974000D01*
X60452000Y-52070000D02*
X63500000Y-49022000D01*
X54610000Y-52070000D02*
X60452000Y-52070000D01*
D35*
X120904000Y-60706000D02*
X121158000Y-60706000D01*
X119958000Y-60706000D02*
X120904000Y-60706000D01*
D37*
X80010000Y-46736000D02*
X106426000Y-46736000D01*
D35*
X121412000Y-60706000D02*
X122174000Y-61468000D01*
D37*
X63500000Y-49022000D02*
X77724000Y-49022000D01*
D35*
X120904000Y-60706000D02*
X121412000Y-60706000D01*
D37*
X121158000Y-60706000D02*
X121412000Y-60706000D01*
X77724000Y-49022000D02*
X80010000Y-46736000D01*
D35*
%TO.N,/txd*%
X127000000Y-59690000D02*
X127000000Y-58420000D01*
X127000000Y-58420000D02*
X127508000Y-57912000D01*
X116332000Y-64008000D02*
X116332000Y-65278000D01*
X114808000Y-63246000D02*
X115570000Y-63246000D01*
X116332000Y-64008000D02*
X115570000Y-63246000D01*
X125476000Y-61214000D02*
X127000000Y-59690000D01*
X123444000Y-66548000D02*
X125476000Y-64516000D01*
X127508000Y-57912000D02*
X128778000Y-57912000D01*
X125476000Y-64516000D02*
X125476000Y-61214000D01*
X116332000Y-65278000D02*
X117602000Y-66548000D01*
X117602000Y-66548000D02*
X123444000Y-66548000D01*
%TO.N,/rxd*%
X126492000Y-65278000D02*
X126492000Y-61976000D01*
X126492000Y-61976000D02*
X128016000Y-60452000D01*
X124206000Y-67564000D02*
X126492000Y-65278000D01*
X114808000Y-64516000D02*
X114808000Y-65786000D01*
X116586000Y-67564000D02*
X124206000Y-67564000D01*
X128016000Y-60452000D02*
X128778000Y-60452000D01*
X114808000Y-65786000D02*
X116586000Y-67564000D01*
D37*
%TO.N,Net-(U2-PF.4)*%
X66040000Y-61214000D02*
X66040000Y-59690000D01*
X42672000Y-65786000D02*
X61468000Y-65786000D01*
D38*
X41402000Y-64516000D02*
X41402000Y-66294000D01*
D37*
X41402000Y-64516000D02*
X42672000Y-65786000D01*
D38*
X33274000Y-66802000D02*
X32804500Y-66332500D01*
D37*
X61468000Y-65786000D02*
X66040000Y-61214000D01*
D38*
X33274000Y-66802000D02*
X40894000Y-66802000D01*
X41402000Y-66294000D02*
X41148000Y-66548000D01*
D37*
X32804500Y-66332500D02*
X32804500Y-65278000D01*
D38*
X41148000Y-66548000D02*
X40894000Y-66802000D01*
D37*
%TO.N,Net-(U2-PF.5)*%
X64770000Y-60960000D02*
X61214000Y-64516000D01*
X36522000Y-62792000D02*
X36522000Y-62992000D01*
X42164000Y-61722000D02*
X37592000Y-61722000D01*
X44958000Y-64516000D02*
X42164000Y-61722000D01*
X64770000Y-58928000D02*
X64770000Y-60960000D01*
D38*
X36522000Y-62992000D02*
X33058500Y-62992000D01*
X36522000Y-64516000D02*
X36522000Y-62992000D01*
D37*
X37592000Y-61722000D02*
X36522000Y-62792000D01*
D38*
X33058500Y-62992000D02*
X32804500Y-62738000D01*
D37*
X61214000Y-64516000D02*
X44958000Y-64516000D01*
D35*
%TO.N,Net-(U6-C1+)*%
X113030000Y-56134000D02*
X108688900Y-56134000D01*
X114808000Y-55626000D02*
X113538000Y-55626000D01*
X113538000Y-55626000D02*
X113030000Y-56134000D01*
X108688900Y-56134000D02*
X108434900Y-56388000D01*
X108419500Y-56896000D02*
X108434900Y-56388000D01*
%TO.N,Net-(U6-C1-)*%
X112306500Y-58166000D02*
X111544500Y-57404000D01*
D36*
X111939671Y-57799171D02*
X111544500Y-57404000D01*
D35*
X114808000Y-58166000D02*
X112306500Y-58166000D01*
%TO.N,Net-(U6-C2-)*%
X111760000Y-60706000D02*
X111506000Y-60960000D01*
X114808000Y-60706000D02*
X111760000Y-60706000D01*
%TO.N,Net-(U6-C2+)*%
X114808000Y-59436000D02*
X108635000Y-59436000D01*
X108381000Y-59690000D02*
X108381000Y-60452000D01*
X108635000Y-59436000D02*
X108381000Y-59690000D01*
%TO.N,Net-(U6-VS+)*%
X116586000Y-54356000D02*
X116332000Y-54102000D01*
X116586000Y-56388000D02*
X116586000Y-54356000D01*
X116078000Y-56896000D02*
X116586000Y-56388000D01*
X116078000Y-56896000D02*
X114808000Y-56896000D01*
D37*
X112052500Y-54102000D02*
X111544500Y-54610000D01*
D35*
X113030000Y-54102000D02*
X111798500Y-54102000D01*
D37*
X113030000Y-54102000D02*
X112052500Y-54102000D01*
D35*
X116332000Y-54102000D02*
X113030000Y-54102000D01*
X111798500Y-54102000D02*
X111544500Y-54356000D01*
%TO.N,Net-(U6-VS-)*%
X113284000Y-61976000D02*
X114808000Y-61976000D01*
X111506000Y-63754000D02*
X113284000Y-61976000D01*
D38*
%TO.N,Net-(D4-A)*%
X121452000Y-72644000D02*
X118030000Y-72644000D01*
X118030000Y-72644000D02*
X114580000Y-76094000D01*
D35*
%TO.N,/txd1*%
X121158000Y-58166000D02*
X121920000Y-58928000D01*
X125222000Y-58420000D02*
X125222000Y-50800000D01*
X124714000Y-58928000D02*
X125222000Y-58420000D01*
X125222000Y-50800000D02*
X126985000Y-49037000D01*
X121920000Y-58928000D02*
X124714000Y-58928000D01*
X119958000Y-58166000D02*
X121158000Y-58166000D01*
X126985000Y-49037000D02*
X128016000Y-49037000D01*
%TO.N,/rxd1*%
X121412000Y-59944000D02*
X125476000Y-59944000D01*
X125476000Y-59944000D02*
X125984000Y-59436000D01*
X126985000Y-51577000D02*
X128016000Y-51577000D01*
X125984000Y-52578000D02*
X126985000Y-51577000D01*
X119958000Y-59436000D02*
X120904000Y-59436000D01*
X125984000Y-59436000D02*
X125984000Y-52578000D01*
X120904000Y-59436000D02*
X121412000Y-59944000D01*
D38*
%TO.N,+5V*%
X121730888Y-48997112D02*
X122468000Y-48260000D01*
X121730888Y-51054000D02*
X121730888Y-54252612D01*
D35*
X59944000Y-70358000D02*
X80772000Y-70358000D01*
D37*
X31750000Y-60706000D02*
X45720000Y-60706000D01*
D38*
X104140000Y-59690000D02*
X104140000Y-57150000D01*
X123444000Y-54317500D02*
X121730888Y-52604388D01*
X121730888Y-52604388D02*
X121730888Y-51054000D01*
D37*
X32512000Y-68326000D02*
X31242000Y-67056000D01*
D38*
X120342500Y-54317500D02*
X119923000Y-54737000D01*
D37*
X31242000Y-67056000D02*
X31242000Y-61214000D01*
D38*
X104140000Y-69596000D02*
X104140000Y-68072000D01*
D37*
X59944000Y-70358000D02*
X59690000Y-70358000D01*
D40*
X106895500Y-55880000D02*
X102870000Y-55880000D01*
D37*
X46158000Y-60268000D02*
X46736000Y-60268000D01*
D35*
X46736000Y-60268000D02*
X52762000Y-60268000D01*
D38*
X100330000Y-68072000D02*
X98552000Y-69850000D01*
X92964000Y-55880000D02*
X92710000Y-56134000D01*
X104140000Y-68072000D02*
X104140000Y-59690000D01*
D37*
X57658000Y-68326000D02*
X32512000Y-68326000D01*
D38*
X123444000Y-54317500D02*
X121666000Y-54317500D01*
X104140000Y-68072000D02*
X100330000Y-68072000D01*
X104140000Y-57150000D02*
X102870000Y-55880000D01*
D35*
X82296000Y-71882000D02*
X80772000Y-70358000D01*
X52762000Y-60268000D02*
X54356000Y-58674000D01*
D40*
X108419500Y-54356000D02*
X107549750Y-55225750D01*
D37*
X59690000Y-70358000D02*
X57658000Y-68326000D01*
D35*
X80518000Y-70358000D02*
X59944000Y-70358000D01*
D37*
X108419500Y-54610000D02*
X108165500Y-54610000D01*
X108165500Y-54610000D02*
X107549750Y-55225750D01*
D38*
X121666000Y-54317500D02*
X120342500Y-54317500D01*
D37*
X31242000Y-61214000D02*
X31750000Y-60706000D01*
D38*
X121730888Y-54252612D02*
X121666000Y-54317500D01*
X119380000Y-54864000D02*
X119923000Y-55407000D01*
X105410000Y-70866000D02*
X104140000Y-69596000D01*
X119923000Y-54737000D02*
X119380000Y-54864000D01*
X102870000Y-55880000D02*
X97536000Y-55880000D01*
X97536000Y-55880000D02*
X92964000Y-55880000D01*
D37*
X45720000Y-60706000D02*
X46158000Y-60268000D01*
D40*
X107549750Y-55225750D02*
X106895500Y-55880000D01*
D38*
X119923000Y-55407000D02*
X119958000Y-55407000D01*
X121730888Y-51054000D02*
X121730888Y-48997112D01*
%TD*%
%TA.AperFunction,Conductor*%
%TO.N,GND*%
G36*
X69036400Y-82977543D02*
G01*
X69005627Y-83138862D01*
X69015939Y-83302766D01*
X69057280Y-83430000D01*
X66504228Y-83430000D01*
X66526600Y-83382457D01*
X66557373Y-83221138D01*
X66547061Y-83057234D01*
X66505720Y-82930000D01*
X69058772Y-82930000D01*
X69036400Y-82977543D01*
G37*
%TD.AperFunction*%
%TA.AperFunction,Conductor*%
G36*
X85292400Y-82977543D02*
G01*
X85261627Y-83138862D01*
X85271939Y-83302766D01*
X85313280Y-83430000D01*
X82760228Y-83430000D01*
X82782600Y-83382457D01*
X82813373Y-83221138D01*
X82803061Y-83057234D01*
X82761720Y-82930000D01*
X85314772Y-82930000D01*
X85292400Y-82977543D01*
G37*
%TD.AperFunction*%
%TA.AperFunction,Conductor*%
G36*
X126166130Y-18306954D02*
G01*
X126246912Y-18360930D01*
X126300888Y-18441712D01*
X126319842Y-18537000D01*
X126300888Y-18632288D01*
X126246912Y-18713070D01*
X126166130Y-18767046D01*
X126152649Y-18772178D01*
X125845269Y-18879100D01*
X125845252Y-18879106D01*
X125839206Y-18881210D01*
X125833406Y-18883924D01*
X125833388Y-18883932D01*
X125494832Y-19042393D01*
X125494817Y-19042400D01*
X125489012Y-19045118D01*
X125483519Y-19048416D01*
X125483499Y-19048427D01*
X125163019Y-19240866D01*
X125163002Y-19240877D01*
X125157527Y-19244165D01*
X125152417Y-19247999D01*
X125152409Y-19248005D01*
X124853389Y-19472396D01*
X124853381Y-19472401D01*
X124848266Y-19476241D01*
X124843575Y-19480582D01*
X124843564Y-19480592D01*
X124569211Y-19734528D01*
X124569198Y-19734540D01*
X124564505Y-19738885D01*
X124560268Y-19743705D01*
X124560266Y-19743708D01*
X124337033Y-19997708D01*
X124309255Y-20029314D01*
X124305551Y-20034523D01*
X124305540Y-20034538D01*
X124088939Y-20339215D01*
X124088930Y-20339227D01*
X124085219Y-20344449D01*
X124082057Y-20350035D01*
X124082055Y-20350039D01*
X123897933Y-20675364D01*
X123897926Y-20675377D01*
X123894773Y-20680949D01*
X123892208Y-20686816D01*
X123892204Y-20686826D01*
X123742502Y-21029371D01*
X123742495Y-21029387D01*
X123739935Y-21035247D01*
X123737986Y-21041350D01*
X123737983Y-21041360D01*
X123624297Y-21397479D01*
X123624291Y-21397500D01*
X123622348Y-21403588D01*
X123621040Y-21409845D01*
X123621036Y-21409862D01*
X123544569Y-21775786D01*
X123544567Y-21775796D01*
X123543257Y-21782067D01*
X123542597Y-21788443D01*
X123542597Y-21788449D01*
X123504601Y-22156023D01*
X123503500Y-22166673D01*
X123503500Y-22173093D01*
X123503500Y-23008374D01*
X123484546Y-23103662D01*
X123430570Y-23184444D01*
X123349788Y-23238420D01*
X123254500Y-23257374D01*
X123159212Y-23238420D01*
X123078430Y-23184444D01*
X123049214Y-23149295D01*
X122942294Y-22993540D01*
X122937583Y-22986677D01*
X122734393Y-22762021D01*
X122503073Y-22566452D01*
X122247750Y-22403460D01*
X122240203Y-22399958D01*
X122240198Y-22399955D01*
X122074184Y-22322916D01*
X121972980Y-22275953D01*
X121683667Y-22186207D01*
X121675475Y-22184825D01*
X121675466Y-22184823D01*
X121393178Y-22137208D01*
X121393177Y-22137207D01*
X121384973Y-22135824D01*
X121376663Y-22135546D01*
X121376652Y-22135545D01*
X121090552Y-22125980D01*
X121090547Y-22125980D01*
X121082229Y-22125702D01*
X121073939Y-22126535D01*
X121073938Y-22126536D01*
X120789123Y-22155189D01*
X120789115Y-22155190D01*
X120780838Y-22156023D01*
X120772749Y-22157950D01*
X120772741Y-22157952D01*
X120494272Y-22224314D01*
X120494263Y-22224316D01*
X120486176Y-22226244D01*
X120478409Y-22229235D01*
X120478407Y-22229236D01*
X120211274Y-22332119D01*
X120211260Y-22332125D01*
X120203503Y-22335113D01*
X120070617Y-22407937D01*
X120008473Y-22441993D01*
X119915801Y-22471165D01*
X119819019Y-22462652D01*
X119754831Y-22433515D01*
X119707750Y-22403460D01*
X119700203Y-22399958D01*
X119700198Y-22399955D01*
X119534184Y-22322916D01*
X119432980Y-22275953D01*
X119143667Y-22186207D01*
X119135475Y-22184825D01*
X119135466Y-22184823D01*
X118853178Y-22137208D01*
X118853177Y-22137207D01*
X118844973Y-22135824D01*
X118836663Y-22135546D01*
X118836652Y-22135545D01*
X118550552Y-22125980D01*
X118550547Y-22125980D01*
X118542229Y-22125702D01*
X118533939Y-22126535D01*
X118533938Y-22126536D01*
X118249123Y-22155189D01*
X118249115Y-22155190D01*
X118240838Y-22156023D01*
X118232749Y-22157950D01*
X118232741Y-22157952D01*
X117954272Y-22224314D01*
X117954263Y-22224316D01*
X117946176Y-22226244D01*
X117938409Y-22229235D01*
X117938407Y-22229236D01*
X117671274Y-22332119D01*
X117671260Y-22332125D01*
X117663503Y-22335113D01*
X117530617Y-22407937D01*
X117468473Y-22441993D01*
X117375801Y-22471165D01*
X117279019Y-22462652D01*
X117214831Y-22433515D01*
X117167750Y-22403460D01*
X117160203Y-22399958D01*
X117160198Y-22399955D01*
X116994184Y-22322916D01*
X116892980Y-22275953D01*
X116603667Y-22186207D01*
X116595475Y-22184825D01*
X116595466Y-22184823D01*
X116313178Y-22137208D01*
X116313177Y-22137207D01*
X116304973Y-22135824D01*
X116296663Y-22135546D01*
X116296652Y-22135545D01*
X116010552Y-22125980D01*
X116010547Y-22125980D01*
X116002229Y-22125702D01*
X115993939Y-22126535D01*
X115993938Y-22126536D01*
X115709123Y-22155189D01*
X115709115Y-22155190D01*
X115700838Y-22156023D01*
X115692749Y-22157950D01*
X115692741Y-22157952D01*
X115414272Y-22224314D01*
X115414263Y-22224316D01*
X115406176Y-22226244D01*
X115398409Y-22229235D01*
X115398407Y-22229236D01*
X115131274Y-22332119D01*
X115131260Y-22332125D01*
X115123503Y-22335113D01*
X114990617Y-22407937D01*
X114928473Y-22441993D01*
X114835801Y-22471165D01*
X114739019Y-22462652D01*
X114674831Y-22433515D01*
X114627750Y-22403460D01*
X114620203Y-22399958D01*
X114620198Y-22399955D01*
X114454184Y-22322916D01*
X114352980Y-22275953D01*
X114063667Y-22186207D01*
X114055475Y-22184825D01*
X114055466Y-22184823D01*
X113773178Y-22137208D01*
X113773177Y-22137207D01*
X113764973Y-22135824D01*
X113756663Y-22135546D01*
X113756652Y-22135545D01*
X113470552Y-22125980D01*
X113470547Y-22125980D01*
X113462229Y-22125702D01*
X113453939Y-22126535D01*
X113453938Y-22126536D01*
X113169123Y-22155189D01*
X113169115Y-22155190D01*
X113160838Y-22156023D01*
X113152744Y-22157951D01*
X113152737Y-22157953D01*
X113055222Y-22181192D01*
X112958136Y-22184844D01*
X112867043Y-22151064D01*
X112795810Y-22084996D01*
X112755283Y-21996697D01*
X112748500Y-21938975D01*
X112748500Y-21881373D01*
X112748674Y-21872062D01*
X112752180Y-21778363D01*
X112751423Y-21771648D01*
X112741676Y-21685149D01*
X112740813Y-21675944D01*
X112733802Y-21582370D01*
X112729597Y-21563949D01*
X112724920Y-21536420D01*
X112722805Y-21517650D01*
X112698534Y-21427069D01*
X112696292Y-21418032D01*
X112675420Y-21326584D01*
X112668517Y-21308996D01*
X112659788Y-21282467D01*
X112654901Y-21264228D01*
X112622674Y-21190364D01*
X112617392Y-21178257D01*
X112613830Y-21169656D01*
X112579568Y-21082357D01*
X112570120Y-21065993D01*
X112557534Y-21041061D01*
X112549983Y-21023753D01*
X112500086Y-20944343D01*
X112495280Y-20936366D01*
X112448386Y-20855143D01*
X112436607Y-20840373D01*
X112420445Y-20817595D01*
X112410396Y-20801602D01*
X112378248Y-20764246D01*
X112349211Y-20730504D01*
X112343290Y-20723358D01*
X112309470Y-20680949D01*
X112284805Y-20650019D01*
X112216074Y-20586246D01*
X112209367Y-20579786D01*
X111754212Y-20124631D01*
X111747752Y-20117923D01*
X111683983Y-20049196D01*
X111653008Y-20024495D01*
X111610644Y-19990711D01*
X111603505Y-19984796D01*
X111532398Y-19923602D01*
X111516396Y-19913548D01*
X111493627Y-19897392D01*
X111478859Y-19885615D01*
X111397641Y-19838724D01*
X111389666Y-19833919D01*
X111310244Y-19784015D01*
X111292936Y-19776464D01*
X111268007Y-19763880D01*
X111268005Y-19763879D01*
X111264127Y-19761640D01*
X111251644Y-19754432D01*
X111212030Y-19738885D01*
X111164291Y-19720148D01*
X111155722Y-19716598D01*
X111069774Y-19679098D01*
X111051523Y-19674208D01*
X111025007Y-19665483D01*
X111007414Y-19658578D01*
X110915961Y-19637704D01*
X110906927Y-19635464D01*
X110816351Y-19611195D01*
X110797575Y-19609079D01*
X110770059Y-19604404D01*
X110762375Y-19602650D01*
X110751630Y-19600198D01*
X110751629Y-19600197D01*
X110751625Y-19600197D01*
X110658085Y-19593186D01*
X110648817Y-19592317D01*
X110555640Y-19581818D01*
X110466677Y-19585147D01*
X110461917Y-19585326D01*
X110452608Y-19585500D01*
X32549392Y-19585500D01*
X32540082Y-19585326D01*
X32534888Y-19585131D01*
X32446358Y-19581818D01*
X32353180Y-19592317D01*
X32343914Y-19593186D01*
X32250375Y-19600197D01*
X32250370Y-19600197D01*
X32250370Y-19600198D01*
X32231937Y-19604404D01*
X32204425Y-19609079D01*
X32185648Y-19611194D01*
X32095064Y-19635466D01*
X32086031Y-19637706D01*
X31994586Y-19658578D01*
X31976997Y-19665482D01*
X31950487Y-19674205D01*
X31932230Y-19679097D01*
X31846262Y-19716604D01*
X31837663Y-19720166D01*
X31750353Y-19754433D01*
X31733992Y-19763879D01*
X31709072Y-19776459D01*
X31691754Y-19784014D01*
X31612329Y-19833920D01*
X31604357Y-19838723D01*
X31523144Y-19885612D01*
X31508367Y-19897396D01*
X31485609Y-19913543D01*
X31469603Y-19923600D01*
X31398510Y-19984781D01*
X31391343Y-19990720D01*
X31318016Y-20049197D01*
X31254246Y-20117924D01*
X31247788Y-20124629D01*
X30538629Y-20833788D01*
X30531924Y-20840246D01*
X30463194Y-20904018D01*
X30404720Y-20977343D01*
X30398781Y-20984511D01*
X30337600Y-21055605D01*
X30327545Y-21071607D01*
X30311397Y-21094367D01*
X30299613Y-21109144D01*
X30252719Y-21190364D01*
X30247918Y-21198332D01*
X30198014Y-21277756D01*
X30190458Y-21295075D01*
X30177882Y-21319988D01*
X30168432Y-21336355D01*
X30134162Y-21423672D01*
X30130602Y-21432268D01*
X30093098Y-21518230D01*
X30088205Y-21536489D01*
X30079484Y-21562989D01*
X30072581Y-21580577D01*
X30060586Y-21633127D01*
X30055004Y-21657588D01*
X30051710Y-21672019D01*
X30049469Y-21681053D01*
X30025194Y-21771648D01*
X30023079Y-21790425D01*
X30018404Y-21817942D01*
X30014197Y-21836375D01*
X30007186Y-21929914D01*
X30006317Y-21939180D01*
X29995818Y-22032358D01*
X29999326Y-22126080D01*
X29999500Y-22135392D01*
X29999500Y-22871557D01*
X29980546Y-22966845D01*
X29945916Y-23025874D01*
X29885681Y-23102150D01*
X29885675Y-23102158D01*
X29880526Y-23108679D01*
X29876288Y-23115833D01*
X29876286Y-23115837D01*
X29730393Y-23362151D01*
X29730387Y-23362161D01*
X29726156Y-23369306D01*
X29722912Y-23376954D01*
X29722909Y-23376962D01*
X29611148Y-23640525D01*
X29611142Y-23640541D01*
X29607902Y-23648183D01*
X29605707Y-23656192D01*
X29605704Y-23656204D01*
X29530071Y-23932309D01*
X29530068Y-23932323D01*
X29527874Y-23940333D01*
X29526766Y-23948569D01*
X29526764Y-23948581D01*
X29488610Y-24232285D01*
X29488609Y-24232293D01*
X29487500Y-24240543D01*
X29487500Y-25467649D01*
X29487776Y-25471773D01*
X29487777Y-25471801D01*
X29502111Y-25685926D01*
X29502112Y-25685935D01*
X29502668Y-25694237D01*
X29504325Y-25702391D01*
X29504327Y-25702403D01*
X29561343Y-25982912D01*
X29561346Y-25982923D01*
X29563004Y-25991080D01*
X29565732Y-25998937D01*
X29565735Y-25998947D01*
X29652078Y-26247603D01*
X29662367Y-26277233D01*
X29666120Y-26284661D01*
X29666121Y-26284662D01*
X29775746Y-26501603D01*
X29798984Y-26547588D01*
X29823045Y-26582639D01*
X29921452Y-26725994D01*
X29970417Y-26797323D01*
X29976000Y-26803496D01*
X29976001Y-26803497D01*
X30074534Y-26912440D01*
X30173607Y-27021979D01*
X30179966Y-27027355D01*
X30179969Y-27027358D01*
X30279822Y-27111778D01*
X30404927Y-27217548D01*
X30660250Y-27380540D01*
X30935020Y-27508047D01*
X31224333Y-27597793D01*
X31523027Y-27648176D01*
X31825771Y-27658298D01*
X32127162Y-27627977D01*
X32232781Y-27602806D01*
X32329862Y-27599155D01*
X32420955Y-27632934D01*
X32492189Y-27699001D01*
X32532717Y-27787299D01*
X32539500Y-27845024D01*
X32539500Y-29750500D01*
X32520546Y-29845788D01*
X32466570Y-29926570D01*
X32385788Y-29980546D01*
X32290500Y-29999500D01*
X29501392Y-29999500D01*
X29492082Y-29999326D01*
X29486888Y-29999131D01*
X29398358Y-29995818D01*
X29305180Y-30006317D01*
X29295914Y-30007186D01*
X29202375Y-30014197D01*
X29202370Y-30014197D01*
X29202370Y-30014198D01*
X29183937Y-30018404D01*
X29156425Y-30023079D01*
X29137648Y-30025194D01*
X29047053Y-30049469D01*
X29038041Y-30051704D01*
X28999127Y-30060586D01*
X28946577Y-30072581D01*
X28928989Y-30079484D01*
X28902489Y-30088205D01*
X28884230Y-30093098D01*
X28798268Y-30130602D01*
X28789672Y-30134162D01*
X28702355Y-30168432D01*
X28685988Y-30177882D01*
X28661075Y-30190458D01*
X28643756Y-30198014D01*
X28564332Y-30247918D01*
X28556364Y-30252719D01*
X28475144Y-30299613D01*
X28460367Y-30311397D01*
X28437607Y-30327545D01*
X28421605Y-30337600D01*
X28350511Y-30398781D01*
X28343343Y-30404720D01*
X28270018Y-30463194D01*
X28206246Y-30531924D01*
X28199788Y-30538629D01*
X27236629Y-31501788D01*
X27229924Y-31508246D01*
X27161194Y-31572018D01*
X27102720Y-31645343D01*
X27096781Y-31652511D01*
X27035600Y-31723605D01*
X27025545Y-31739607D01*
X27009397Y-31762367D01*
X26997613Y-31777144D01*
X26950719Y-31858364D01*
X26945918Y-31866332D01*
X26896014Y-31945756D01*
X26888458Y-31963075D01*
X26875882Y-31987988D01*
X26866432Y-32004355D01*
X26832162Y-32091672D01*
X26828602Y-32100268D01*
X26791098Y-32186230D01*
X26786205Y-32204489D01*
X26777484Y-32230989D01*
X26770581Y-32248577D01*
X26766480Y-32266546D01*
X26750750Y-32335464D01*
X26749710Y-32340019D01*
X26747469Y-32349053D01*
X26723194Y-32439648D01*
X26721079Y-32458425D01*
X26716404Y-32485942D01*
X26712197Y-32504375D01*
X26705186Y-32597914D01*
X26704317Y-32607180D01*
X26693818Y-32700358D01*
X26697326Y-32794080D01*
X26697500Y-32803392D01*
X26697500Y-43904606D01*
X26697326Y-43913918D01*
X26693818Y-44007640D01*
X26704317Y-44100817D01*
X26705186Y-44110085D01*
X26712197Y-44203625D01*
X26716404Y-44222059D01*
X26721079Y-44249575D01*
X26723195Y-44268351D01*
X26747464Y-44358927D01*
X26749704Y-44367961D01*
X26770578Y-44459414D01*
X26777483Y-44477007D01*
X26786208Y-44503523D01*
X26791098Y-44521774D01*
X26828598Y-44607722D01*
X26832148Y-44616291D01*
X26854758Y-44673899D01*
X26866432Y-44703644D01*
X26875880Y-44720007D01*
X26888464Y-44744936D01*
X26896015Y-44762244D01*
X26945919Y-44841666D01*
X26950724Y-44849641D01*
X26997615Y-44930859D01*
X27009392Y-44945627D01*
X27025548Y-44968396D01*
X27035602Y-44984398D01*
X27096796Y-45055505D01*
X27102711Y-45062644D01*
X27140200Y-45109654D01*
X27161196Y-45135983D01*
X27229923Y-45199752D01*
X27236631Y-45206212D01*
X28453786Y-46423367D01*
X28460246Y-46430074D01*
X28524018Y-46498804D01*
X28597335Y-46557272D01*
X28604508Y-46563215D01*
X28675603Y-46624398D01*
X28675605Y-46624399D01*
X28675606Y-46624400D01*
X28691601Y-46634451D01*
X28714369Y-46650605D01*
X28729139Y-46662383D01*
X28729143Y-46662386D01*
X28810395Y-46709296D01*
X28818302Y-46714060D01*
X28897753Y-46763983D01*
X28915069Y-46771537D01*
X28939994Y-46784121D01*
X28956353Y-46793566D01*
X28956354Y-46793566D01*
X28956357Y-46793568D01*
X29039156Y-46826064D01*
X29043656Y-46827830D01*
X29052257Y-46831392D01*
X29138225Y-46868900D01*
X29138226Y-46868900D01*
X29138228Y-46868901D01*
X29156467Y-46873788D01*
X29182996Y-46882517D01*
X29200584Y-46889420D01*
X29292066Y-46910300D01*
X29301031Y-46912523D01*
X29391650Y-46936805D01*
X29400519Y-46937804D01*
X29410419Y-46938920D01*
X29437939Y-46943595D01*
X29456370Y-46947802D01*
X29549931Y-46954812D01*
X29559169Y-46955679D01*
X29619704Y-46962500D01*
X29652362Y-46966180D01*
X29652362Y-46966179D01*
X29652363Y-46966180D01*
X29746064Y-46962673D01*
X29755374Y-46962500D01*
X34885328Y-46962500D01*
X34980616Y-46981454D01*
X35061398Y-47035430D01*
X35115374Y-47116212D01*
X35128638Y-47158571D01*
X35159632Y-47301051D01*
X35259631Y-47569159D01*
X35396773Y-47820314D01*
X35426482Y-47860000D01*
X35568261Y-48049395D01*
X35770605Y-48251739D01*
X35948819Y-48385148D01*
X35999685Y-48423226D01*
X36250836Y-48560366D01*
X36250839Y-48560367D01*
X36518954Y-48660369D01*
X36740456Y-48708553D01*
X36750817Y-48710807D01*
X36799021Y-48730331D01*
X36800056Y-48727899D01*
X36817648Y-48735384D01*
X36817650Y-48735385D01*
X36885137Y-48764099D01*
X36898104Y-48770063D01*
X36913969Y-48777918D01*
X36963825Y-48802604D01*
X36998534Y-48813588D01*
X37020893Y-48821861D01*
X37054384Y-48836111D01*
X37125454Y-48854184D01*
X37139174Y-48858095D01*
X37190686Y-48874398D01*
X37209107Y-48880228D01*
X37245090Y-48885786D01*
X37268450Y-48890549D01*
X37303718Y-48899518D01*
X37376688Y-48906528D01*
X37390887Y-48908305D01*
X37418196Y-48912523D01*
X37463364Y-48919500D01*
X37499766Y-48919500D01*
X37523578Y-48920641D01*
X37559811Y-48924122D01*
X37633010Y-48919911D01*
X37647311Y-48919500D01*
X46954845Y-48919500D01*
X47050133Y-48938454D01*
X47130915Y-48992430D01*
X47454374Y-49315889D01*
X47508350Y-49396671D01*
X47527290Y-49489310D01*
X47565913Y-53119851D01*
X47547974Y-53215336D01*
X47494860Y-53296687D01*
X47414657Y-53351519D01*
X47319576Y-53371486D01*
X47316927Y-53371500D01*
X45576919Y-53371500D01*
X45514817Y-53380428D01*
X45497151Y-53382327D01*
X45434577Y-53386803D01*
X45373254Y-53400142D01*
X45355768Y-53403296D01*
X45293683Y-53412222D01*
X45233478Y-53429900D01*
X45216260Y-53434294D01*
X45154958Y-53447629D01*
X45119398Y-53460892D01*
X45096161Y-53469558D01*
X45079313Y-53475166D01*
X45019114Y-53492843D01*
X44962036Y-53518908D01*
X44945627Y-53525704D01*
X44886844Y-53547630D01*
X44886837Y-53547633D01*
X44886839Y-53547633D01*
X44831757Y-53577709D01*
X44815897Y-53585648D01*
X44774656Y-53604482D01*
X44758811Y-53611719D01*
X44706031Y-53645638D01*
X44690756Y-53654701D01*
X44635685Y-53684773D01*
X44585465Y-53722367D01*
X44570873Y-53732498D01*
X44518081Y-53766426D01*
X44470658Y-53807518D01*
X44456823Y-53818667D01*
X44406606Y-53856259D01*
X44355954Y-53906911D01*
X43170296Y-55092570D01*
X43089514Y-55146546D01*
X42994226Y-55165500D01*
X42359158Y-55165500D01*
X42355308Y-55165739D01*
X42355276Y-55165740D01*
X42255764Y-55171918D01*
X42012386Y-55222949D01*
X41780729Y-55313342D01*
X41567102Y-55440636D01*
X41377349Y-55601349D01*
X41216636Y-55791102D01*
X41089342Y-56004729D01*
X40998949Y-56236386D01*
X40947918Y-56479764D01*
X40941740Y-56579276D01*
X40941739Y-56579308D01*
X40941500Y-56583158D01*
X40941500Y-56587026D01*
X40941500Y-58781500D01*
X40922546Y-58876788D01*
X40868570Y-58957570D01*
X40787788Y-59011546D01*
X40692500Y-59030500D01*
X31879219Y-59030500D01*
X31846980Y-59028335D01*
X31733959Y-59030500D01*
X31685773Y-59030500D01*
X31681026Y-59030864D01*
X31681005Y-59030865D01*
X31676857Y-59031183D01*
X31662609Y-59031865D01*
X31589299Y-59033270D01*
X31580033Y-59034883D01*
X31553421Y-59039516D01*
X31529787Y-59042475D01*
X31493483Y-59045263D01*
X31422078Y-59061972D01*
X31408064Y-59064829D01*
X31335836Y-59077407D01*
X31301343Y-59089053D01*
X31278435Y-59095584D01*
X31242985Y-59103880D01*
X31174963Y-59131295D01*
X31161551Y-59136257D01*
X31092083Y-59159715D01*
X31059772Y-59176491D01*
X31038127Y-59186445D01*
X31004358Y-59200056D01*
X30941341Y-59237519D01*
X30928846Y-59244469D01*
X30863759Y-59278264D01*
X30834388Y-59299776D01*
X30814511Y-59312920D01*
X30783218Y-59331524D01*
X30726636Y-59378186D01*
X30715349Y-59386962D01*
X30656199Y-59430286D01*
X30630465Y-59456019D01*
X30612831Y-59472040D01*
X30584735Y-59495211D01*
X30535948Y-59549953D01*
X30526131Y-59560352D01*
X30148611Y-59937872D01*
X30124271Y-59959150D01*
X30045886Y-60040597D01*
X30045831Y-60040652D01*
X30011827Y-60074658D01*
X30008736Y-60078262D01*
X30008708Y-60078293D01*
X30006011Y-60081439D01*
X29996409Y-60092007D01*
X29945568Y-60144834D01*
X29924616Y-60174621D01*
X29909992Y-60193428D01*
X29886300Y-60221062D01*
X29847624Y-60283367D01*
X29839736Y-60295295D01*
X29797552Y-60355269D01*
X29781402Y-60387885D01*
X29769820Y-60408707D01*
X29750611Y-60439653D01*
X29721902Y-60507127D01*
X29715928Y-60520121D01*
X29683393Y-60585831D01*
X29672408Y-60620542D01*
X29664140Y-60642888D01*
X29649889Y-60676383D01*
X29631820Y-60747433D01*
X29627899Y-60761185D01*
X29605770Y-60831110D01*
X29600213Y-60867089D01*
X29595452Y-60890439D01*
X29586480Y-60925719D01*
X29579466Y-60998720D01*
X29577690Y-61012910D01*
X29566500Y-61085361D01*
X29566500Y-61121765D01*
X29565359Y-61145576D01*
X29561877Y-61181811D01*
X29566089Y-61255007D01*
X29566500Y-61269309D01*
X29566500Y-66926774D01*
X29564334Y-66959035D01*
X29566500Y-67072069D01*
X29566500Y-67120227D01*
X29566863Y-67124961D01*
X29566864Y-67124978D01*
X29567182Y-67129120D01*
X29567866Y-67143399D01*
X29569270Y-67216707D01*
X29575515Y-67252570D01*
X29578475Y-67276213D01*
X29581263Y-67312519D01*
X29597972Y-67383921D01*
X29600825Y-67397911D01*
X29613407Y-67470163D01*
X29613408Y-67470168D01*
X29625052Y-67504652D01*
X29631586Y-67527569D01*
X29639881Y-67563016D01*
X29667294Y-67631033D01*
X29672259Y-67644451D01*
X29695714Y-67713913D01*
X29712490Y-67746223D01*
X29722448Y-67767879D01*
X29736054Y-67801638D01*
X29773525Y-67864667D01*
X29780477Y-67877165D01*
X29814267Y-67942242D01*
X29835776Y-67971609D01*
X29848916Y-67991480D01*
X29866518Y-68021087D01*
X29867527Y-68022784D01*
X29914178Y-68079352D01*
X29922960Y-68090647D01*
X29966283Y-68149799D01*
X29992028Y-68175544D01*
X30008057Y-68193187D01*
X30031212Y-68221264D01*
X30085945Y-68270042D01*
X30096349Y-68279864D01*
X31235871Y-69419386D01*
X31257137Y-69443714D01*
X31257467Y-69444032D01*
X31257469Y-69444034D01*
X31338596Y-69522111D01*
X31372658Y-69556173D01*
X31376266Y-69559267D01*
X31376272Y-69559272D01*
X31379411Y-69561963D01*
X31390001Y-69571583D01*
X31442838Y-69622434D01*
X31472616Y-69643379D01*
X31491425Y-69658004D01*
X31519066Y-69681703D01*
X31581365Y-69720374D01*
X31593298Y-69728265D01*
X31653268Y-69770447D01*
X31685884Y-69786596D01*
X31706720Y-69798186D01*
X31737650Y-69817386D01*
X31805138Y-69846100D01*
X31818108Y-69852065D01*
X31883826Y-69884604D01*
X31918537Y-69895588D01*
X31940872Y-69903852D01*
X31974384Y-69918111D01*
X32045452Y-69936184D01*
X32059189Y-69940101D01*
X32129108Y-69962228D01*
X32165084Y-69967784D01*
X32188433Y-69972545D01*
X32223719Y-69981519D01*
X32296705Y-69988530D01*
X32310885Y-69990304D01*
X32383364Y-70001500D01*
X32419766Y-70001500D01*
X32443577Y-70002640D01*
X32479811Y-70006122D01*
X32553010Y-70001911D01*
X32567311Y-70001500D01*
X38401012Y-70001500D01*
X38496300Y-70020454D01*
X38577082Y-70074430D01*
X38631058Y-70155212D01*
X38650012Y-70250500D01*
X38631058Y-70345788D01*
X38577082Y-70426570D01*
X38539349Y-70457536D01*
X38450811Y-70516694D01*
X38450799Y-70516702D01*
X38444036Y-70521222D01*
X38437915Y-70526589D01*
X38437911Y-70526593D01*
X38218509Y-70719004D01*
X38218501Y-70719011D01*
X38212380Y-70724380D01*
X38207011Y-70730501D01*
X38206996Y-70730517D01*
X38009973Y-70955178D01*
X37932895Y-71014322D01*
X37839050Y-71039467D01*
X37822766Y-71040000D01*
X37588001Y-71040000D01*
X37588000Y-71040001D01*
X37588000Y-71829816D01*
X37583216Y-71878392D01*
X37581216Y-71888447D01*
X37559288Y-71941386D01*
X37480315Y-71905320D01*
X37373763Y-71890000D01*
X37302237Y-71890000D01*
X37195685Y-71905320D01*
X37115030Y-71942154D01*
X37092785Y-71888450D01*
X37088000Y-71839871D01*
X37088000Y-71040001D01*
X37087999Y-71040000D01*
X36446843Y-71040000D01*
X36433534Y-71040713D01*
X36380626Y-71046401D01*
X36245909Y-71096647D01*
X36130810Y-71182810D01*
X36044647Y-71297909D01*
X35994401Y-71432626D01*
X35988713Y-71485534D01*
X35988000Y-71498843D01*
X35988000Y-72139999D01*
X35988001Y-72140000D01*
X36904314Y-72140000D01*
X36878507Y-72180156D01*
X36838000Y-72318111D01*
X36838000Y-72461889D01*
X36878507Y-72599844D01*
X36904314Y-72640000D01*
X35988001Y-72640000D01*
X35988000Y-72640001D01*
X35988000Y-73281156D01*
X35988713Y-73294465D01*
X35994401Y-73347373D01*
X36044647Y-73482090D01*
X36130810Y-73597189D01*
X36245909Y-73683352D01*
X36380626Y-73733598D01*
X36433534Y-73739286D01*
X36446843Y-73740000D01*
X37087999Y-73740000D01*
X37088000Y-73739999D01*
X37088000Y-72940127D01*
X37106954Y-72844839D01*
X37112422Y-72836654D01*
X37195685Y-72874680D01*
X37302237Y-72890000D01*
X37373763Y-72890000D01*
X37480315Y-72874680D01*
X37562045Y-72837354D01*
X37567046Y-72844839D01*
X37581216Y-72891551D01*
X37583216Y-72901606D01*
X37588000Y-72950182D01*
X37588000Y-73739999D01*
X37588001Y-73740000D01*
X37822766Y-73740000D01*
X37918054Y-73758954D01*
X37998836Y-73812930D01*
X38009973Y-73824822D01*
X38206996Y-74049482D01*
X38207004Y-74049490D01*
X38212380Y-74055620D01*
X38444036Y-74258778D01*
X38700228Y-74429960D01*
X38976573Y-74566238D01*
X39268341Y-74665280D01*
X39570540Y-74725391D01*
X39878000Y-74745543D01*
X40152219Y-74727569D01*
X40248538Y-74740250D01*
X40332676Y-74788827D01*
X40391821Y-74865905D01*
X40416967Y-74959750D01*
X40417500Y-74976036D01*
X40417500Y-76778580D01*
X40398546Y-76873868D01*
X40344570Y-76954650D01*
X40263788Y-77008626D01*
X40168500Y-77027580D01*
X40073212Y-77008626D01*
X39992430Y-76954650D01*
X39955569Y-76907660D01*
X39888061Y-76796298D01*
X39888059Y-76796295D01*
X39883924Y-76789474D01*
X39689741Y-76545977D01*
X39466015Y-76329310D01*
X39330021Y-76227815D01*
X39222817Y-76147806D01*
X39222807Y-76147799D01*
X39216419Y-76143032D01*
X39049820Y-76049205D01*
X38952013Y-75994121D01*
X38952008Y-75994118D01*
X38945052Y-75990201D01*
X38656369Y-75873326D01*
X38648638Y-75871298D01*
X38648633Y-75871297D01*
X38362832Y-75796351D01*
X38355110Y-75794326D01*
X38347208Y-75793307D01*
X38347197Y-75793305D01*
X38054145Y-75755521D01*
X38054136Y-75755520D01*
X38046222Y-75754500D01*
X36614713Y-75754500D01*
X36610735Y-75754755D01*
X36610715Y-75754756D01*
X36389669Y-75768948D01*
X36389668Y-75768948D01*
X36381695Y-75769460D01*
X36373869Y-75770983D01*
X36373854Y-75770986D01*
X36083827Y-75827470D01*
X36083819Y-75827471D01*
X36075994Y-75828996D01*
X36068434Y-75831506D01*
X36068419Y-75831510D01*
X35787996Y-75924617D01*
X35787992Y-75924618D01*
X35780416Y-75927134D01*
X35773230Y-75930594D01*
X35773219Y-75930599D01*
X35507007Y-76058800D01*
X35506994Y-76058807D01*
X35499814Y-76062265D01*
X35493132Y-76066614D01*
X35493124Y-76066619D01*
X35245484Y-76227815D01*
X35245477Y-76227819D01*
X35238796Y-76232169D01*
X35232732Y-76237330D01*
X35232719Y-76237341D01*
X35007728Y-76428879D01*
X35007719Y-76428887D01*
X35001648Y-76434056D01*
X34996292Y-76439952D01*
X34996278Y-76439967D01*
X34797630Y-76658701D01*
X34797621Y-76658711D01*
X34792263Y-76664612D01*
X34787702Y-76671149D01*
X34787696Y-76671158D01*
X34618652Y-76913496D01*
X34618646Y-76913504D01*
X34614081Y-76920050D01*
X34610389Y-76927125D01*
X34610384Y-76927135D01*
X34473719Y-77189096D01*
X34473712Y-77189110D01*
X34470026Y-77196177D01*
X34467272Y-77203658D01*
X34467269Y-77203667D01*
X34366186Y-77478342D01*
X34362464Y-77488457D01*
X34360690Y-77496227D01*
X34360687Y-77496239D01*
X34294939Y-77784301D01*
X34293161Y-77792093D01*
X34292393Y-77800043D01*
X34292393Y-77800050D01*
X34276441Y-77965409D01*
X34263255Y-78102099D01*
X34273237Y-78413383D01*
X34274511Y-78421263D01*
X34321667Y-78712943D01*
X34321670Y-78712956D01*
X34322944Y-78720836D01*
X34325218Y-78728498D01*
X34325219Y-78728502D01*
X34409286Y-79011755D01*
X34409289Y-79011764D01*
X34411558Y-79019408D01*
X34537626Y-79304197D01*
X34541754Y-79311007D01*
X34541759Y-79311016D01*
X34694938Y-79563701D01*
X34694942Y-79563708D01*
X34699076Y-79570526D01*
X34893259Y-79814023D01*
X35116985Y-80030690D01*
X35123390Y-80035470D01*
X35360182Y-80212193D01*
X35360189Y-80212197D01*
X35366581Y-80216968D01*
X35637948Y-80369799D01*
X35926631Y-80486674D01*
X36227890Y-80565674D01*
X36536778Y-80605500D01*
X36544769Y-80605500D01*
X37964288Y-80605500D01*
X37968287Y-80605500D01*
X38201305Y-80590540D01*
X38507006Y-80531004D01*
X38802584Y-80432866D01*
X39083186Y-80297735D01*
X39344204Y-80127831D01*
X39581352Y-79925944D01*
X39790737Y-79695388D01*
X39964278Y-79446602D01*
X40034338Y-79379295D01*
X40124824Y-79343921D01*
X40221960Y-79345868D01*
X40310957Y-79384838D01*
X40378266Y-79454899D01*
X40413640Y-79545385D01*
X40417500Y-79589061D01*
X40417499Y-79899081D01*
X40426428Y-79961186D01*
X40428327Y-79978851D01*
X40432803Y-80041425D01*
X40446143Y-80102750D01*
X40449298Y-80120239D01*
X40458224Y-80182318D01*
X40458225Y-80182322D01*
X40464297Y-80203001D01*
X40475896Y-80242504D01*
X40480291Y-80259725D01*
X40493629Y-80321041D01*
X40515559Y-80379838D01*
X40521170Y-80396698D01*
X40538844Y-80456890D01*
X40564906Y-80513958D01*
X40571707Y-80530377D01*
X40593631Y-80589157D01*
X40623701Y-80644227D01*
X40631655Y-80660117D01*
X40657718Y-80717187D01*
X40657719Y-80717188D01*
X40691639Y-80769970D01*
X40700705Y-80785251D01*
X40730770Y-80840310D01*
X40768367Y-80890534D01*
X40778502Y-80905131D01*
X40812426Y-80957917D01*
X40853513Y-81005334D01*
X40864665Y-81019173D01*
X40902261Y-81069395D01*
X40952913Y-81120048D01*
X41918261Y-82085395D01*
X42120604Y-82287738D01*
X42170827Y-82325335D01*
X42184666Y-82336487D01*
X42232083Y-82377574D01*
X42284871Y-82411499D01*
X42299458Y-82421627D01*
X42349679Y-82459222D01*
X42349681Y-82459223D01*
X42349685Y-82459226D01*
X42404775Y-82489307D01*
X42420026Y-82498357D01*
X42469263Y-82530000D01*
X42472814Y-82532282D01*
X42529871Y-82558339D01*
X42545770Y-82566297D01*
X42600838Y-82596367D01*
X42659619Y-82618291D01*
X42676035Y-82625090D01*
X42733112Y-82651156D01*
X42733114Y-82651156D01*
X42733115Y-82651157D01*
X42793301Y-82668829D01*
X42810156Y-82674438D01*
X42868954Y-82696369D01*
X42930275Y-82709707D01*
X42947483Y-82714099D01*
X43007678Y-82731775D01*
X43069785Y-82740704D01*
X43087238Y-82743853D01*
X43148572Y-82757196D01*
X43211166Y-82761672D01*
X43228831Y-82763572D01*
X43262347Y-82768391D01*
X43290920Y-82772500D01*
X47536705Y-82772500D01*
X47631993Y-82791454D01*
X47712775Y-82845430D01*
X47723621Y-82856991D01*
X47787878Y-82930000D01*
X49190772Y-82930000D01*
X49168400Y-82977543D01*
X49137627Y-83138862D01*
X49147939Y-83302766D01*
X49189280Y-83430000D01*
X47788661Y-83430000D01*
X47825036Y-83598782D01*
X47915478Y-83823855D01*
X48042662Y-84030415D01*
X48202923Y-84212507D01*
X48391651Y-84364895D01*
X48603418Y-84483194D01*
X48832134Y-84564006D01*
X49071213Y-84605000D01*
X49541499Y-84605000D01*
X49541500Y-84604999D01*
X49541500Y-83784310D01*
X49550317Y-83789158D01*
X49709386Y-83830000D01*
X49832394Y-83830000D01*
X49954433Y-83814583D01*
X50041500Y-83780110D01*
X50041500Y-84604999D01*
X50041501Y-84605000D01*
X50445738Y-84605000D01*
X50456309Y-84604550D01*
X50632198Y-84589581D01*
X50866936Y-84528459D01*
X51087978Y-84428542D01*
X51288954Y-84292705D01*
X51424982Y-84162333D01*
X51506890Y-84110083D01*
X51602559Y-84093155D01*
X51697424Y-84114127D01*
X51777041Y-84169806D01*
X51784194Y-84177592D01*
X51814924Y-84212508D01*
X52003651Y-84364895D01*
X52215418Y-84483194D01*
X52444134Y-84564006D01*
X52683213Y-84605000D01*
X53153499Y-84605000D01*
X53153500Y-84604999D01*
X53153500Y-83784310D01*
X53162317Y-83789158D01*
X53321386Y-83830000D01*
X53444394Y-83830000D01*
X53566433Y-83814583D01*
X53653500Y-83780110D01*
X53653500Y-84604999D01*
X53653501Y-84605000D01*
X54057738Y-84605000D01*
X54068309Y-84604550D01*
X54244198Y-84589581D01*
X54478936Y-84528459D01*
X54699978Y-84428542D01*
X54900951Y-84292708D01*
X55076075Y-84124864D01*
X55220313Y-83929841D01*
X55329523Y-83713236D01*
X55400552Y-83481306D01*
X55407122Y-83430000D01*
X54004228Y-83430000D01*
X54026600Y-83382457D01*
X54057373Y-83221138D01*
X54047061Y-83057234D01*
X54005720Y-82930000D01*
X55406339Y-82930000D01*
X63899878Y-82930000D01*
X65302772Y-82930000D01*
X65280400Y-82977543D01*
X65249627Y-83138862D01*
X65259939Y-83302766D01*
X65301280Y-83430000D01*
X63900661Y-83430000D01*
X63937036Y-83598782D01*
X64027478Y-83823855D01*
X64154662Y-84030415D01*
X64314923Y-84212507D01*
X64503651Y-84364895D01*
X64715418Y-84483194D01*
X64944134Y-84564006D01*
X65183213Y-84605000D01*
X65653499Y-84605000D01*
X65653500Y-84604999D01*
X65653500Y-83784310D01*
X65662317Y-83789158D01*
X65821386Y-83830000D01*
X65944394Y-83830000D01*
X66066433Y-83814583D01*
X66153500Y-83780110D01*
X66153500Y-84604999D01*
X66153501Y-84605000D01*
X66557738Y-84605000D01*
X66568309Y-84604550D01*
X66744198Y-84589581D01*
X66978936Y-84528459D01*
X67199978Y-84428542D01*
X67400951Y-84292708D01*
X67576073Y-84124865D01*
X67583438Y-84114909D01*
X67655338Y-84049568D01*
X67746771Y-84016716D01*
X67843815Y-84021354D01*
X67931697Y-84062776D01*
X67970552Y-84098464D01*
X68070922Y-84212507D01*
X68259651Y-84364895D01*
X68471418Y-84483194D01*
X68700134Y-84564006D01*
X68939213Y-84605000D01*
X69409499Y-84605000D01*
X69409500Y-84604999D01*
X69409500Y-83784310D01*
X69418317Y-83789158D01*
X69577386Y-83830000D01*
X69700394Y-83830000D01*
X69822433Y-83814583D01*
X69909500Y-83780110D01*
X69909500Y-84604999D01*
X69909501Y-84605000D01*
X70313738Y-84605000D01*
X70324309Y-84604550D01*
X70500198Y-84589581D01*
X70734936Y-84528459D01*
X70955978Y-84428542D01*
X71156951Y-84292708D01*
X71332075Y-84124864D01*
X71476313Y-83929841D01*
X71585523Y-83713236D01*
X71656552Y-83481306D01*
X71663122Y-83430000D01*
X70260228Y-83430000D01*
X70282600Y-83382457D01*
X70313373Y-83221138D01*
X70303061Y-83057234D01*
X70261720Y-82930000D01*
X71662339Y-82930000D01*
X80155878Y-82930000D01*
X81558772Y-82930000D01*
X81536400Y-82977543D01*
X81505627Y-83138862D01*
X81515939Y-83302766D01*
X81557280Y-83430000D01*
X80156661Y-83430000D01*
X80193036Y-83598782D01*
X80283478Y-83823855D01*
X80410662Y-84030415D01*
X80570923Y-84212507D01*
X80759651Y-84364895D01*
X80971418Y-84483194D01*
X81200134Y-84564006D01*
X81439213Y-84605000D01*
X81909499Y-84605000D01*
X81909500Y-84604999D01*
X81909500Y-83784310D01*
X81918317Y-83789158D01*
X82077386Y-83830000D01*
X82200394Y-83830000D01*
X82322433Y-83814583D01*
X82409500Y-83780110D01*
X82409500Y-84604999D01*
X82409501Y-84605000D01*
X82813738Y-84605000D01*
X82824309Y-84604550D01*
X83000198Y-84589581D01*
X83234936Y-84528459D01*
X83455978Y-84428542D01*
X83656951Y-84292708D01*
X83832073Y-84124865D01*
X83839438Y-84114909D01*
X83911338Y-84049568D01*
X84002771Y-84016716D01*
X84099815Y-84021354D01*
X84187697Y-84062776D01*
X84226552Y-84098464D01*
X84326922Y-84212507D01*
X84515651Y-84364895D01*
X84727418Y-84483194D01*
X84956134Y-84564006D01*
X85195213Y-84605000D01*
X85665499Y-84605000D01*
X85665500Y-84604999D01*
X85665500Y-83784310D01*
X85674317Y-83789158D01*
X85833386Y-83830000D01*
X85956394Y-83830000D01*
X86078433Y-83814583D01*
X86165500Y-83780110D01*
X86165500Y-84604999D01*
X86165501Y-84605000D01*
X86569738Y-84605000D01*
X86580309Y-84604550D01*
X86756198Y-84589581D01*
X86990936Y-84528459D01*
X87211978Y-84428542D01*
X87412951Y-84292708D01*
X87588075Y-84124864D01*
X87732313Y-83929841D01*
X87841523Y-83713236D01*
X87912552Y-83481306D01*
X87919122Y-83430000D01*
X86516228Y-83430000D01*
X86538600Y-83382457D01*
X86569373Y-83221138D01*
X86559061Y-83057234D01*
X86517720Y-82930000D01*
X87918339Y-82930000D01*
X96411878Y-82930000D01*
X97814772Y-82930000D01*
X97792400Y-82977543D01*
X97761627Y-83138862D01*
X97771939Y-83302766D01*
X97813280Y-83430000D01*
X96412661Y-83430000D01*
X96449036Y-83598782D01*
X96539478Y-83823855D01*
X96666662Y-84030415D01*
X96826923Y-84212507D01*
X97015651Y-84364895D01*
X97227418Y-84483194D01*
X97456134Y-84564006D01*
X97695213Y-84605000D01*
X98165499Y-84605000D01*
X98165499Y-83784310D01*
X98174317Y-83789158D01*
X98333386Y-83830000D01*
X98456394Y-83830000D01*
X98578433Y-83814583D01*
X98665500Y-83780110D01*
X98665500Y-84604999D01*
X98665501Y-84605000D01*
X99069738Y-84605000D01*
X99080309Y-84604550D01*
X99256198Y-84589581D01*
X99490936Y-84528459D01*
X99711978Y-84428542D01*
X99912951Y-84292708D01*
X100088075Y-84124864D01*
X100232313Y-83929841D01*
X100341523Y-83713236D01*
X100412552Y-83481306D01*
X100419122Y-83430000D01*
X99016228Y-83430000D01*
X99038600Y-83382457D01*
X99069373Y-83221138D01*
X99059061Y-83057234D01*
X99017720Y-82930000D01*
X100418339Y-82930000D01*
X100381963Y-82761217D01*
X100291521Y-82536144D01*
X100164337Y-82329584D01*
X100004076Y-82147492D01*
X99815348Y-81995104D01*
X99603581Y-81876805D01*
X99374865Y-81795993D01*
X99135787Y-81755000D01*
X98665501Y-81755000D01*
X98665500Y-81755001D01*
X98665500Y-82575689D01*
X98656683Y-82570842D01*
X98497614Y-82530000D01*
X98374606Y-82530000D01*
X98252567Y-82545417D01*
X98165499Y-82579889D01*
X98165499Y-81755000D01*
X97761262Y-81755000D01*
X97750690Y-81755449D01*
X97574801Y-81770418D01*
X97340063Y-81831540D01*
X97119021Y-81931457D01*
X96918048Y-82067291D01*
X96742924Y-82235135D01*
X96598686Y-82430158D01*
X96489476Y-82646763D01*
X96418447Y-82878693D01*
X96411878Y-82930000D01*
X87918339Y-82930000D01*
X87881963Y-82761217D01*
X87791521Y-82536144D01*
X87664337Y-82329584D01*
X87504076Y-82147492D01*
X87315348Y-81995104D01*
X87103581Y-81876805D01*
X86874865Y-81795993D01*
X86635787Y-81755000D01*
X86165500Y-81755000D01*
X86165500Y-82575689D01*
X86156683Y-82570842D01*
X85997614Y-82530000D01*
X85874606Y-82530000D01*
X85752567Y-82545417D01*
X85665500Y-82579889D01*
X85665500Y-81755001D01*
X85665499Y-81755000D01*
X85261262Y-81755000D01*
X85250690Y-81755449D01*
X85074801Y-81770418D01*
X84840063Y-81831540D01*
X84619021Y-81931457D01*
X84418048Y-82067291D01*
X84242922Y-82235137D01*
X84235557Y-82245096D01*
X84163655Y-82310435D01*
X84072223Y-82343285D01*
X83975178Y-82338645D01*
X83887297Y-82297220D01*
X83848447Y-82261535D01*
X83748079Y-82147494D01*
X83559348Y-81995104D01*
X83347581Y-81876805D01*
X83118865Y-81795993D01*
X82879787Y-81755000D01*
X82409500Y-81755000D01*
X82409500Y-82575689D01*
X82400683Y-82570842D01*
X82241614Y-82530000D01*
X82118606Y-82530000D01*
X81996567Y-82545417D01*
X81909500Y-82579889D01*
X81909500Y-81755001D01*
X81909499Y-81755000D01*
X81505262Y-81755000D01*
X81494690Y-81755449D01*
X81318801Y-81770418D01*
X81084063Y-81831540D01*
X80863021Y-81931457D01*
X80662048Y-82067291D01*
X80486924Y-82235135D01*
X80342686Y-82430158D01*
X80233476Y-82646763D01*
X80162447Y-82878693D01*
X80155878Y-82930000D01*
X71662339Y-82930000D01*
X71625963Y-82761217D01*
X71535521Y-82536144D01*
X71408337Y-82329584D01*
X71248076Y-82147492D01*
X71059348Y-81995104D01*
X70847581Y-81876805D01*
X70618865Y-81795993D01*
X70379787Y-81755000D01*
X69909501Y-81755000D01*
X69909500Y-81755001D01*
X69909500Y-82575689D01*
X69900683Y-82570842D01*
X69741614Y-82530000D01*
X69618606Y-82530000D01*
X69496567Y-82545417D01*
X69409500Y-82579889D01*
X69409500Y-81755001D01*
X69409499Y-81755000D01*
X69005262Y-81755000D01*
X68994690Y-81755449D01*
X68818801Y-81770418D01*
X68584063Y-81831540D01*
X68363021Y-81931457D01*
X68162048Y-82067291D01*
X67986922Y-82235137D01*
X67979557Y-82245096D01*
X67907655Y-82310435D01*
X67816223Y-82343285D01*
X67719178Y-82338645D01*
X67631297Y-82297220D01*
X67592447Y-82261535D01*
X67492079Y-82147494D01*
X67303348Y-81995104D01*
X67091581Y-81876805D01*
X66862865Y-81795993D01*
X66623787Y-81755000D01*
X66153501Y-81755000D01*
X66153500Y-81755001D01*
X66153500Y-82575689D01*
X66144683Y-82570842D01*
X65985614Y-82530000D01*
X65862606Y-82530000D01*
X65740567Y-82545417D01*
X65653500Y-82579889D01*
X65653500Y-81755001D01*
X65653499Y-81755000D01*
X65249262Y-81755000D01*
X65238690Y-81755449D01*
X65062801Y-81770418D01*
X64828063Y-81831540D01*
X64607021Y-81931457D01*
X64406048Y-82067291D01*
X64230924Y-82235135D01*
X64086686Y-82430158D01*
X63977476Y-82646763D01*
X63906447Y-82878693D01*
X63899878Y-82930000D01*
X55406339Y-82930000D01*
X55369963Y-82761217D01*
X55279521Y-82536144D01*
X55152337Y-82329584D01*
X54992076Y-82147492D01*
X54803348Y-81995104D01*
X54573080Y-81866470D01*
X54575159Y-81862747D01*
X54525900Y-81833475D01*
X54467732Y-81755658D01*
X54443770Y-81661504D01*
X54457663Y-81565348D01*
X54507296Y-81481827D01*
X54516322Y-81472310D01*
X54868588Y-81120046D01*
X54868587Y-81120046D01*
X54919239Y-81069395D01*
X54919242Y-81069390D01*
X54944236Y-81044397D01*
X54969313Y-81003801D01*
X55009074Y-80957917D01*
X55043013Y-80905104D01*
X55053120Y-80890548D01*
X55090726Y-80840315D01*
X55120803Y-80785231D01*
X55129859Y-80769969D01*
X55163782Y-80717186D01*
X55189847Y-80660108D01*
X55197787Y-80644246D01*
X55227867Y-80589161D01*
X55249800Y-80530355D01*
X55256585Y-80513973D01*
X55282656Y-80456888D01*
X55300330Y-80396693D01*
X55305940Y-80379838D01*
X55319874Y-80342479D01*
X55370932Y-80259826D01*
X55449736Y-80203001D01*
X55544287Y-80180659D01*
X55553173Y-80180500D01*
X63849593Y-80180500D01*
X63944881Y-80199454D01*
X63981604Y-80218800D01*
X63978581Y-80216968D01*
X64249948Y-80369799D01*
X64538631Y-80486674D01*
X64839890Y-80565674D01*
X65148778Y-80605500D01*
X65156769Y-80605500D01*
X66576288Y-80605500D01*
X66580287Y-80605500D01*
X66813305Y-80590540D01*
X67119006Y-80531004D01*
X67414584Y-80432866D01*
X67676693Y-80306640D01*
X67770764Y-80282375D01*
X67866965Y-80295956D01*
X67906912Y-80314023D01*
X68005948Y-80369799D01*
X68294631Y-80486674D01*
X68595890Y-80565674D01*
X68904778Y-80605500D01*
X68912769Y-80605500D01*
X70332288Y-80605500D01*
X70336287Y-80605500D01*
X70569305Y-80590540D01*
X70875006Y-80531004D01*
X71170584Y-80432866D01*
X71451186Y-80297735D01*
X71569240Y-80220890D01*
X71569354Y-80220816D01*
X71659554Y-80184718D01*
X71705192Y-80180500D01*
X80105593Y-80180500D01*
X80200881Y-80199454D01*
X80237604Y-80218800D01*
X80234581Y-80216968D01*
X80505948Y-80369799D01*
X80794631Y-80486674D01*
X81095890Y-80565674D01*
X81404778Y-80605500D01*
X81412769Y-80605500D01*
X82832288Y-80605500D01*
X82836287Y-80605500D01*
X83069305Y-80590540D01*
X83375006Y-80531004D01*
X83670584Y-80432866D01*
X83932693Y-80306640D01*
X84026764Y-80282375D01*
X84122965Y-80295956D01*
X84162912Y-80314023D01*
X84261948Y-80369799D01*
X84550631Y-80486674D01*
X84851890Y-80565674D01*
X85160778Y-80605500D01*
X85168769Y-80605500D01*
X86588288Y-80605500D01*
X86592287Y-80605500D01*
X86825305Y-80590540D01*
X87131006Y-80531004D01*
X87426584Y-80432866D01*
X87707186Y-80297735D01*
X87825240Y-80220890D01*
X87825354Y-80220816D01*
X87915554Y-80184718D01*
X87961192Y-80180500D01*
X96361593Y-80180500D01*
X96456881Y-80199454D01*
X96493604Y-80218800D01*
X96490581Y-80216968D01*
X96761948Y-80369799D01*
X97050631Y-80486674D01*
X97351890Y-80565674D01*
X97660778Y-80605500D01*
X97668769Y-80605500D01*
X99088288Y-80605500D01*
X99092287Y-80605500D01*
X99325305Y-80590540D01*
X99631006Y-80531004D01*
X99926584Y-80432866D01*
X100207186Y-80297735D01*
X100468204Y-80127831D01*
X100705352Y-79925944D01*
X100914737Y-79695388D01*
X101092919Y-79439950D01*
X101236974Y-79163823D01*
X101344536Y-78871543D01*
X101413839Y-78567907D01*
X101443745Y-78257901D01*
X101433763Y-77946617D01*
X101384056Y-77639164D01*
X101295442Y-77340592D01*
X101222955Y-77176842D01*
X110779500Y-77176842D01*
X110779739Y-77180692D01*
X110779740Y-77180723D01*
X110785918Y-77280235D01*
X110836949Y-77523613D01*
X110927342Y-77755270D01*
X110927344Y-77755273D01*
X111052557Y-77965409D01*
X111054636Y-77968897D01*
X111215349Y-78158650D01*
X111405102Y-78319363D01*
X111405106Y-78319366D01*
X111592369Y-78430950D01*
X111618729Y-78446657D01*
X111813098Y-78522500D01*
X111850386Y-78537050D01*
X112093763Y-78588081D01*
X112197158Y-78594500D01*
X112201027Y-78594500D01*
X116958973Y-78594500D01*
X116962842Y-78594500D01*
X117066237Y-78588081D01*
X117309614Y-78537050D01*
X117448747Y-78482760D01*
X117540487Y-78446963D01*
X117636146Y-78429982D01*
X117731022Y-78450901D01*
X117810671Y-78506536D01*
X117862966Y-78588416D01*
X117880000Y-78678929D01*
X117880000Y-78743999D01*
X117880001Y-78744000D01*
X118880000Y-78744000D01*
X118880000Y-79244000D01*
X117880000Y-79244000D01*
X117880000Y-80150887D01*
X117880425Y-80161175D01*
X117895387Y-80341738D01*
X117956411Y-80582717D01*
X118056269Y-80810372D01*
X118192231Y-81018475D01*
X118360595Y-81201367D01*
X118556767Y-81354055D01*
X118775387Y-81472365D01*
X119010513Y-81553084D01*
X119129999Y-81573022D01*
X119130000Y-81573022D01*
X119129999Y-80527686D01*
X119170156Y-80553493D01*
X119308111Y-80594000D01*
X119451889Y-80594000D01*
X119589844Y-80553493D01*
X119629999Y-80527686D01*
X119630000Y-81573022D01*
X119749486Y-81553084D01*
X119984612Y-81472365D01*
X120203232Y-81354055D01*
X120399404Y-81201367D01*
X120567768Y-81018475D01*
X120703730Y-80810372D01*
X120803588Y-80582717D01*
X120864612Y-80341738D01*
X120879574Y-80161175D01*
X120880000Y-80150887D01*
X120880000Y-79244001D01*
X120879999Y-79244000D01*
X119880000Y-79244000D01*
X119880000Y-78744000D01*
X120879999Y-78744000D01*
X120880000Y-78743998D01*
X120880000Y-77837112D01*
X120879574Y-77826824D01*
X120864612Y-77646261D01*
X120803588Y-77405282D01*
X120703730Y-77177627D01*
X120567768Y-76969524D01*
X120399404Y-76786632D01*
X120203232Y-76633944D01*
X119984607Y-76515631D01*
X119749494Y-76434916D01*
X119630000Y-76414976D01*
X119630000Y-77460313D01*
X119589844Y-77434507D01*
X119451889Y-77394000D01*
X119308111Y-77394000D01*
X119170156Y-77434507D01*
X119129999Y-77460313D01*
X119130000Y-76414976D01*
X119129999Y-76414976D01*
X119010505Y-76434916D01*
X118775392Y-76515631D01*
X118748007Y-76530451D01*
X118655182Y-76559132D01*
X118558447Y-76550107D01*
X118472530Y-76504751D01*
X118410509Y-76429967D01*
X118381828Y-76337142D01*
X118380500Y-76311460D01*
X118380500Y-75768948D01*
X118380500Y-75225767D01*
X118399453Y-75130485D01*
X118453426Y-75049707D01*
X118785704Y-74717430D01*
X118866487Y-74663454D01*
X118961774Y-74644500D01*
X119666814Y-74644500D01*
X119762102Y-74663454D01*
X119794270Y-74679593D01*
X119990727Y-74796656D01*
X120222386Y-74887050D01*
X120465763Y-74938081D01*
X120569158Y-74944500D01*
X120573027Y-74944500D01*
X122330973Y-74944500D01*
X122334842Y-74944500D01*
X122438237Y-74938081D01*
X122681614Y-74887050D01*
X122913273Y-74796656D01*
X123126894Y-74669366D01*
X123316650Y-74508650D01*
X123477366Y-74318894D01*
X123604656Y-74105273D01*
X123607282Y-74098541D01*
X123659574Y-74016663D01*
X123739222Y-73961027D01*
X123834097Y-73940105D01*
X123860952Y-73941000D01*
X123951996Y-73948965D01*
X124178609Y-73929140D01*
X124398322Y-73870267D01*
X124604485Y-73774133D01*
X124677471Y-73723027D01*
X124677471Y-73723025D01*
X123996400Y-73041953D01*
X124077148Y-73029165D01*
X124190045Y-72971641D01*
X124279641Y-72882045D01*
X124337165Y-72769148D01*
X124349953Y-72688400D01*
X125031025Y-73369471D01*
X125031027Y-73369471D01*
X125082133Y-73296485D01*
X125178267Y-73090322D01*
X125237140Y-72870609D01*
X125256965Y-72643999D01*
X125237140Y-72417390D01*
X125178268Y-72197680D01*
X125082132Y-71991514D01*
X125031026Y-71918527D01*
X124349953Y-72599599D01*
X124337165Y-72518852D01*
X124279641Y-72405955D01*
X124190045Y-72316359D01*
X124077148Y-72258835D01*
X123996400Y-72246046D01*
X124677471Y-71564972D01*
X124604485Y-71513867D01*
X124398319Y-71417731D01*
X124178609Y-71358859D01*
X123951999Y-71339034D01*
X123860950Y-71347000D01*
X123764372Y-71336422D01*
X123679194Y-71289691D01*
X123618383Y-71213922D01*
X123607281Y-71189455D01*
X123604656Y-71182727D01*
X123593137Y-71163395D01*
X123477366Y-70969106D01*
X123477363Y-70969102D01*
X123316650Y-70779349D01*
X123126897Y-70618636D01*
X123122545Y-70616043D01*
X122941630Y-70508241D01*
X122913270Y-70491342D01*
X122681613Y-70400949D01*
X122438235Y-70349918D01*
X122338723Y-70343740D01*
X122338692Y-70343739D01*
X122334842Y-70343500D01*
X120569158Y-70343500D01*
X120565308Y-70343739D01*
X120565276Y-70343740D01*
X120465764Y-70349918D01*
X120222386Y-70400949D01*
X119990730Y-70491342D01*
X119962370Y-70508241D01*
X119804366Y-70602391D01*
X119794273Y-70608405D01*
X119702713Y-70640899D01*
X119666814Y-70643500D01*
X117886919Y-70643500D01*
X117824817Y-70652428D01*
X117807151Y-70654327D01*
X117744577Y-70658803D01*
X117683254Y-70672142D01*
X117665768Y-70675296D01*
X117603683Y-70684222D01*
X117543478Y-70701900D01*
X117526260Y-70706294D01*
X117464958Y-70719629D01*
X117435721Y-70730534D01*
X117406161Y-70741558D01*
X117389313Y-70747166D01*
X117329114Y-70764843D01*
X117272036Y-70790908D01*
X117255627Y-70797704D01*
X117196844Y-70819630D01*
X117196837Y-70819633D01*
X117196839Y-70819633D01*
X117141757Y-70849709D01*
X117125897Y-70857648D01*
X117084656Y-70876482D01*
X117068811Y-70883719D01*
X117016031Y-70917638D01*
X117000756Y-70926701D01*
X116945685Y-70956773D01*
X116895465Y-70994367D01*
X116880873Y-71004498D01*
X116828081Y-71038426D01*
X116780658Y-71079518D01*
X116766823Y-71090667D01*
X116716606Y-71128259D01*
X116681470Y-71163395D01*
X116665961Y-71178904D01*
X116665954Y-71178911D01*
X115462866Y-72382000D01*
X114324296Y-73520570D01*
X114243514Y-73574546D01*
X114148226Y-73593500D01*
X112197158Y-73593500D01*
X112193308Y-73593739D01*
X112193276Y-73593740D01*
X112093764Y-73599918D01*
X111850386Y-73650949D01*
X111618729Y-73741342D01*
X111405102Y-73868636D01*
X111215349Y-74029349D01*
X111054636Y-74219102D01*
X110927342Y-74432729D01*
X110836949Y-74664386D01*
X110785918Y-74907764D01*
X110779740Y-75007276D01*
X110779739Y-75007308D01*
X110779500Y-75011158D01*
X110779500Y-77176842D01*
X101222955Y-77176842D01*
X101169374Y-77055803D01*
X101138816Y-77005395D01*
X101012061Y-76796298D01*
X101012059Y-76796295D01*
X101007924Y-76789474D01*
X100813741Y-76545977D01*
X100590015Y-76329310D01*
X100454021Y-76227815D01*
X100346817Y-76147806D01*
X100346807Y-76147799D01*
X100340419Y-76143032D01*
X100173820Y-76049205D01*
X100076013Y-75994121D01*
X100076008Y-75994118D01*
X100069052Y-75990201D01*
X99780369Y-75873326D01*
X99772638Y-75871298D01*
X99772633Y-75871297D01*
X99486832Y-75796351D01*
X99479110Y-75794326D01*
X99471208Y-75793307D01*
X99471197Y-75793305D01*
X99178145Y-75755521D01*
X99178136Y-75755520D01*
X99170222Y-75754500D01*
X97738713Y-75754500D01*
X97734735Y-75754755D01*
X97734715Y-75754756D01*
X97513669Y-75768948D01*
X97513668Y-75768948D01*
X97505695Y-75769460D01*
X97497869Y-75770983D01*
X97497854Y-75770986D01*
X97207827Y-75827470D01*
X97207819Y-75827471D01*
X97199994Y-75828996D01*
X97192434Y-75831506D01*
X97192419Y-75831510D01*
X96911996Y-75924617D01*
X96911992Y-75924618D01*
X96904416Y-75927134D01*
X96897230Y-75930594D01*
X96897219Y-75930599D01*
X96631007Y-76058800D01*
X96630994Y-76058807D01*
X96623814Y-76062265D01*
X96617132Y-76066614D01*
X96617124Y-76066619D01*
X96505646Y-76139184D01*
X96415446Y-76175282D01*
X96369808Y-76179500D01*
X88165000Y-76179500D01*
X88069712Y-76160546D01*
X87988930Y-76106570D01*
X87934954Y-76025788D01*
X87916000Y-75930500D01*
X87916000Y-75612421D01*
X87907073Y-75550337D01*
X87905172Y-75532662D01*
X87900696Y-75470072D01*
X87887356Y-75408748D01*
X87884204Y-75391284D01*
X87875275Y-75329177D01*
X87857598Y-75268975D01*
X87853208Y-75251774D01*
X87839869Y-75190454D01*
X87817939Y-75131658D01*
X87812329Y-75114802D01*
X87794655Y-75054609D01*
X87792414Y-75049703D01*
X87768592Y-74997540D01*
X87761787Y-74981112D01*
X87739866Y-74922336D01*
X87709800Y-74867275D01*
X87701849Y-74851393D01*
X87675782Y-74794313D01*
X87672177Y-74788704D01*
X87641861Y-74741530D01*
X87632793Y-74726247D01*
X87602726Y-74671185D01*
X87565126Y-74620957D01*
X87554989Y-74606356D01*
X87530890Y-74568858D01*
X87521073Y-74553582D01*
X87479979Y-74506157D01*
X87468834Y-74492326D01*
X87431240Y-74442106D01*
X87228895Y-74239760D01*
X86454046Y-73464912D01*
X86403395Y-73414261D01*
X86353173Y-73376665D01*
X86339334Y-73365513D01*
X86291917Y-73324426D01*
X86239131Y-73290502D01*
X86224534Y-73280367D01*
X86174310Y-73242770D01*
X86119251Y-73212705D01*
X86103970Y-73203639D01*
X86070765Y-73182300D01*
X86051187Y-73169718D01*
X85994117Y-73143655D01*
X85978227Y-73135701D01*
X85923157Y-73105631D01*
X85864377Y-73083707D01*
X85847958Y-73076906D01*
X85790890Y-73050844D01*
X85730698Y-73033170D01*
X85713838Y-73027559D01*
X85655041Y-73005629D01*
X85593725Y-72992291D01*
X85576504Y-72987896D01*
X85521144Y-72971641D01*
X85516322Y-72970225D01*
X85516320Y-72970224D01*
X85516318Y-72970224D01*
X85454239Y-72961298D01*
X85436750Y-72958143D01*
X85375425Y-72944803D01*
X85312851Y-72940327D01*
X85295186Y-72938428D01*
X85233082Y-72929500D01*
X85233079Y-72929500D01*
X85161448Y-72929500D01*
X84895500Y-72929500D01*
X84800212Y-72910546D01*
X84719430Y-72856570D01*
X84665454Y-72775788D01*
X84646500Y-72680500D01*
X84646500Y-70953026D01*
X84646500Y-70953025D01*
X84646500Y-70949158D01*
X84640081Y-70845763D01*
X84589050Y-70602386D01*
X84570935Y-70555961D01*
X84553955Y-70460307D01*
X84574874Y-70365431D01*
X84630508Y-70285782D01*
X84712387Y-70233486D01*
X84800241Y-70216466D01*
X85659898Y-70207288D01*
X85755380Y-70225224D01*
X85836733Y-70278335D01*
X85838623Y-70280204D01*
X88905786Y-73347367D01*
X88912246Y-73354074D01*
X88976018Y-73422804D01*
X89049336Y-73481273D01*
X89056507Y-73487215D01*
X89102555Y-73526842D01*
X89127603Y-73548398D01*
X89143601Y-73558450D01*
X89166372Y-73574606D01*
X89181143Y-73586386D01*
X89257096Y-73630237D01*
X89262346Y-73633268D01*
X89270324Y-73638075D01*
X89349754Y-73687985D01*
X89367072Y-73695540D01*
X89391999Y-73708123D01*
X89408357Y-73717568D01*
X89495684Y-73751840D01*
X89504218Y-73755375D01*
X89590226Y-73792901D01*
X89608473Y-73797790D01*
X89635006Y-73806521D01*
X89652587Y-73813421D01*
X89744021Y-73834290D01*
X89753035Y-73836524D01*
X89843650Y-73860805D01*
X89862431Y-73862920D01*
X89889940Y-73867595D01*
X89908370Y-73871802D01*
X90001915Y-73878811D01*
X90011149Y-73879677D01*
X90104364Y-73890181D01*
X90198082Y-73886673D01*
X90207392Y-73886500D01*
X90419255Y-73886500D01*
X90514543Y-73905454D01*
X90595325Y-73959430D01*
X90609249Y-73974556D01*
X90631350Y-74000650D01*
X90631352Y-74000651D01*
X90631354Y-74000654D01*
X90754875Y-74105271D01*
X90821106Y-74161366D01*
X91034727Y-74288656D01*
X91034729Y-74288657D01*
X91266385Y-74379049D01*
X91266386Y-74379050D01*
X91509763Y-74430081D01*
X91613158Y-74436500D01*
X91617027Y-74436500D01*
X93374973Y-74436500D01*
X93378842Y-74436500D01*
X93482237Y-74430081D01*
X93725614Y-74379050D01*
X93957273Y-74288656D01*
X94170894Y-74161366D01*
X94360650Y-74000650D01*
X94521366Y-73810894D01*
X94648656Y-73597273D01*
X94651282Y-73590541D01*
X94703574Y-73508663D01*
X94783222Y-73453027D01*
X94878097Y-73432105D01*
X94904952Y-73433000D01*
X94995996Y-73440965D01*
X95222609Y-73421140D01*
X95442322Y-73362267D01*
X95648485Y-73266133D01*
X95721471Y-73215027D01*
X95721471Y-73215025D01*
X95040400Y-72533953D01*
X95121148Y-72521165D01*
X95234045Y-72463641D01*
X95323641Y-72374045D01*
X95381165Y-72261148D01*
X95393953Y-72180400D01*
X96075025Y-72861471D01*
X96075027Y-72861471D01*
X96126133Y-72788485D01*
X96222267Y-72582322D01*
X96281140Y-72362609D01*
X96300965Y-72136000D01*
X96281140Y-71909390D01*
X96222268Y-71689680D01*
X96126132Y-71483514D01*
X96075026Y-71410527D01*
X95393953Y-72091599D01*
X95381165Y-72010852D01*
X95323641Y-71897955D01*
X95234045Y-71808359D01*
X95121148Y-71750835D01*
X95040401Y-71738046D01*
X95721471Y-71056972D01*
X95648485Y-71005867D01*
X95442319Y-70909731D01*
X95222609Y-70850859D01*
X94995999Y-70831034D01*
X94904950Y-70839000D01*
X94808372Y-70828422D01*
X94723194Y-70781691D01*
X94662383Y-70705922D01*
X94651281Y-70681455D01*
X94650834Y-70680310D01*
X94648656Y-70674727D01*
X94640379Y-70660837D01*
X94603212Y-70598462D01*
X94536621Y-70486707D01*
X94504128Y-70395150D01*
X94509145Y-70298124D01*
X94550911Y-70210405D01*
X94623066Y-70145346D01*
X94714626Y-70112852D01*
X94747864Y-70110264D01*
X96349384Y-70093166D01*
X96444869Y-70111102D01*
X96526222Y-70164213D01*
X96581058Y-70244413D01*
X96590956Y-70272000D01*
X96592224Y-70276321D01*
X96592225Y-70276322D01*
X96603596Y-70315050D01*
X96609896Y-70336503D01*
X96614291Y-70353725D01*
X96627629Y-70415041D01*
X96649559Y-70473838D01*
X96655170Y-70490698D01*
X96672844Y-70550890D01*
X96698906Y-70607958D01*
X96705707Y-70624377D01*
X96727631Y-70683157D01*
X96727632Y-70683159D01*
X96727633Y-70683161D01*
X96736954Y-70700232D01*
X96757701Y-70738227D01*
X96765655Y-70754117D01*
X96791718Y-70811187D01*
X96791719Y-70811188D01*
X96825639Y-70863970D01*
X96834705Y-70879251D01*
X96864771Y-70934312D01*
X96902366Y-70984532D01*
X96912492Y-70999114D01*
X96946426Y-71051917D01*
X96987513Y-71099333D01*
X96998668Y-71113176D01*
X97036260Y-71163395D01*
X97080632Y-71207767D01*
X97092741Y-71220773D01*
X97133819Y-71268179D01*
X97181225Y-71309257D01*
X97194231Y-71321366D01*
X97219866Y-71347000D01*
X97238605Y-71365739D01*
X97288830Y-71403336D01*
X97302659Y-71414480D01*
X97350081Y-71455572D01*
X97350088Y-71455578D01*
X97402870Y-71489499D01*
X97417472Y-71499637D01*
X97420518Y-71501917D01*
X97467685Y-71537226D01*
X97522752Y-71567294D01*
X97538015Y-71576351D01*
X97590810Y-71610281D01*
X97647880Y-71636343D01*
X97663780Y-71644302D01*
X97688431Y-71657763D01*
X97718839Y-71674367D01*
X97777615Y-71696289D01*
X97777626Y-71696293D01*
X97794051Y-71703097D01*
X97851109Y-71729155D01*
X97851111Y-71729155D01*
X97851112Y-71729156D01*
X97911313Y-71746832D01*
X97928164Y-71752441D01*
X97986954Y-71774369D01*
X98048275Y-71787707D01*
X98065483Y-71792099D01*
X98125678Y-71809775D01*
X98187785Y-71818704D01*
X98205238Y-71821853D01*
X98266572Y-71835196D01*
X98329166Y-71839672D01*
X98346831Y-71841572D01*
X98380347Y-71846391D01*
X98408920Y-71850500D01*
X98408921Y-71850500D01*
X98471654Y-71850500D01*
X98489416Y-71851134D01*
X98491931Y-71851313D01*
X98552000Y-71855610D01*
X98612068Y-71851313D01*
X98614584Y-71851134D01*
X98632346Y-71850500D01*
X98695075Y-71850500D01*
X98695079Y-71850500D01*
X98757204Y-71841567D01*
X98774816Y-71839673D01*
X98837428Y-71835196D01*
X98898751Y-71821855D01*
X98916223Y-71818702D01*
X98978322Y-71809775D01*
X99038522Y-71792097D01*
X99055704Y-71787712D01*
X99117046Y-71774369D01*
X99175852Y-71752434D01*
X99192667Y-71746837D01*
X99252888Y-71729156D01*
X99309985Y-71703079D01*
X99326342Y-71696304D01*
X99385161Y-71674367D01*
X99440220Y-71644301D01*
X99456103Y-71636350D01*
X99513187Y-71610282D01*
X99565987Y-71576348D01*
X99581243Y-71567296D01*
X99636315Y-71537226D01*
X99686543Y-71499624D01*
X99701127Y-71489499D01*
X99753917Y-71455574D01*
X99801327Y-71414491D01*
X99815169Y-71403338D01*
X99865392Y-71365741D01*
X99865391Y-71365741D01*
X99865395Y-71365739D01*
X100067739Y-71163395D01*
X100185344Y-71045790D01*
X100185360Y-71045773D01*
X101085704Y-70145430D01*
X101166486Y-70091454D01*
X101261774Y-70072500D01*
X102008559Y-70072500D01*
X102103847Y-70091454D01*
X102184629Y-70145430D01*
X102238605Y-70226212D01*
X102247466Y-70251330D01*
X102257583Y-70285782D01*
X102260846Y-70296894D01*
X102286906Y-70353958D01*
X102293707Y-70370377D01*
X102315631Y-70429157D01*
X102345701Y-70484227D01*
X102353655Y-70500117D01*
X102379718Y-70557187D01*
X102379719Y-70557188D01*
X102413639Y-70609970D01*
X102422705Y-70625251D01*
X102452770Y-70680310D01*
X102490367Y-70730534D01*
X102500502Y-70745131D01*
X102513171Y-70764844D01*
X102534426Y-70797917D01*
X102545924Y-70811187D01*
X102575513Y-70845334D01*
X102586665Y-70859173D01*
X102624261Y-70909395D01*
X102674913Y-70960048D01*
X103894261Y-72179395D01*
X104096606Y-72381740D01*
X104146826Y-72419334D01*
X104160657Y-72430479D01*
X104208082Y-72471573D01*
X104208084Y-72471574D01*
X104260856Y-72505489D01*
X104275457Y-72515626D01*
X104325685Y-72553226D01*
X104380747Y-72583293D01*
X104396030Y-72592361D01*
X104443204Y-72622677D01*
X104448813Y-72626282D01*
X104505893Y-72652349D01*
X104521775Y-72660300D01*
X104576836Y-72690366D01*
X104589030Y-72694914D01*
X104635622Y-72712291D01*
X104652040Y-72719092D01*
X104655776Y-72720798D01*
X104709111Y-72745156D01*
X104769308Y-72762831D01*
X104786158Y-72768439D01*
X104844954Y-72790369D01*
X104906283Y-72803710D01*
X104923475Y-72808098D01*
X104983677Y-72825775D01*
X105045784Y-72834704D01*
X105063248Y-72837856D01*
X105124572Y-72851196D01*
X105187171Y-72855673D01*
X105204824Y-72857571D01*
X105266921Y-72866500D01*
X105329654Y-72866500D01*
X105347416Y-72867134D01*
X105349931Y-72867313D01*
X105410000Y-72871610D01*
X105470068Y-72867313D01*
X105472584Y-72867134D01*
X105490346Y-72866500D01*
X105553075Y-72866500D01*
X105553079Y-72866500D01*
X105615204Y-72857567D01*
X105632816Y-72855673D01*
X105695428Y-72851196D01*
X105756751Y-72837855D01*
X105774223Y-72834702D01*
X105836322Y-72825775D01*
X105896522Y-72808097D01*
X105913704Y-72803712D01*
X105975046Y-72790369D01*
X106033860Y-72768431D01*
X106050693Y-72762830D01*
X106110888Y-72745156D01*
X106167973Y-72719085D01*
X106184355Y-72712300D01*
X106243161Y-72690367D01*
X106298246Y-72660287D01*
X106314119Y-72652342D01*
X106371186Y-72626282D01*
X106423973Y-72592356D01*
X106439250Y-72583293D01*
X106456734Y-72573745D01*
X106494315Y-72553226D01*
X106544552Y-72515618D01*
X106559126Y-72505499D01*
X106611917Y-72471573D01*
X106659343Y-72430476D01*
X106673143Y-72419356D01*
X106723395Y-72381739D01*
X106767771Y-72337361D01*
X106780771Y-72325259D01*
X106828180Y-72284180D01*
X106869263Y-72236765D01*
X106881361Y-72223771D01*
X106925739Y-72179395D01*
X106963356Y-72129143D01*
X106974476Y-72115343D01*
X107015573Y-72067917D01*
X107049499Y-72015126D01*
X107059618Y-72000552D01*
X107097226Y-71950315D01*
X107127293Y-71895250D01*
X107136356Y-71879973D01*
X107170282Y-71827186D01*
X107196342Y-71770119D01*
X107204287Y-71754246D01*
X107234367Y-71699161D01*
X107256300Y-71640355D01*
X107263085Y-71623973D01*
X107289156Y-71566888D01*
X107306830Y-71506693D01*
X107312431Y-71489860D01*
X107334369Y-71431046D01*
X107347712Y-71369704D01*
X107352097Y-71352522D01*
X107369775Y-71292322D01*
X107378702Y-71230223D01*
X107381855Y-71212751D01*
X107395196Y-71151428D01*
X107399673Y-71088816D01*
X107401567Y-71071204D01*
X107410500Y-71009079D01*
X107410500Y-70946344D01*
X107411134Y-70928582D01*
X107412506Y-70909395D01*
X107415610Y-70866000D01*
X107411134Y-70803416D01*
X107410500Y-70785654D01*
X107410500Y-70722921D01*
X107408056Y-70705922D01*
X107401571Y-70660824D01*
X107399672Y-70643162D01*
X107399510Y-70640899D01*
X107395196Y-70580572D01*
X107381856Y-70519248D01*
X107378704Y-70501784D01*
X107369775Y-70439677D01*
X107352098Y-70379475D01*
X107347708Y-70362274D01*
X107345899Y-70353958D01*
X107334369Y-70300954D01*
X107334368Y-70300951D01*
X107330583Y-70283552D01*
X107333237Y-70282974D01*
X107321975Y-70213511D01*
X107344310Y-70118958D01*
X107401129Y-70040150D01*
X107483781Y-69989085D01*
X107568156Y-69973392D01*
X119126000Y-69850000D01*
X119125999Y-69563499D01*
X119144954Y-69468212D01*
X119198930Y-69387430D01*
X119279712Y-69333454D01*
X119375000Y-69314500D01*
X124148741Y-69314500D01*
X124244029Y-69333454D01*
X124324811Y-69387430D01*
X124378787Y-69468212D01*
X124380706Y-69472984D01*
X124401606Y-69526544D01*
X124404232Y-69533273D01*
X124469838Y-69643374D01*
X124531524Y-69746897D01*
X124692237Y-69936650D01*
X124877035Y-70093166D01*
X124881994Y-70097366D01*
X125088877Y-70220641D01*
X125095617Y-70224657D01*
X125291149Y-70300954D01*
X125327274Y-70315050D01*
X125570651Y-70366081D01*
X125674046Y-70372500D01*
X125677915Y-70372500D01*
X127435861Y-70372500D01*
X127439730Y-70372500D01*
X127543125Y-70366081D01*
X127786502Y-70315050D01*
X128018161Y-70224656D01*
X128231782Y-70097366D01*
X128421538Y-69936650D01*
X128582254Y-69746894D01*
X128709544Y-69533273D01*
X128712170Y-69526541D01*
X128764462Y-69444663D01*
X128844110Y-69389027D01*
X128938985Y-69368105D01*
X128965840Y-69369000D01*
X129056884Y-69376965D01*
X129283497Y-69357140D01*
X129503210Y-69298267D01*
X129709373Y-69202133D01*
X129782359Y-69151027D01*
X129782359Y-69151025D01*
X129101288Y-68469953D01*
X129182036Y-68457165D01*
X129294933Y-68399641D01*
X129384529Y-68310045D01*
X129442053Y-68197148D01*
X129454841Y-68116400D01*
X130135913Y-68797471D01*
X130135915Y-68797471D01*
X130187021Y-68724485D01*
X130283153Y-68518327D01*
X130320483Y-68379011D01*
X130363454Y-68291876D01*
X130436499Y-68227817D01*
X130528498Y-68196587D01*
X130625445Y-68202941D01*
X130712580Y-68245912D01*
X130776639Y-68318957D01*
X130807869Y-68410956D01*
X130809999Y-68443457D01*
X130809999Y-76977511D01*
X130791045Y-77072799D01*
X130737069Y-77153581D01*
X130656287Y-77207557D01*
X130560999Y-77226511D01*
X130465711Y-77207557D01*
X130384929Y-77153581D01*
X130374633Y-77142643D01*
X130299209Y-77057507D01*
X130294805Y-77053411D01*
X130294798Y-77053404D01*
X130018342Y-76796298D01*
X129998106Y-76777478D01*
X129671382Y-76527818D01*
X129666274Y-76524645D01*
X129666268Y-76524641D01*
X129327202Y-76314033D01*
X129327199Y-76314031D01*
X129322087Y-76310856D01*
X129056399Y-76179500D01*
X128958875Y-76131284D01*
X128958869Y-76131281D01*
X128953484Y-76128619D01*
X128778523Y-76062265D01*
X128574629Y-75984938D01*
X128574624Y-75984936D01*
X128569012Y-75982808D01*
X128563213Y-75981229D01*
X128178065Y-75876364D01*
X128178051Y-75876360D01*
X128172263Y-75874785D01*
X128151841Y-75871297D01*
X127772874Y-75806571D01*
X127772863Y-75806569D01*
X127766940Y-75805558D01*
X127760948Y-75805122D01*
X127760933Y-75805121D01*
X127362823Y-75776209D01*
X127362815Y-75776208D01*
X127356828Y-75775774D01*
X127350821Y-75775919D01*
X127350815Y-75775919D01*
X126951784Y-75785563D01*
X126951777Y-75785563D01*
X126945756Y-75785709D01*
X126939771Y-75786435D01*
X126939767Y-75786436D01*
X126543546Y-75834546D01*
X126543537Y-75834547D01*
X126537562Y-75835273D01*
X126531693Y-75836569D01*
X126531681Y-75836572D01*
X126141923Y-75922705D01*
X126141910Y-75922708D01*
X126136057Y-75924002D01*
X126130345Y-75925857D01*
X126130341Y-75925859D01*
X125750718Y-76049205D01*
X125750702Y-76049211D01*
X125744990Y-76051067D01*
X125739482Y-76053466D01*
X125739467Y-76053472D01*
X125373529Y-76212879D01*
X125373516Y-76212885D01*
X125368012Y-76215283D01*
X125362766Y-76218199D01*
X125362754Y-76218206D01*
X125013900Y-76412192D01*
X125013888Y-76412199D01*
X125008643Y-76415116D01*
X125003707Y-76418523D01*
X125003691Y-76418533D01*
X124675187Y-76645283D01*
X124675178Y-76645289D01*
X124670239Y-76648699D01*
X124665662Y-76652560D01*
X124665647Y-76652572D01*
X124360550Y-76909978D01*
X124360540Y-76909986D01*
X124355958Y-76913853D01*
X124351763Y-76918149D01*
X124351755Y-76918158D01*
X124072943Y-77203791D01*
X124072932Y-77203802D01*
X124068736Y-77208102D01*
X124064966Y-77212795D01*
X124064966Y-77212796D01*
X123821157Y-77516367D01*
X123811253Y-77528698D01*
X123807954Y-77533733D01*
X123807950Y-77533739D01*
X123589217Y-77867606D01*
X123589206Y-77867624D01*
X123585915Y-77872648D01*
X123583120Y-77877973D01*
X123583112Y-77877987D01*
X123397627Y-78231399D01*
X123397621Y-78231410D01*
X123394824Y-78236741D01*
X123392562Y-78242296D01*
X123392553Y-78242316D01*
X123242033Y-78612006D01*
X123242027Y-78612021D01*
X123239766Y-78617576D01*
X123238049Y-78623329D01*
X123238044Y-78623344D01*
X123161746Y-78879032D01*
X123122187Y-79011600D01*
X123121032Y-79017496D01*
X123121032Y-79017499D01*
X123044340Y-79409231D01*
X123044336Y-79409252D01*
X123043186Y-79415131D01*
X123042607Y-79421099D01*
X123042606Y-79421108D01*
X123004507Y-79814023D01*
X123003500Y-79824404D01*
X123003500Y-82632730D01*
X123003644Y-82635721D01*
X123003645Y-82635734D01*
X123018105Y-82934691D01*
X123018106Y-82934706D01*
X123018397Y-82940712D01*
X123019265Y-82946662D01*
X123019267Y-82946674D01*
X123058775Y-83217232D01*
X123077810Y-83347589D01*
X123079247Y-83353420D01*
X123079249Y-83353429D01*
X123174775Y-83740993D01*
X123174778Y-83741003D01*
X123176215Y-83746833D01*
X123178204Y-83752487D01*
X123178208Y-83752499D01*
X123309226Y-84124865D01*
X123312692Y-84134715D01*
X123315217Y-84140150D01*
X123315222Y-84140161D01*
X123402771Y-84328569D01*
X123485969Y-84507615D01*
X123489021Y-84512804D01*
X123489023Y-84512808D01*
X123691375Y-84856862D01*
X123691382Y-84856872D01*
X123694427Y-84862050D01*
X123936120Y-85194712D01*
X124208791Y-85502493D01*
X124213194Y-85506587D01*
X124213201Y-85506595D01*
X124296062Y-85583656D01*
X124509894Y-85782522D01*
X124836618Y-86032182D01*
X125185913Y-86249144D01*
X125554516Y-86431381D01*
X125938988Y-86577192D01*
X126335737Y-86685215D01*
X126741060Y-86754442D01*
X127151172Y-86784226D01*
X127562244Y-86774291D01*
X127970438Y-86724727D01*
X128371943Y-86635998D01*
X128763010Y-86508933D01*
X129139988Y-86344717D01*
X129499357Y-86144884D01*
X129837761Y-85911301D01*
X130152042Y-85646147D01*
X130382816Y-85409726D01*
X130462939Y-85354778D01*
X130557991Y-85334674D01*
X130653501Y-85352475D01*
X130734929Y-85405472D01*
X130789878Y-85485595D01*
X130809982Y-85580647D01*
X130810000Y-85583656D01*
X130810000Y-87480860D01*
X130791046Y-87576148D01*
X130737070Y-87656930D01*
X130582930Y-87811070D01*
X130502148Y-87865046D01*
X130406860Y-87884000D01*
X113171947Y-87884000D01*
X113076659Y-87865046D01*
X112995877Y-87811070D01*
X112941901Y-87730288D01*
X112922947Y-87635000D01*
X112941901Y-87539712D01*
X112995877Y-87458930D01*
X113011011Y-87444997D01*
X113058650Y-87404650D01*
X113219366Y-87214894D01*
X113346656Y-87001273D01*
X113437050Y-86769614D01*
X113488081Y-86526237D01*
X113494500Y-86422842D01*
X113494500Y-84142999D01*
X113513454Y-84047712D01*
X113567430Y-83966930D01*
X113648212Y-83912954D01*
X113743500Y-83894000D01*
X114062504Y-83894000D01*
X114157792Y-83912954D01*
X114238574Y-83966930D01*
X114292550Y-84047712D01*
X114311504Y-84143000D01*
X114292550Y-84238288D01*
X114278144Y-84267500D01*
X114242885Y-84328569D01*
X114147058Y-84572734D01*
X114088694Y-84828442D01*
X114069093Y-85089999D01*
X114088694Y-85351557D01*
X114147058Y-85607265D01*
X114242884Y-85851426D01*
X114374028Y-86078574D01*
X114421873Y-86138570D01*
X115221452Y-85338991D01*
X115231188Y-85368956D01*
X115319186Y-85507619D01*
X115438903Y-85620040D01*
X115573511Y-85694041D01*
X114774832Y-86492721D01*
X114946547Y-86609794D01*
X115182860Y-86723597D01*
X115433493Y-86800907D01*
X115692856Y-86840000D01*
X115955144Y-86840000D01*
X116214506Y-86800907D01*
X116465139Y-86723596D01*
X116701450Y-86609796D01*
X116873166Y-86492721D01*
X116071532Y-85691087D01*
X116139629Y-85664126D01*
X116272492Y-85567595D01*
X116377175Y-85441055D01*
X116425632Y-85338077D01*
X117226125Y-86138570D01*
X117273969Y-86078576D01*
X117405115Y-85851426D01*
X117500941Y-85607265D01*
X117559305Y-85351557D01*
X117578906Y-85089999D01*
X117559305Y-84828442D01*
X117500941Y-84572734D01*
X117405114Y-84328569D01*
X117273972Y-84101426D01*
X117226124Y-84041427D01*
X116426547Y-84841005D01*
X116416812Y-84811044D01*
X116328814Y-84672381D01*
X116209097Y-84559960D01*
X116074486Y-84485956D01*
X116873167Y-83687276D01*
X116872335Y-83678407D01*
X116828914Y-83634165D01*
X116792576Y-83544061D01*
X116793485Y-83446911D01*
X116831502Y-83357503D01*
X116840740Y-83344831D01*
X116940055Y-83217232D01*
X117058365Y-82998612D01*
X117139084Y-82763486D01*
X117159023Y-82644000D01*
X116113686Y-82644000D01*
X116139493Y-82603844D01*
X116180000Y-82465889D01*
X116180000Y-82322111D01*
X116139493Y-82184156D01*
X116113686Y-82144000D01*
X117159022Y-82144000D01*
X117159022Y-82143999D01*
X117139084Y-82024513D01*
X117058365Y-81789387D01*
X116940055Y-81570767D01*
X116787367Y-81374595D01*
X116604475Y-81206231D01*
X116396372Y-81070269D01*
X116168717Y-80970411D01*
X115927738Y-80909387D01*
X115747175Y-80894425D01*
X115736887Y-80894000D01*
X114830001Y-80894000D01*
X114829999Y-80894001D01*
X114829999Y-81894000D01*
X114330000Y-81894000D01*
X114330000Y-80894001D01*
X114329999Y-80894000D01*
X113423113Y-80894000D01*
X113412824Y-80894425D01*
X113232261Y-80909387D01*
X112991282Y-80970411D01*
X112763627Y-81070269D01*
X112555524Y-81206231D01*
X112372632Y-81374595D01*
X112219944Y-81570767D01*
X112101634Y-81789387D01*
X112020915Y-82024512D01*
X112003065Y-82131484D01*
X111968685Y-82222353D01*
X111902149Y-82293149D01*
X111813585Y-82333092D01*
X111757461Y-82339500D01*
X109411158Y-82339500D01*
X109407308Y-82339739D01*
X109407276Y-82339740D01*
X109307764Y-82345918D01*
X109064386Y-82396949D01*
X108832729Y-82487342D01*
X108619102Y-82614636D01*
X108429349Y-82775349D01*
X108268636Y-82965102D01*
X108141342Y-83178729D01*
X108050949Y-83410386D01*
X107999918Y-83653764D01*
X107993740Y-83753276D01*
X107993739Y-83753308D01*
X107993500Y-83757158D01*
X107993500Y-86422842D01*
X107993739Y-86426692D01*
X107993740Y-86426723D01*
X107999918Y-86526235D01*
X108050949Y-86769613D01*
X108141342Y-87001270D01*
X108268636Y-87214897D01*
X108429346Y-87404646D01*
X108429348Y-87404647D01*
X108429350Y-87404650D01*
X108476983Y-87444993D01*
X108537445Y-87521041D01*
X108564203Y-87614438D01*
X108553182Y-87710966D01*
X108506061Y-87795929D01*
X108430012Y-87856392D01*
X108336615Y-87883150D01*
X108316053Y-87884000D01*
X106899531Y-87884000D01*
X106804243Y-87865046D01*
X106723461Y-87811070D01*
X106669485Y-87730288D01*
X106650531Y-87635000D01*
X106669485Y-87539712D01*
X106698083Y-87488645D01*
X106799916Y-87348484D01*
X106951494Y-87072766D01*
X107067319Y-86780225D01*
X107145566Y-86475473D01*
X107185000Y-86163318D01*
X107185000Y-85848682D01*
X107145566Y-85536527D01*
X107067319Y-85231775D01*
X106951494Y-84939234D01*
X106799916Y-84663516D01*
X106614978Y-84408970D01*
X106399594Y-84179610D01*
X106351909Y-84140161D01*
X106163191Y-83984039D01*
X106163182Y-83984033D01*
X106157163Y-83979053D01*
X106098307Y-83941702D01*
X105898112Y-83814654D01*
X105898104Y-83814649D01*
X105891507Y-83810463D01*
X105884437Y-83807136D01*
X105884426Y-83807130D01*
X105613898Y-83679830D01*
X105613897Y-83679829D01*
X105606815Y-83676497D01*
X105367634Y-83598782D01*
X105315018Y-83581686D01*
X105315016Y-83581685D01*
X105307579Y-83579269D01*
X105287368Y-83575413D01*
X105006199Y-83521777D01*
X105006186Y-83521775D01*
X104998515Y-83520312D01*
X104990717Y-83519821D01*
X104990706Y-83519820D01*
X104766969Y-83505744D01*
X104766953Y-83505743D01*
X104763083Y-83505500D01*
X104605917Y-83505500D01*
X104602047Y-83505743D01*
X104602030Y-83505744D01*
X104378293Y-83519820D01*
X104378280Y-83519821D01*
X104370485Y-83520312D01*
X104362815Y-83521775D01*
X104362800Y-83521777D01*
X104069100Y-83577804D01*
X104069097Y-83577804D01*
X104061421Y-83579269D01*
X104053987Y-83581684D01*
X104053981Y-83581686D01*
X103769632Y-83674077D01*
X103769627Y-83674078D01*
X103762185Y-83676497D01*
X103755107Y-83679827D01*
X103755101Y-83679830D01*
X103484573Y-83807130D01*
X103484555Y-83807139D01*
X103477493Y-83810463D01*
X103470902Y-83814645D01*
X103470887Y-83814654D01*
X103218443Y-83974860D01*
X103218435Y-83974865D01*
X103211837Y-83979053D01*
X103205824Y-83984027D01*
X103205808Y-83984039D01*
X102975426Y-84174629D01*
X102975418Y-84174635D01*
X102969406Y-84179610D01*
X102964055Y-84185307D01*
X102964053Y-84185310D01*
X102759381Y-84403262D01*
X102759372Y-84403272D01*
X102754022Y-84408970D01*
X102749422Y-84415301D01*
X102749419Y-84415305D01*
X102573684Y-84657183D01*
X102573675Y-84657195D01*
X102569084Y-84663516D01*
X102565320Y-84670361D01*
X102565314Y-84670372D01*
X102421274Y-84932379D01*
X102421270Y-84932386D01*
X102417506Y-84939234D01*
X102414631Y-84946494D01*
X102414625Y-84946508D01*
X102341526Y-85131138D01*
X102301681Y-85231775D01*
X102299734Y-85239357D01*
X102299732Y-85239364D01*
X102225381Y-85528940D01*
X102225378Y-85528955D01*
X102223434Y-85536527D01*
X102222455Y-85544275D01*
X102222452Y-85544292D01*
X102191896Y-85786178D01*
X102184000Y-85848682D01*
X102184000Y-86163318D01*
X102184979Y-86171074D01*
X102184980Y-86171077D01*
X102222452Y-86467707D01*
X102222454Y-86467721D01*
X102223434Y-86475473D01*
X102225378Y-86483047D01*
X102225381Y-86483059D01*
X102299732Y-86772635D01*
X102301681Y-86780225D01*
X102304566Y-86787511D01*
X102414625Y-87065491D01*
X102414628Y-87065499D01*
X102417506Y-87072766D01*
X102421273Y-87079619D01*
X102421274Y-87079620D01*
X102495643Y-87214897D01*
X102569084Y-87348484D01*
X102670915Y-87488643D01*
X102711589Y-87576873D01*
X102715403Y-87673953D01*
X102681776Y-87765103D01*
X102615827Y-87836446D01*
X102527596Y-87877120D01*
X102469469Y-87884000D01*
X21739140Y-87884000D01*
X21643852Y-87865046D01*
X21563070Y-87811070D01*
X21408930Y-87656930D01*
X21354954Y-87576148D01*
X21336000Y-87480860D01*
X21336000Y-84918917D01*
X21354954Y-84823629D01*
X21408930Y-84742847D01*
X21489712Y-84688871D01*
X21585000Y-84669917D01*
X21680288Y-84688871D01*
X21761070Y-84742847D01*
X21799630Y-84792684D01*
X21837375Y-84856862D01*
X21837382Y-84856872D01*
X21840427Y-84862050D01*
X22082120Y-85194712D01*
X22354791Y-85502493D01*
X22359194Y-85506587D01*
X22359201Y-85506595D01*
X22442062Y-85583656D01*
X22655894Y-85782522D01*
X22982618Y-86032182D01*
X23331913Y-86249144D01*
X23700516Y-86431381D01*
X24084988Y-86577192D01*
X24481737Y-86685215D01*
X24887060Y-86754442D01*
X25297172Y-86784226D01*
X25708244Y-86774291D01*
X26116438Y-86724727D01*
X26517943Y-86635998D01*
X26909010Y-86508933D01*
X27285988Y-86344717D01*
X27645357Y-86144884D01*
X27983761Y-85911301D01*
X28298042Y-85646147D01*
X28585264Y-85351898D01*
X28842747Y-85031302D01*
X29068085Y-84687352D01*
X29259176Y-84323259D01*
X29414234Y-83942424D01*
X29531813Y-83548400D01*
X29610814Y-83144869D01*
X29631649Y-82930000D01*
X35287878Y-82930000D01*
X36690772Y-82930000D01*
X36668400Y-82977543D01*
X36637627Y-83138862D01*
X36647939Y-83302766D01*
X36689280Y-83430000D01*
X35288661Y-83430000D01*
X35325036Y-83598782D01*
X35415478Y-83823855D01*
X35542662Y-84030415D01*
X35702923Y-84212507D01*
X35891651Y-84364895D01*
X36103418Y-84483194D01*
X36332134Y-84564006D01*
X36571213Y-84605000D01*
X37041499Y-84605000D01*
X37041500Y-84604999D01*
X37041500Y-83784310D01*
X37050317Y-83789158D01*
X37209386Y-83830000D01*
X37332394Y-83830000D01*
X37454433Y-83814583D01*
X37541500Y-83780110D01*
X37541500Y-84604999D01*
X37541501Y-84605000D01*
X37945738Y-84605000D01*
X37956309Y-84604550D01*
X38132198Y-84589581D01*
X38366936Y-84528459D01*
X38587978Y-84428542D01*
X38788951Y-84292708D01*
X38964075Y-84124864D01*
X39108313Y-83929841D01*
X39217523Y-83713236D01*
X39288552Y-83481306D01*
X39295122Y-83430000D01*
X37892228Y-83430000D01*
X37914600Y-83382457D01*
X37945373Y-83221138D01*
X37935061Y-83057234D01*
X37893720Y-82930000D01*
X39294339Y-82930000D01*
X39257963Y-82761217D01*
X39167521Y-82536144D01*
X39040337Y-82329584D01*
X38880076Y-82147492D01*
X38691348Y-81995104D01*
X38479581Y-81876805D01*
X38250865Y-81795993D01*
X38011787Y-81755000D01*
X37541501Y-81755000D01*
X37541500Y-81755001D01*
X37541500Y-82575689D01*
X37532683Y-82570842D01*
X37373614Y-82530000D01*
X37250606Y-82530000D01*
X37128567Y-82545417D01*
X37041500Y-82579889D01*
X37041500Y-81755001D01*
X37041499Y-81755000D01*
X36637262Y-81755000D01*
X36626690Y-81755449D01*
X36450801Y-81770418D01*
X36216063Y-81831540D01*
X35995021Y-81931457D01*
X35794048Y-82067291D01*
X35618924Y-82235135D01*
X35474686Y-82430158D01*
X35365476Y-82646763D01*
X35294447Y-82878693D01*
X35287878Y-82930000D01*
X29631649Y-82930000D01*
X29650500Y-82735596D01*
X29650500Y-79927270D01*
X29635603Y-79619288D01*
X29576190Y-79212411D01*
X29477785Y-78813167D01*
X29341308Y-78425285D01*
X29335777Y-78413383D01*
X29228500Y-78182517D01*
X29168031Y-78052385D01*
X29059355Y-77867606D01*
X28962624Y-77703137D01*
X28962620Y-77703132D01*
X28959573Y-77697950D01*
X28717880Y-77365288D01*
X28445209Y-77057507D01*
X28440805Y-77053411D01*
X28440798Y-77053404D01*
X28164342Y-76796298D01*
X28144106Y-76777478D01*
X27817382Y-76527818D01*
X27812274Y-76524645D01*
X27812268Y-76524641D01*
X27473202Y-76314033D01*
X27473199Y-76314031D01*
X27468087Y-76310856D01*
X27202399Y-76179500D01*
X27104875Y-76131284D01*
X27104869Y-76131281D01*
X27099484Y-76128619D01*
X26924523Y-76062265D01*
X26720629Y-75984938D01*
X26720624Y-75984936D01*
X26715012Y-75982808D01*
X26709213Y-75981229D01*
X26324065Y-75876364D01*
X26324051Y-75876360D01*
X26318263Y-75874785D01*
X26297841Y-75871297D01*
X25918874Y-75806571D01*
X25918863Y-75806569D01*
X25912940Y-75805558D01*
X25906948Y-75805122D01*
X25906933Y-75805121D01*
X25508823Y-75776209D01*
X25508815Y-75776208D01*
X25502828Y-75775774D01*
X25496821Y-75775919D01*
X25496815Y-75775919D01*
X25097784Y-75785563D01*
X25097777Y-75785563D01*
X25091756Y-75785709D01*
X25085771Y-75786435D01*
X25085767Y-75786436D01*
X24689546Y-75834546D01*
X24689537Y-75834547D01*
X24683562Y-75835273D01*
X24677693Y-75836569D01*
X24677681Y-75836572D01*
X24287923Y-75922705D01*
X24287910Y-75922708D01*
X24282057Y-75924002D01*
X24276345Y-75925857D01*
X24276341Y-75925859D01*
X23896718Y-76049205D01*
X23896702Y-76049211D01*
X23890990Y-76051067D01*
X23885482Y-76053466D01*
X23885467Y-76053472D01*
X23519529Y-76212879D01*
X23519516Y-76212885D01*
X23514012Y-76215283D01*
X23508766Y-76218199D01*
X23508754Y-76218206D01*
X23159900Y-76412192D01*
X23159888Y-76412199D01*
X23154643Y-76415116D01*
X23149707Y-76418523D01*
X23149691Y-76418533D01*
X22821187Y-76645283D01*
X22821178Y-76645289D01*
X22816239Y-76648699D01*
X22811662Y-76652560D01*
X22811647Y-76652572D01*
X22506550Y-76909978D01*
X22506540Y-76909986D01*
X22501958Y-76913853D01*
X22497763Y-76918149D01*
X22497755Y-76918158D01*
X22218943Y-77203791D01*
X22218932Y-77203802D01*
X22214736Y-77208102D01*
X22210966Y-77212795D01*
X22210966Y-77212796D01*
X21967157Y-77516367D01*
X21957253Y-77528698D01*
X21953954Y-77533733D01*
X21953950Y-77533739D01*
X21793281Y-77778980D01*
X21725207Y-77848299D01*
X21635789Y-77886290D01*
X21538638Y-77887171D01*
X21448545Y-77850806D01*
X21379226Y-77782732D01*
X21341235Y-77693314D01*
X21336000Y-77642525D01*
X21336000Y-59424831D01*
X21354954Y-59329543D01*
X21408930Y-59248761D01*
X21489712Y-59194785D01*
X21585000Y-59175831D01*
X21680288Y-59194785D01*
X21761070Y-59248761D01*
X21784335Y-59275611D01*
X21871882Y-59392560D01*
X22774802Y-58489639D01*
X22798059Y-58543553D01*
X22902756Y-58684185D01*
X23037062Y-58796882D01*
X23128666Y-58842887D01*
X22225437Y-59746116D01*
X22367957Y-59852806D01*
X22619046Y-59989910D01*
X22887090Y-60089886D01*
X23166643Y-60150699D01*
X23452000Y-60171108D01*
X23737356Y-60150699D01*
X24016909Y-60089886D01*
X24284953Y-59989910D01*
X24536041Y-59852806D01*
X24678561Y-59746116D01*
X24678561Y-59746115D01*
X23777944Y-58845498D01*
X23790891Y-58840787D01*
X23937373Y-58744445D01*
X24057688Y-58616918D01*
X24130447Y-58490893D01*
X25032115Y-59392561D01*
X25032116Y-59392561D01*
X25138806Y-59250041D01*
X25275910Y-58998953D01*
X25375886Y-58730909D01*
X25436699Y-58451356D01*
X25457108Y-58166000D01*
X25436699Y-57880643D01*
X25375886Y-57601090D01*
X25275910Y-57333046D01*
X25138806Y-57081957D01*
X25032116Y-56939437D01*
X24129195Y-57842357D01*
X24105941Y-57788447D01*
X24001244Y-57647815D01*
X23866938Y-57535118D01*
X23775331Y-57489111D01*
X24678561Y-56585882D01*
X24536042Y-56479194D01*
X24284949Y-56342088D01*
X24016909Y-56242113D01*
X23737356Y-56181300D01*
X23451999Y-56160891D01*
X23166643Y-56181300D01*
X22887090Y-56242113D01*
X22619050Y-56342088D01*
X22367953Y-56479196D01*
X22225437Y-56585881D01*
X22225437Y-56585882D01*
X23126055Y-57486500D01*
X23113109Y-57491213D01*
X22966627Y-57587555D01*
X22846312Y-57715082D01*
X22773551Y-57841106D01*
X21871882Y-56939437D01*
X21784335Y-57056388D01*
X21712058Y-57121311D01*
X21620437Y-57153633D01*
X21523421Y-57148434D01*
X21435780Y-57106503D01*
X21370857Y-57034226D01*
X21338535Y-56942605D01*
X21336000Y-56907168D01*
X21336000Y-25435163D01*
X21354954Y-25339875D01*
X21408930Y-25259093D01*
X21489712Y-25205117D01*
X21585000Y-25186163D01*
X21680288Y-25205117D01*
X21761070Y-25259093D01*
X21807726Y-25323836D01*
X21877662Y-25463754D01*
X21881106Y-25469169D01*
X21881108Y-25469172D01*
X21986448Y-25634784D01*
X22085178Y-25790004D01*
X22089149Y-25795021D01*
X22089151Y-25795024D01*
X22207605Y-25944686D01*
X22325140Y-26093187D01*
X22329612Y-26097776D01*
X22329615Y-26097779D01*
X22351469Y-26120203D01*
X22595003Y-26370091D01*
X22891908Y-26617779D01*
X23058448Y-26729835D01*
X23162095Y-26799574D01*
X23212706Y-26833627D01*
X23553998Y-27015346D01*
X23912166Y-27161009D01*
X24283413Y-27269074D01*
X24663803Y-27338394D01*
X25049304Y-27368234D01*
X25435831Y-27358278D01*
X25819285Y-27308633D01*
X26195602Y-27219823D01*
X26560794Y-27092790D01*
X26910988Y-26928882D01*
X27242473Y-26729835D01*
X27551734Y-26497759D01*
X27835495Y-26235115D01*
X28090745Y-25944686D01*
X28314781Y-25629551D01*
X28505227Y-25293051D01*
X28660065Y-24938753D01*
X28777652Y-24570412D01*
X28856743Y-24191933D01*
X28896500Y-23807327D01*
X28896500Y-22517411D01*
X28881574Y-22227858D01*
X28822072Y-21845809D01*
X28723602Y-21471903D01*
X28703293Y-21418032D01*
X28589471Y-21116104D01*
X28589470Y-21116102D01*
X28587209Y-21110104D01*
X28414338Y-20764246D01*
X28206822Y-20437996D01*
X27966860Y-20134813D01*
X27953737Y-20121348D01*
X27820643Y-19984781D01*
X27696997Y-19857909D01*
X27400092Y-19610221D01*
X27374774Y-19593186D01*
X27084614Y-19397952D01*
X27084606Y-19397947D01*
X27079294Y-19394373D01*
X26738002Y-19212654D01*
X26560272Y-19140373D01*
X26385763Y-19069402D01*
X26385758Y-19069400D01*
X26379834Y-19066991D01*
X26373692Y-19065203D01*
X26373683Y-19065200D01*
X26014738Y-18960716D01*
X26014729Y-18960713D01*
X26008587Y-18958926D01*
X26002294Y-18957779D01*
X26002289Y-18957778D01*
X25634508Y-18890756D01*
X25634506Y-18890755D01*
X25628197Y-18889606D01*
X25621801Y-18889110D01*
X25621794Y-18889110D01*
X25249088Y-18860260D01*
X25249072Y-18860259D01*
X25242696Y-18859766D01*
X25236287Y-18859931D01*
X25236285Y-18859931D01*
X24862592Y-18869556D01*
X24862581Y-18869556D01*
X24856169Y-18869722D01*
X24849811Y-18870545D01*
X24849800Y-18870546D01*
X24479076Y-18918543D01*
X24479067Y-18918544D01*
X24472715Y-18919367D01*
X24466478Y-18920838D01*
X24466472Y-18920840D01*
X24102627Y-19006706D01*
X24102609Y-19006711D01*
X24096398Y-19008177D01*
X24090366Y-19010275D01*
X24090353Y-19010279D01*
X23737269Y-19133100D01*
X23737252Y-19133106D01*
X23731206Y-19135210D01*
X23725406Y-19137924D01*
X23725388Y-19137932D01*
X23386832Y-19296393D01*
X23386817Y-19296400D01*
X23381012Y-19299118D01*
X23375519Y-19302416D01*
X23375499Y-19302427D01*
X23055019Y-19494866D01*
X23055002Y-19494877D01*
X23049527Y-19498165D01*
X23044417Y-19501999D01*
X23044409Y-19502005D01*
X22745389Y-19726396D01*
X22745381Y-19726401D01*
X22740266Y-19730241D01*
X22735575Y-19734582D01*
X22735564Y-19734592D01*
X22461211Y-19988528D01*
X22461198Y-19988540D01*
X22456505Y-19992885D01*
X22452268Y-19997705D01*
X22452266Y-19997708D01*
X22292956Y-20178975D01*
X22201255Y-20283314D01*
X22197551Y-20288523D01*
X22197540Y-20288538D01*
X21980939Y-20593215D01*
X21980930Y-20593227D01*
X21977219Y-20598449D01*
X21840300Y-20840373D01*
X21801701Y-20908573D01*
X21738272Y-20982165D01*
X21651508Y-21025882D01*
X21554619Y-21033068D01*
X21462355Y-21002629D01*
X21388763Y-20939200D01*
X21345046Y-20852436D01*
X21336000Y-20785928D01*
X21336000Y-18691140D01*
X21354954Y-18595852D01*
X21408930Y-18515070D01*
X21563070Y-18360930D01*
X21643852Y-18306954D01*
X21739140Y-18288000D01*
X126070842Y-18288000D01*
X126166130Y-18306954D01*
G37*
%TD.AperFunction*%
%TA.AperFunction,Conductor*%
G36*
X114830000Y-83742445D02*
G01*
X115576467Y-84488912D01*
X115508371Y-84515874D01*
X115375508Y-84612405D01*
X115270825Y-84738945D01*
X115222367Y-84841921D01*
X114402930Y-84022484D01*
X114348954Y-83941702D01*
X114330000Y-83846414D01*
X114330000Y-82894000D01*
X114830000Y-82894000D01*
X114830000Y-83742445D01*
G37*
%TD.AperFunction*%
%TA.AperFunction,Conductor*%
G36*
X52780400Y-82977543D02*
G01*
X52749627Y-83138862D01*
X52759939Y-83302766D01*
X52801280Y-83430000D01*
X50392228Y-83430000D01*
X50414600Y-83382457D01*
X50445373Y-83221138D01*
X50435061Y-83057234D01*
X50393720Y-82930000D01*
X52802772Y-82930000D01*
X52780400Y-82977543D01*
G37*
%TD.AperFunction*%
%TA.AperFunction,Conductor*%
G36*
X130671128Y-62122547D02*
G01*
X130748206Y-62181691D01*
X130796784Y-62265829D01*
X130809999Y-62345869D01*
X130809999Y-67700542D01*
X130791045Y-67795830D01*
X130737069Y-67876612D01*
X130656287Y-67930588D01*
X130560999Y-67949542D01*
X130465711Y-67930588D01*
X130384929Y-67876612D01*
X130330953Y-67795830D01*
X130320483Y-67764988D01*
X130283154Y-67625674D01*
X130187020Y-67419514D01*
X130135914Y-67346527D01*
X129454841Y-68027599D01*
X129442053Y-67946852D01*
X129384529Y-67833955D01*
X129294933Y-67744359D01*
X129182036Y-67686835D01*
X129101288Y-67674046D01*
X129782359Y-66992972D01*
X129709373Y-66941867D01*
X129503207Y-66845731D01*
X129283497Y-66786859D01*
X129056887Y-66767034D01*
X128965838Y-66775000D01*
X128869260Y-66764422D01*
X128784082Y-66717691D01*
X128723271Y-66641922D01*
X128712169Y-66617455D01*
X128709544Y-66610727D01*
X128709543Y-66610726D01*
X128582254Y-66397106D01*
X128582251Y-66397102D01*
X128421538Y-66207349D01*
X128246924Y-66059458D01*
X128186461Y-65983410D01*
X128159703Y-65890012D01*
X128168345Y-65814314D01*
X128165267Y-65813612D01*
X128169420Y-65795416D01*
X128190297Y-65703942D01*
X128192519Y-65694981D01*
X128216805Y-65604350D01*
X128218921Y-65585565D01*
X128223594Y-65558064D01*
X128227802Y-65539630D01*
X128234812Y-65446072D01*
X128235681Y-65436810D01*
X128246180Y-65343637D01*
X128242674Y-65249936D01*
X128242500Y-65240625D01*
X128242500Y-64570638D01*
X128261454Y-64475350D01*
X128315430Y-64394568D01*
X128396212Y-64340592D01*
X128491500Y-64321638D01*
X128523764Y-64325885D01*
X128528000Y-64322636D01*
X128528000Y-63427501D01*
X128635685Y-63476680D01*
X128742237Y-63492000D01*
X128813763Y-63492000D01*
X128920315Y-63476680D01*
X129027999Y-63427501D01*
X129027999Y-64322633D01*
X129241490Y-64265430D01*
X129455579Y-64165599D01*
X129649077Y-64030110D01*
X129816110Y-63863077D01*
X129951599Y-63669579D01*
X130051432Y-63455486D01*
X130108636Y-63242000D01*
X129328128Y-63242000D01*
X129232840Y-63223046D01*
X129226562Y-63218851D01*
X129237493Y-63201844D01*
X129278000Y-63063889D01*
X129278000Y-62920111D01*
X129237493Y-62782156D01*
X129227462Y-62766547D01*
X129232840Y-62762954D01*
X129279547Y-62748785D01*
X129289601Y-62746785D01*
X129338182Y-62742000D01*
X130108636Y-62742000D01*
X130108635Y-62741999D01*
X130074780Y-62615649D01*
X130068425Y-62518702D01*
X130099654Y-62426703D01*
X130163713Y-62353658D01*
X130176932Y-62344185D01*
X130211964Y-62320778D01*
X130218100Y-62315396D01*
X130218105Y-62315393D01*
X130396821Y-62158662D01*
X130480959Y-62110084D01*
X130577283Y-62097402D01*
X130671128Y-62122547D01*
G37*
%TD.AperFunction*%
%TA.AperFunction,Conductor*%
G36*
X122587605Y-56472506D02*
G01*
X122597457Y-56474370D01*
X122706608Y-56480500D01*
X123222500Y-56480500D01*
X123317788Y-56499454D01*
X123398570Y-56553430D01*
X123452546Y-56634212D01*
X123471500Y-56729500D01*
X123471500Y-56928500D01*
X123452546Y-57023788D01*
X123398570Y-57104570D01*
X123317788Y-57158546D01*
X123222500Y-57177500D01*
X122748221Y-57177500D01*
X122652933Y-57158546D01*
X122572151Y-57104570D01*
X122422212Y-56954631D01*
X122415752Y-56947924D01*
X122358785Y-56886528D01*
X122307867Y-56803785D01*
X122292489Y-56707854D01*
X122314993Y-56613341D01*
X122371952Y-56534635D01*
X122454695Y-56483717D01*
X122550626Y-56468339D01*
X122587605Y-56472506D01*
G37*
%TD.AperFunction*%
%TA.AperFunction,Conductor*%
G36*
X130671128Y-53247547D02*
G01*
X130748206Y-53306691D01*
X130796784Y-53390829D01*
X130809999Y-53470869D01*
X130809999Y-55581403D01*
X130791045Y-55676691D01*
X130737069Y-55757473D01*
X130656287Y-55811449D01*
X130560999Y-55830403D01*
X130465711Y-55811449D01*
X130433540Y-55795308D01*
X130289270Y-55709342D01*
X130057613Y-55618949D01*
X129835256Y-55572326D01*
X129814237Y-55567919D01*
X129814236Y-55567918D01*
X129796576Y-55564216D01*
X129797041Y-55561993D01*
X129727135Y-55543516D01*
X129649856Y-55484634D01*
X129600993Y-55400661D01*
X129587984Y-55304381D01*
X129612811Y-55210452D01*
X129660436Y-55143752D01*
X129816108Y-54988080D01*
X129951599Y-54794579D01*
X130051432Y-54580486D01*
X130108636Y-54367000D01*
X129328128Y-54367000D01*
X129232840Y-54348046D01*
X129226562Y-54343851D01*
X129237493Y-54326844D01*
X129278000Y-54188889D01*
X129278000Y-54045111D01*
X129237493Y-53907156D01*
X129227462Y-53891547D01*
X129232840Y-53887954D01*
X129279547Y-53873785D01*
X129289601Y-53871785D01*
X129338182Y-53867000D01*
X130108636Y-53867000D01*
X130108635Y-53866999D01*
X130074780Y-53740649D01*
X130068425Y-53643702D01*
X130099654Y-53551703D01*
X130163713Y-53478658D01*
X130176932Y-53469185D01*
X130211964Y-53445778D01*
X130218100Y-53440396D01*
X130218105Y-53440393D01*
X130396821Y-53283662D01*
X130480959Y-53235084D01*
X130577283Y-53222402D01*
X130671128Y-53247547D01*
G37*
%TD.AperFunction*%
%TA.AperFunction,Conductor*%
G36*
X119732752Y-29010209D02*
G01*
X119813534Y-29064185D01*
X119832136Y-29085002D01*
X119871195Y-29133981D01*
X119871197Y-29133983D01*
X119939923Y-29197752D01*
X119946631Y-29204212D01*
X120940436Y-30198017D01*
X121874570Y-31132150D01*
X121928546Y-31212932D01*
X121947500Y-31308220D01*
X121947500Y-37176191D01*
X121928546Y-37271479D01*
X121874570Y-37352261D01*
X121793788Y-37406237D01*
X121698500Y-37425191D01*
X121657084Y-37421723D01*
X121393178Y-37377208D01*
X121393177Y-37377207D01*
X121384973Y-37375824D01*
X121376663Y-37375546D01*
X121376652Y-37375545D01*
X121090552Y-37365980D01*
X121090547Y-37365980D01*
X121082229Y-37365702D01*
X121073939Y-37366535D01*
X121073938Y-37366536D01*
X120789123Y-37395189D01*
X120789115Y-37395190D01*
X120780838Y-37396023D01*
X120772749Y-37397950D01*
X120772741Y-37397952D01*
X120494272Y-37464314D01*
X120494263Y-37464316D01*
X120486176Y-37466244D01*
X120478409Y-37469235D01*
X120478407Y-37469236D01*
X120211274Y-37572119D01*
X120211260Y-37572125D01*
X120203503Y-37575113D01*
X120070617Y-37647937D01*
X120008473Y-37681993D01*
X119915801Y-37711165D01*
X119819019Y-37702652D01*
X119754831Y-37673515D01*
X119707750Y-37643460D01*
X119700203Y-37639958D01*
X119700198Y-37639955D01*
X119534184Y-37562916D01*
X119432980Y-37515953D01*
X119143667Y-37426207D01*
X119135475Y-37424825D01*
X119135466Y-37424823D01*
X118853178Y-37377208D01*
X118853177Y-37377207D01*
X118844973Y-37375824D01*
X118836663Y-37375546D01*
X118836652Y-37375545D01*
X118550552Y-37365980D01*
X118550547Y-37365980D01*
X118542229Y-37365702D01*
X118533939Y-37366535D01*
X118533938Y-37366536D01*
X118249123Y-37395189D01*
X118249115Y-37395190D01*
X118240838Y-37396023D01*
X118232749Y-37397950D01*
X118232741Y-37397952D01*
X117954272Y-37464314D01*
X117954263Y-37464316D01*
X117946176Y-37466244D01*
X117938409Y-37469235D01*
X117938407Y-37469236D01*
X117671274Y-37572119D01*
X117671260Y-37572125D01*
X117663503Y-37575113D01*
X117530617Y-37647937D01*
X117468473Y-37681993D01*
X117375801Y-37711165D01*
X117279019Y-37702652D01*
X117214831Y-37673515D01*
X117167750Y-37643460D01*
X117160203Y-37639958D01*
X117160198Y-37639955D01*
X116994184Y-37562916D01*
X116892980Y-37515953D01*
X116603667Y-37426207D01*
X116595475Y-37424825D01*
X116595466Y-37424823D01*
X116313178Y-37377208D01*
X116313177Y-37377207D01*
X116304973Y-37375824D01*
X116296663Y-37375546D01*
X116296652Y-37375545D01*
X116010552Y-37365980D01*
X116010547Y-37365980D01*
X116002229Y-37365702D01*
X115993939Y-37366535D01*
X115993938Y-37366536D01*
X115709123Y-37395189D01*
X115709115Y-37395190D01*
X115700838Y-37396023D01*
X115692744Y-37397951D01*
X115692737Y-37397953D01*
X115595222Y-37421192D01*
X115498136Y-37424844D01*
X115407043Y-37391064D01*
X115335810Y-37324996D01*
X115295283Y-37236697D01*
X115288500Y-37178975D01*
X115288500Y-35597373D01*
X115288674Y-35588062D01*
X115292180Y-35494363D01*
X115281676Y-35401149D01*
X115280813Y-35391944D01*
X115273802Y-35298370D01*
X115269597Y-35279949D01*
X115264920Y-35252420D01*
X115262805Y-35233650D01*
X115247950Y-35178212D01*
X115238534Y-35143069D01*
X115236292Y-35134032D01*
X115215420Y-35042584D01*
X115208517Y-35024996D01*
X115199788Y-34998467D01*
X115194901Y-34980228D01*
X115157394Y-34894261D01*
X115153830Y-34885656D01*
X115119568Y-34798357D01*
X115110120Y-34781993D01*
X115097534Y-34757061D01*
X115089983Y-34739753D01*
X115040086Y-34660343D01*
X115035280Y-34652366D01*
X114988386Y-34571143D01*
X114976607Y-34556373D01*
X114960445Y-34533595D01*
X114950396Y-34517602D01*
X114889211Y-34446504D01*
X114883290Y-34439358D01*
X114824804Y-34366018D01*
X114756074Y-34302246D01*
X114749367Y-34295786D01*
X113278212Y-32824631D01*
X113271752Y-32817923D01*
X113207983Y-32749196D01*
X113181654Y-32728200D01*
X113134644Y-32690711D01*
X113127505Y-32684796D01*
X113056398Y-32623602D01*
X113040396Y-32613548D01*
X113017627Y-32597392D01*
X113002859Y-32585615D01*
X112921641Y-32538724D01*
X112913666Y-32533919D01*
X112834244Y-32484015D01*
X112816936Y-32476464D01*
X112792007Y-32463880D01*
X112775644Y-32454432D01*
X112737974Y-32439648D01*
X112688291Y-32420148D01*
X112679722Y-32416598D01*
X112593774Y-32379098D01*
X112575523Y-32374208D01*
X112549007Y-32365483D01*
X112531414Y-32358578D01*
X112439961Y-32337704D01*
X112430927Y-32335464D01*
X112340351Y-32311195D01*
X112321575Y-32309079D01*
X112294059Y-32304404D01*
X112286375Y-32302650D01*
X112275630Y-32300198D01*
X112275629Y-32300197D01*
X112275625Y-32300197D01*
X112182085Y-32293186D01*
X112172817Y-32292317D01*
X112079640Y-32281818D01*
X111990677Y-32285147D01*
X111985917Y-32285326D01*
X111976608Y-32285500D01*
X37847221Y-32285500D01*
X37751933Y-32266546D01*
X37671151Y-32212570D01*
X37617175Y-32131788D01*
X37598221Y-32036500D01*
X37617175Y-31941212D01*
X37671151Y-31860431D01*
X39319309Y-30212270D01*
X39400091Y-30158293D01*
X39495379Y-30139339D01*
X39590667Y-30158293D01*
X39671448Y-30212269D01*
X39677910Y-30218977D01*
X39700018Y-30242804D01*
X39773358Y-30301290D01*
X39780504Y-30307211D01*
X39851603Y-30368397D01*
X39851605Y-30368398D01*
X39867595Y-30378445D01*
X39890373Y-30394607D01*
X39905143Y-30406386D01*
X39986366Y-30453280D01*
X39994343Y-30458086D01*
X40073753Y-30507983D01*
X40091061Y-30515534D01*
X40115993Y-30528120D01*
X40132357Y-30537568D01*
X40219656Y-30571830D01*
X40228257Y-30575392D01*
X40314225Y-30612900D01*
X40314226Y-30612900D01*
X40314228Y-30612901D01*
X40332467Y-30617788D01*
X40358996Y-30626517D01*
X40376584Y-30633420D01*
X40468050Y-30654296D01*
X40477069Y-30656534D01*
X40508405Y-30664930D01*
X40567649Y-30680805D01*
X40573014Y-30681409D01*
X40586420Y-30682920D01*
X40613949Y-30687597D01*
X40632370Y-30691802D01*
X40725944Y-30698813D01*
X40735149Y-30699676D01*
X40828363Y-30710180D01*
X40922064Y-30706673D01*
X40931374Y-30706500D01*
X52446818Y-30706500D01*
X52512506Y-30706500D01*
X65654818Y-30706500D01*
X65720506Y-30706500D01*
X78862818Y-30706500D01*
X78928506Y-30706500D01*
X92070818Y-30706500D01*
X92136506Y-30706500D01*
X105278818Y-30706500D01*
X105344506Y-30706500D01*
X117056608Y-30706500D01*
X117065917Y-30706673D01*
X117117328Y-30708597D01*
X117159635Y-30710181D01*
X117159635Y-30710180D01*
X117159636Y-30710181D01*
X117252854Y-30699676D01*
X117262078Y-30698811D01*
X117355630Y-30691802D01*
X117374053Y-30687596D01*
X117401580Y-30682920D01*
X117409305Y-30682049D01*
X117420350Y-30680805D01*
X117510981Y-30656519D01*
X117519942Y-30654297D01*
X117611416Y-30633420D01*
X117628999Y-30626518D01*
X117655527Y-30617789D01*
X117655531Y-30617788D01*
X117673775Y-30612900D01*
X117759770Y-30575380D01*
X117768319Y-30571839D01*
X117855643Y-30537568D01*
X117872009Y-30528118D01*
X117896927Y-30515538D01*
X117914247Y-30507983D01*
X117993672Y-30458076D01*
X118001605Y-30453295D01*
X118082857Y-30406386D01*
X118097627Y-30394607D01*
X118120408Y-30378444D01*
X118121314Y-30377874D01*
X118136397Y-30368398D01*
X118207506Y-30307201D01*
X118214660Y-30301275D01*
X118216744Y-30299613D01*
X118287981Y-30242805D01*
X118351766Y-30174058D01*
X118358174Y-30167405D01*
X119461397Y-29064182D01*
X119542176Y-29010209D01*
X119637464Y-28991255D01*
X119732752Y-29010209D01*
G37*
%TD.AperFunction*%
%TD*%
M02*
