%TF.GenerationSoftware,KiCad,Pcbnew,7.0.2*%
%TF.CreationDate,2024-03-07T11:00:20+05:30*%
%TF.ProjectId,HI-2401,48492d32-3430-4312-9e6b-696361645f70,rev?*%
%TF.SameCoordinates,Original*%
%TF.FileFunction,Soldermask,Top*%
%TF.FilePolarity,Negative*%
%FSLAX46Y46*%
G04 Gerber Fmt 4.6, Leading zero omitted, Abs format (unit mm)*
G04 Created by KiCad (PCBNEW 7.0.2) date 2024-03-07 11:00:20*
%MOMM*%
%LPD*%
G01*
G04 APERTURE LIST*
G04 Aperture macros list*
%AMRoundRect*
0 Rectangle with rounded corners*
0 $1 Rounding radius*
0 $2 $3 $4 $5 $6 $7 $8 $9 X,Y pos of 4 corners*
0 Add a 4 corners polygon primitive as box body*
4,1,4,$2,$3,$4,$5,$6,$7,$8,$9,$2,$3,0*
0 Add four circle primitives for the rounded corners*
1,1,$1+$1,$2,$3*
1,1,$1+$1,$4,$5*
1,1,$1+$1,$6,$7*
1,1,$1+$1,$8,$9*
0 Add four rect primitives between the rounded corners*
20,1,$1+$1,$2,$3,$4,$5,0*
20,1,$1+$1,$4,$5,$6,$7,0*
20,1,$1+$1,$6,$7,$8,$9,0*
20,1,$1+$1,$8,$9,$2,$3,0*%
G04 Aperture macros list end*
%ADD10RoundRect,0.250000X0.412500X0.650000X-0.412500X0.650000X-0.412500X-0.650000X0.412500X-0.650000X0*%
%ADD11R,1.600000X1.600000*%
%ADD12C,1.600000*%
%ADD13R,1.700000X1.700000*%
%ADD14O,1.700000X1.700000*%
%ADD15O,3.048000X1.850000*%
%ADD16RoundRect,0.250000X-0.412500X-0.650000X0.412500X-0.650000X0.412500X0.650000X-0.412500X0.650000X0*%
%ADD17R,1.524000X2.524000*%
%ADD18O,1.524000X2.524000*%
%ADD19C,1.000000*%
%ADD20R,10.500000X3.200000*%
%ADD21RoundRect,0.250000X0.650000X-0.412500X0.650000X0.412500X-0.650000X0.412500X-0.650000X-0.412500X0*%
%ADD22RoundRect,0.150000X-0.725000X-0.150000X0.725000X-0.150000X0.725000X0.150000X-0.725000X0.150000X0*%
%ADD23O,4.500000X5.500000*%
%ADD24O,1.500000X1.500000*%
%ADD25O,5.500000X8.000000*%
%ADD26R,2.500000X2.500000*%
%ADD27C,2.500000*%
%ADD28R,4.600000X2.000000*%
%ADD29O,4.200000X2.000000*%
%ADD30O,2.000000X4.200000*%
%ADD31C,1.500000*%
%ADD32R,3.000000X3.000000*%
%ADD33C,3.000000*%
G04 APERTURE END LIST*
D10*
%TO.C,C4*%
X32804500Y-62738000D03*
X29679500Y-62738000D03*
%TD*%
D11*
%TO.C,C15*%
X126556888Y-68072000D03*
D12*
X129056888Y-68072000D03*
%TD*%
D13*
%TO.C,J2*%
X55372000Y-61722000D03*
D14*
X52832000Y-61722000D03*
X50292000Y-61722000D03*
X47752000Y-61722000D03*
%TD*%
D15*
%TO.C,SW1*%
X49791500Y-83180000D03*
X37291500Y-83180000D03*
X49791500Y-78180000D03*
X37291500Y-78180000D03*
%TD*%
D13*
%TO.C,J4*%
X79756000Y-68580000D03*
D14*
X77216000Y-68580000D03*
X74676000Y-68580000D03*
X72136000Y-68580000D03*
X69596000Y-68580000D03*
X67056000Y-68580000D03*
X64516000Y-68580000D03*
X61976000Y-68580000D03*
%TD*%
D16*
%TO.C,C17*%
X108419500Y-54610000D03*
X111544500Y-54610000D03*
%TD*%
D17*
%TO.C,AFF1*%
X110998000Y-40132000D03*
D18*
X113538000Y-40132000D03*
X116078000Y-40132000D03*
X118618000Y-40132000D03*
X121158000Y-40132000D03*
X121158000Y-24892000D03*
X118618000Y-24892000D03*
X116078000Y-24892000D03*
X113538000Y-24892000D03*
X110998000Y-24892000D03*
%TD*%
D15*
%TO.C,SW4*%
X98415500Y-83180000D03*
X85915500Y-83180000D03*
X98415500Y-78180000D03*
X85915500Y-78180000D03*
%TD*%
D10*
%TO.C,C3*%
X32804500Y-65278000D03*
X29679500Y-65278000D03*
%TD*%
D11*
%TO.C,C9*%
X122468000Y-48260000D03*
D12*
X124968000Y-48260000D03*
%TD*%
D19*
%TO.C,Y2*%
X75438000Y-56418000D03*
X75438000Y-53878000D03*
D20*
X84188000Y-55148000D03*
%TD*%
D16*
%TO.C,C20*%
X108381000Y-63754000D03*
X111506000Y-63754000D03*
%TD*%
D17*
%TO.C,AFF6*%
X44958000Y-40132000D03*
D18*
X47498000Y-40132000D03*
X50038000Y-40132000D03*
X52578000Y-40132000D03*
X55118000Y-40132000D03*
X55118000Y-24892000D03*
X52578000Y-24892000D03*
X50038000Y-24892000D03*
X47498000Y-24892000D03*
X44958000Y-24892000D03*
%TD*%
D13*
%TO.C,J1*%
X37338000Y-72390000D03*
D14*
X39878000Y-72390000D03*
X42418000Y-72390000D03*
X44958000Y-72390000D03*
X47498000Y-72390000D03*
%TD*%
D16*
%TO.C,C13*%
X108419500Y-57912000D03*
X111544500Y-57912000D03*
%TD*%
D21*
%TO.C,C10*%
X123444000Y-57442500D03*
X123444000Y-54317500D03*
%TD*%
D11*
%TO.C,C19*%
X104140000Y-59690000D03*
D12*
X101640000Y-59690000D03*
%TD*%
D17*
%TO.C,AFF7*%
X31750000Y-40132000D03*
D18*
X34290000Y-40132000D03*
X36830000Y-40132000D03*
X39370000Y-40132000D03*
X41910000Y-40132000D03*
X41910000Y-24892000D03*
X39370000Y-24892000D03*
X36830000Y-24892000D03*
X34290000Y-24892000D03*
X31750000Y-24892000D03*
%TD*%
D17*
%TO.C,AFF3*%
X84582000Y-40132000D03*
D18*
X87122000Y-40132000D03*
X89662000Y-40132000D03*
X92202000Y-40132000D03*
X94742000Y-40132000D03*
X94742000Y-24892000D03*
X92202000Y-24892000D03*
X89662000Y-24892000D03*
X87122000Y-24892000D03*
X84582000Y-24892000D03*
%TD*%
D22*
%TO.C,U6*%
X114808000Y-55626000D03*
X114808000Y-56896000D03*
X114808000Y-58166000D03*
X114808000Y-59436000D03*
X114808000Y-60706000D03*
X114808000Y-61976000D03*
X114808000Y-63246000D03*
X114808000Y-64516000D03*
X119958000Y-64516000D03*
X119958000Y-63246000D03*
X119958000Y-61976000D03*
X119958000Y-60706000D03*
X119958000Y-59436000D03*
X119958000Y-58166000D03*
X119958000Y-56896000D03*
X119958000Y-55626000D03*
%TD*%
D11*
%TO.C,C23*%
X121452000Y-72644000D03*
D12*
X123952000Y-72644000D03*
%TD*%
D23*
%TO.C,*%
X25146000Y-23114000D03*
%TD*%
D10*
%TO.C,C14*%
X111506000Y-60960000D03*
X108381000Y-60960000D03*
%TD*%
D23*
%TO.C,*%
X127254000Y-22860000D03*
%TD*%
D24*
%TO.C,*%
X115787500Y-51562000D03*
%TD*%
%TO.C,*%
X104684500Y-86006000D03*
%TD*%
D25*
%TO.C,*%
X127254000Y-81280000D03*
%TD*%
D13*
%TO.C,J3*%
X82296000Y-71882000D03*
D14*
X79756000Y-71882000D03*
X77216000Y-71882000D03*
X74676000Y-71882000D03*
X72136000Y-71882000D03*
%TD*%
D24*
%TO.C,*%
X115787500Y-48768000D03*
%TD*%
D26*
%TO.C,J6*%
X110744000Y-85090000D03*
D27*
X115824000Y-85090000D03*
%TD*%
D13*
%TO.C,J5*%
X128778000Y-57912000D03*
D14*
X128778000Y-60452000D03*
X128778000Y-62992000D03*
%TD*%
D17*
%TO.C,AFF4*%
X71374000Y-40132000D03*
D18*
X73914000Y-40132000D03*
X76454000Y-40132000D03*
X78994000Y-40132000D03*
X81534000Y-40132000D03*
X81534000Y-24892000D03*
X78994000Y-24892000D03*
X76454000Y-24892000D03*
X73914000Y-24892000D03*
X71374000Y-24892000D03*
%TD*%
D15*
%TO.C,SW3*%
X82159500Y-83180000D03*
X69659500Y-83180000D03*
X82159500Y-78180000D03*
X69659500Y-78180000D03*
%TD*%
%TO.C,SW2*%
X65903500Y-83180000D03*
X53403500Y-83180000D03*
X65903500Y-78180000D03*
X53403500Y-78180000D03*
%TD*%
D28*
%TO.C,J8*%
X114580000Y-76094000D03*
D29*
X114580000Y-82394000D03*
D30*
X119380000Y-78994000D03*
%TD*%
D31*
%TO.C,Y1*%
X36522000Y-64516000D03*
X41402000Y-64516000D03*
%TD*%
D13*
%TO.C,J7*%
X128778000Y-49037000D03*
D14*
X128778000Y-51577000D03*
X128778000Y-54117000D03*
%TD*%
D17*
%TO.C,AFF5*%
X58166000Y-40132000D03*
D18*
X60706000Y-40132000D03*
X63246000Y-40132000D03*
X65786000Y-40132000D03*
X68326000Y-40132000D03*
X68326000Y-24892000D03*
X65786000Y-24892000D03*
X63246000Y-24892000D03*
X60706000Y-24892000D03*
X58166000Y-24892000D03*
%TD*%
D17*
%TO.C,AFF2*%
X97790000Y-40132000D03*
D18*
X100330000Y-40132000D03*
X102870000Y-40132000D03*
X105410000Y-40132000D03*
X107950000Y-40132000D03*
X107950000Y-24892000D03*
X105410000Y-24892000D03*
X102870000Y-24892000D03*
X100330000Y-24892000D03*
X97790000Y-24892000D03*
%TD*%
D11*
%TO.C,C5*%
X92496000Y-72136000D03*
D12*
X94996000Y-72136000D03*
%TD*%
D25*
%TO.C,*%
X25400000Y-81280000D03*
%TD*%
D32*
%TO.C,BT1*%
X43942000Y-58166000D03*
D33*
X23452000Y-58166000D03*
%TD*%
M02*
