M48
; DRILL file {KiCad 7.0.2} date Thu Mar  7 11:00:24 2024
; FORMAT={-:-/ absolute / metric / decimal}
; #@! TF.CreationDate,2024-03-07T11:00:24+05:30
; #@! TF.GenerationSoftware,Kicad,Pcbnew,7.0.2
; #@! TF.FileFunction,Plated,1,2,PTH
FMAT,2
METRIC
; #@! TA.AperFunction,Plated,PTH,ComponentDrill
T1C0.500
; #@! TA.AperFunction,Plated,PTH,ViaDrill
T2C0.600
; #@! TA.AperFunction,Plated,PTH,ViaDrill
T3C0.650
; #@! TA.AperFunction,Plated,PTH,ComponentDrill
T4C0.800
; #@! TA.AperFunction,Plated,PTH,ComponentDrill
T5C1.000
; #@! TA.AperFunction,Plated,PTH,ComponentDrill
T6C1.300
; #@! TA.AperFunction,Plated,PTH,ComponentDrill
T7C1.500
%
G90
G05
T1
X75.438Y-53.878
X75.438Y-56.418
T2
X58.674Y-46.228
X69.596Y-44.958
X73.66Y-45.974
X117.348Y-47.498
X117.348Y-52.578
T3
X37.084Y-46.736
X42.672Y-35.814
X46.228Y-35.814
X50.292Y-47.244
X54.356Y-58.674
X54.61Y-52.07
X54.61Y-53.34
X62.992Y-54.61
X62.992Y-55.88
X62.992Y-57.15
X62.992Y-58.674
X64.77Y-58.928
X66.04Y-59.69
X73.152Y-59.436
X73.406Y-62.992
X75.438Y-45.974
X75.438Y-61.468
X77.216Y-46.228
X79.502Y-55.118
X80.01Y-49.784
X81.788Y-49.784
X86.36Y-52.578
X86.614Y-65.278
X89.408Y-52.324
X91.948Y-52.578
X91.948Y-58.674
X92.71Y-56.134
X97.536Y-55.88
X98.552Y-69.85
X105.41Y-70.866
X107.188Y-45.974
X107.188Y-47.498
X119.38Y-54.864
X122.682Y-63.5
X122.936Y-61.468
X123.952Y-56.642
T4
X31.75Y-24.892
X31.75Y-40.132
X34.29Y-24.892
X34.29Y-40.132
X36.522Y-64.516
X36.83Y-24.892
X36.83Y-40.132
X39.37Y-24.892
X39.37Y-40.132
X41.402Y-64.516
X41.91Y-24.892
X41.91Y-40.132
X44.958Y-24.892
X44.958Y-40.132
X47.498Y-24.892
X47.498Y-40.132
X50.038Y-24.892
X50.038Y-40.132
X52.578Y-24.892
X52.578Y-40.132
X55.118Y-24.892
X55.118Y-40.132
X58.166Y-24.892
X58.166Y-40.132
X60.706Y-24.892
X60.706Y-40.132
X63.246Y-24.892
X63.246Y-40.132
X65.786Y-24.892
X65.786Y-40.132
X68.326Y-24.892
X68.326Y-40.132
X71.374Y-24.892
X71.374Y-40.132
X73.914Y-24.892
X73.914Y-40.132
X76.454Y-24.892
X76.454Y-40.132
X78.994Y-24.892
X78.994Y-40.132
X81.534Y-24.892
X81.534Y-40.132
X84.582Y-24.892
X84.582Y-40.132
X87.122Y-24.892
X87.122Y-40.132
X89.662Y-24.892
X89.662Y-40.132
X92.202Y-24.892
X92.202Y-40.132
X92.496Y-72.136
X94.742Y-24.892
X94.742Y-40.132
X94.996Y-72.136
X97.79Y-24.892
X97.79Y-40.132
X100.33Y-24.892
X100.33Y-40.132
X101.64Y-59.69
X102.87Y-24.892
X102.87Y-40.132
X104.14Y-59.69
X105.41Y-24.892
X105.41Y-40.132
X107.95Y-24.892
X107.95Y-40.132
X110.998Y-24.892
X110.998Y-40.132
X113.538Y-24.892
X113.538Y-40.132
X116.078Y-24.892
X116.078Y-40.132
X118.618Y-24.892
X118.618Y-40.132
X121.158Y-24.892
X121.158Y-40.132
X121.452Y-72.644
X122.468Y-48.26
X123.952Y-72.644
X124.968Y-48.26
X126.557Y-68.072
X129.057Y-68.072
T5
X37.338Y-72.39
X39.878Y-72.39
X42.418Y-72.39
X44.958Y-72.39
X47.498Y-72.39
X47.752Y-61.722
X50.292Y-61.722
X52.832Y-61.722
X55.372Y-61.722
X61.976Y-68.58
X64.516Y-68.58
X67.056Y-68.58
X69.596Y-68.58
X72.136Y-68.58
X72.136Y-71.882
X74.676Y-68.58
X74.676Y-71.882
X77.216Y-68.58
X77.216Y-71.882
X79.756Y-68.58
X79.756Y-71.882
X82.296Y-71.882
X128.778Y-49.037
X128.778Y-51.577
X128.778Y-54.117
X128.778Y-57.912
X128.778Y-60.452
X128.778Y-62.992
T6
X37.291Y-78.18
X37.291Y-83.18
X49.791Y-78.18
X49.791Y-83.18
X53.404Y-78.18
X53.404Y-83.18
X65.903Y-78.18
X65.903Y-83.18
X69.659Y-78.18
X69.659Y-83.18
X82.159Y-78.18
X82.159Y-83.18
X85.915Y-78.18
X85.915Y-83.18
X98.415Y-78.18
X98.415Y-83.18
X110.744Y-85.09
X115.824Y-85.09
T7
X23.452Y-58.166
X43.942Y-58.166
T5
G00X113.28Y-76.094
M15
G01X115.88Y-76.094
M16
G05
G00X113.48Y-82.394
M15
G01X115.68Y-82.394
M16
G05
G00X119.38Y-77.894
M15
G01X119.38Y-80.094
M16
G05
T0
M30
