%TF.GenerationSoftware,KiCad,Pcbnew,7.0.2*%
%TF.CreationDate,2024-03-07T11:00:20+05:30*%
%TF.ProjectId,HI-2401,48492d32-3430-4312-9e6b-696361645f70,rev?*%
%TF.SameCoordinates,Original*%
%TF.FileFunction,Paste,Bot*%
%TF.FilePolarity,Positive*%
%FSLAX46Y46*%
G04 Gerber Fmt 4.6, Leading zero omitted, Abs format (unit mm)*
G04 Created by KiCad (PCBNEW 7.0.2) date 2024-03-07 11:00:20*
%MOMM*%
%LPD*%
G01*
G04 APERTURE LIST*
G04 Aperture macros list*
%AMRoundRect*
0 Rectangle with rounded corners*
0 $1 Rounding radius*
0 $2 $3 $4 $5 $6 $7 $8 $9 X,Y pos of 4 corners*
0 Add a 4 corners polygon primitive as box body*
4,1,4,$2,$3,$4,$5,$6,$7,$8,$9,$2,$3,0*
0 Add four circle primitives for the rounded corners*
1,1,$1+$1,$2,$3*
1,1,$1+$1,$4,$5*
1,1,$1+$1,$6,$7*
1,1,$1+$1,$8,$9*
0 Add four rect primitives between the rounded corners*
20,1,$1+$1,$2,$3,$4,$5,0*
20,1,$1+$1,$4,$5,$6,$7,0*
20,1,$1+$1,$6,$7,$8,$9,0*
20,1,$1+$1,$8,$9,$2,$3,0*%
G04 Aperture macros list end*
%ADD10RoundRect,0.250000X0.400000X0.625000X-0.400000X0.625000X-0.400000X-0.625000X0.400000X-0.625000X0*%
%ADD11RoundRect,0.062500X-0.062500X0.687500X-0.062500X-0.687500X0.062500X-0.687500X0.062500X0.687500X0*%
%ADD12RoundRect,0.062500X-0.687500X0.062500X-0.687500X-0.062500X0.687500X-0.062500X0.687500X0.062500X0*%
%ADD13RoundRect,0.250000X0.625000X-0.400000X0.625000X0.400000X-0.625000X0.400000X-0.625000X-0.400000X0*%
%ADD14RoundRect,0.250001X-0.462499X-0.624999X0.462499X-0.624999X0.462499X0.624999X-0.462499X0.624999X0*%
%ADD15RoundRect,0.250000X0.412500X0.650000X-0.412500X0.650000X-0.412500X-0.650000X0.412500X-0.650000X0*%
%ADD16RoundRect,0.250000X-1.100000X0.500000X-1.100000X-0.500000X1.100000X-0.500000X1.100000X0.500000X0*%
%ADD17RoundRect,0.250000X0.650000X-0.412500X0.650000X0.412500X-0.650000X0.412500X-0.650000X-0.412500X0*%
%ADD18RoundRect,0.150000X0.150000X-0.725000X0.150000X0.725000X-0.150000X0.725000X-0.150000X-0.725000X0*%
%ADD19R,1.500000X2.000000*%
%ADD20R,3.800000X2.000000*%
%ADD21RoundRect,0.250000X-0.412500X-0.650000X0.412500X-0.650000X0.412500X0.650000X-0.412500X0.650000X0*%
%ADD22RoundRect,0.150000X0.650000X0.150000X-0.650000X0.150000X-0.650000X-0.150000X0.650000X-0.150000X0*%
%ADD23RoundRect,0.250001X0.462499X0.624999X-0.462499X0.624999X-0.462499X-0.624999X0.462499X-0.624999X0*%
%ADD24RoundRect,0.250000X-0.650000X0.412500X-0.650000X-0.412500X0.650000X-0.412500X0.650000X0.412500X0*%
G04 APERTURE END LIST*
D10*
%TO.C,R14*%
X106234500Y-83566000D03*
X103134500Y-83566000D03*
%TD*%
%TO.C,R8*%
X94514000Y-64770000D03*
X91414000Y-64770000D03*
%TD*%
%TO.C,R16*%
X112268000Y-51562000D03*
X109168000Y-51562000D03*
%TD*%
D11*
%TO.C,U2*%
X60754000Y-52975000D03*
X61154000Y-52975000D03*
X61554000Y-52975000D03*
X61954000Y-52975000D03*
X62354000Y-52975000D03*
X62754000Y-52975000D03*
X63154000Y-52975000D03*
X63554000Y-52975000D03*
X63954000Y-52975000D03*
X64354000Y-52975000D03*
X64754000Y-52975000D03*
X65154000Y-52975000D03*
X65554000Y-52975000D03*
X65954000Y-52975000D03*
X66354000Y-52975000D03*
X66754000Y-52975000D03*
D12*
X67929000Y-54150000D03*
X67929000Y-54550000D03*
X67929000Y-54950000D03*
X67929000Y-55350000D03*
X67929000Y-55750000D03*
X67929000Y-56150000D03*
X67929000Y-56550000D03*
X67929000Y-56950000D03*
X67929000Y-57350000D03*
X67929000Y-57750000D03*
X67929000Y-58150000D03*
X67929000Y-58550000D03*
X67929000Y-58950000D03*
X67929000Y-59350000D03*
X67929000Y-59750000D03*
X67929000Y-60150000D03*
D11*
X66754000Y-61325000D03*
X66354000Y-61325000D03*
X65954000Y-61325000D03*
X65554000Y-61325000D03*
X65154000Y-61325000D03*
X64754000Y-61325000D03*
X64354000Y-61325000D03*
X63954000Y-61325000D03*
X63554000Y-61325000D03*
X63154000Y-61325000D03*
X62754000Y-61325000D03*
X62354000Y-61325000D03*
X61954000Y-61325000D03*
X61554000Y-61325000D03*
X61154000Y-61325000D03*
X60754000Y-61325000D03*
D12*
X59579000Y-60150000D03*
X59579000Y-59750000D03*
X59579000Y-59350000D03*
X59579000Y-58950000D03*
X59579000Y-58550000D03*
X59579000Y-58150000D03*
X59579000Y-57750000D03*
X59579000Y-57350000D03*
X59579000Y-56950000D03*
X59579000Y-56550000D03*
X59579000Y-56150000D03*
X59579000Y-55750000D03*
X59579000Y-55350000D03*
X59579000Y-54950000D03*
X59579000Y-54550000D03*
X59579000Y-54150000D03*
%TD*%
D13*
%TO.C,R17*%
X91821000Y-56134000D03*
X91821000Y-53034000D03*
%TD*%
%TO.C,R13*%
X68834000Y-74867500D03*
X68834000Y-71767500D03*
%TD*%
D14*
%TO.C,D3*%
X114336500Y-51562000D03*
X117311500Y-51562000D03*
%TD*%
D15*
%TO.C,C7*%
X92710000Y-58547000D03*
X89585000Y-58547000D03*
%TD*%
D16*
%TO.C,D4*%
X103886000Y-74956000D03*
X103886000Y-79756000D03*
%TD*%
D17*
%TO.C,C18*%
X98806000Y-65316500D03*
X98806000Y-62191500D03*
%TD*%
D15*
%TO.C,C12*%
X80302500Y-54132000D03*
X77177500Y-54132000D03*
%TD*%
D18*
%TO.C,U7*%
X104013000Y-53156000D03*
X102743000Y-53156000D03*
X101473000Y-53156000D03*
X100203000Y-53156000D03*
X98933000Y-53156000D03*
X97663000Y-53156000D03*
X96393000Y-53156000D03*
X95123000Y-53156000D03*
X95123000Y-48006000D03*
X96393000Y-48006000D03*
X97663000Y-48006000D03*
X98933000Y-48006000D03*
X100203000Y-48006000D03*
X101473000Y-48006000D03*
X102743000Y-48006000D03*
X104013000Y-48006000D03*
%TD*%
D10*
%TO.C,R15*%
X112294000Y-48768000D03*
X109194000Y-48768000D03*
%TD*%
D19*
%TO.C,U5*%
X107724000Y-71628000D03*
X105424000Y-71628000D03*
D20*
X105424000Y-65328000D03*
D19*
X103124000Y-71628000D03*
%TD*%
D13*
%TO.C,R12*%
X54356000Y-48768000D03*
X54356000Y-45668000D03*
%TD*%
D21*
%TO.C,C2*%
X51231000Y-56134000D03*
X54356000Y-56134000D03*
%TD*%
D13*
%TO.C,R18*%
X89281000Y-56134000D03*
X89281000Y-53034000D03*
%TD*%
D10*
%TO.C,R11*%
X94540000Y-62484000D03*
X91440000Y-62484000D03*
%TD*%
D13*
%TO.C,R6*%
X69596000Y-48768000D03*
X69596000Y-45668000D03*
%TD*%
D21*
%TO.C,C11*%
X77177500Y-56418000D03*
X80302500Y-56418000D03*
%TD*%
D22*
%TO.C,U3*%
X88182000Y-61595000D03*
X88182000Y-62865000D03*
X88182000Y-64135000D03*
X88182000Y-65405000D03*
X80982000Y-65405000D03*
X80982000Y-64135000D03*
X80982000Y-62865000D03*
X80982000Y-61595000D03*
%TD*%
D19*
%TO.C,U4*%
X117856000Y-71628000D03*
X115556000Y-71628000D03*
D20*
X115556000Y-65328000D03*
D19*
X113256000Y-71628000D03*
%TD*%
D21*
%TO.C,C21*%
X94957500Y-58547000D03*
X98082500Y-58547000D03*
%TD*%
D13*
%TO.C,R3*%
X61468000Y-48768000D03*
X61468000Y-45668000D03*
%TD*%
%TO.C,R4*%
X64262000Y-48794000D03*
X64262000Y-45694000D03*
%TD*%
D15*
%TO.C,C1*%
X54394500Y-58420000D03*
X51269500Y-58420000D03*
%TD*%
D14*
%TO.C,D2*%
X114336500Y-48768000D03*
X117311500Y-48768000D03*
%TD*%
D15*
%TO.C,C6*%
X95034500Y-74676000D03*
X91909500Y-74676000D03*
%TD*%
D13*
%TO.C,R7*%
X72136000Y-48768000D03*
X72136000Y-45668000D03*
%TD*%
D23*
%TO.C,D1*%
X106172000Y-86006000D03*
X103197000Y-86006000D03*
%TD*%
D10*
%TO.C,R10*%
X94514000Y-67056000D03*
X91414000Y-67056000D03*
%TD*%
D13*
%TO.C,R1*%
X56642000Y-35560000D03*
X56642000Y-32460000D03*
%TD*%
D24*
%TO.C,C16*%
X120904000Y-65455000D03*
X120904000Y-68580000D03*
%TD*%
D10*
%TO.C,R9*%
X94514000Y-69342000D03*
X91414000Y-69342000D03*
%TD*%
D13*
%TO.C,R2*%
X58674000Y-48768000D03*
X58674000Y-45668000D03*
%TD*%
D24*
%TO.C,C22*%
X107442000Y-76631000D03*
X107442000Y-79756000D03*
%TD*%
%TO.C,C8*%
X66421000Y-71755000D03*
X66421000Y-74880000D03*
%TD*%
D13*
%TO.C,R5*%
X66802000Y-48768000D03*
X66802000Y-45668000D03*
%TD*%
%TO.C,R19*%
X86741000Y-56134000D03*
X86741000Y-53034000D03*
%TD*%
M02*
